{
.appVersion = "1342";
DisplayStrings = (

glyphs = (
{
glyphname = .notdef;
lastChange = "2020-12-07 01:11:22 +0000";
layers = (
{
layerId = "D6A4831D-747C-4592-93C0-305F4CD57904";
paths = (
{
closed = 1;
nodes = (
"563 368 LINE",
"563 448 LINE SMOOTH",
"563 467 OFFCURVE",
"562 620 OFFCURVE",
"557 684 QCURVE SMOOTH",
"555 712 OFFCURVE",
"534 771 OFFCURVE",
"519 791 QCURVE SMOOTH",
"513 799 OFFCURVE",
"493 809 OFFCURVE",
"482 809 QCURVE SMOOTH",
"472 809 OFFCURVE",
"461 802 QCURVE SMOOTH",
"388 756 OFFCURVE",
"296 757 OFFCURVE",
"273 744 OFFCURVE",
"252 727 OFFCURVE",
"265 668 OFFCURVE",
"287 673 OFFCURVE",
"319 673 QCURVE SMOOTH",
"411 673 OFFCURVE",
"465 673 QCURVE",
"473 670 OFFCURVE",
"469 508 OFFCURVE",
"469 406 QCURVE SMOOTH",
"469 211 OFFCURVE",
"486 74 OFFCURVE",
"475 0 QCURVE",
"429 -12 OFFCURVE",
"233 -35 OFFCURVE",
"182 -39 QCURVE",
"180 -6 OFFCURVE",
"179 11 QCURVE SMOOTH",
"173 96 OFFCURVE",
"174 134 QCURVE SMOOTH",
"174 163 OFFCURVE",
"175 178 QCURVE",
"177 396 OFFCURVE",
"185 529 QCURVE",
"186 539 OFFCURVE",
"190 584 QCURVE SMOOTH",
"194 618 OFFCURVE",
"194 637 QCURVE SMOOTH",
"194 657 OFFCURVE",
"183 680 OFFCURVE",
"169 684 QCURVE",
"162 687 OFFCURVE",
"146 687 QCURVE SMOOTH",
"101 687 OFFCURVE",
"68 660 QCURVE SMOOTH",
"63 656 OFFCURVE",
"61 627 OFFCURVE",
"61 592 QCURVE SMOOTH",
"61 567 OFFCURVE",
"60 558 QCURVE SMOOTH",
"59 547 OFFCURVE",
"62 521 OFFCURVE",
"63 514 QCURVE",
"64 308 LINE SMOOTH",
"68 34 OFFCURVE",
"68 -101 QCURVE SMOOTH",
"68 -112 OFFCURVE",
"72 -135 OFFCURVE",
"77 -139 QCURVE",
"87 -151 OFFCURVE",
"93 -158 QCURVE SMOOTH",
"119 -188 OFFCURVE",
"170 -201 OFFCURVE",
"177 -197 QCURVE",
"206 -182 OFFCURVE",
"271 -179 QCURVE",
"294 -175 OFFCURVE",
"347 -169 QCURVE SMOOTH",
"476 -157 OFFCURVE",
"541 -141 QCURVE SMOOTH",
"549 -139 OFFCURVE",
"569 -104 OFFCURVE",
"569 -90 QCURVE SMOOTH",
"569 2 OFFCURVE",
"566 233 OFFCURVE",
"565 278 QCURVE SMOOTH"
);
}
);
userData = {
assembly = "NPUSHB[ ]	/* 54 values pushed */\01249 41 22 3 0 2 1 76 0 4 3 4 133 0 1 3 2 3 1 2 128 0 0 2 0 134 0 3 1 2 3 89 0 3 3 2 95 0 2 3 2 79 70 68 66 65 61 58 33 31 25 5 6 23 \012CALL[ ]	/* CallFunction */";
};
width = 619;
}
);
note = .notdef;
},
{
glyphname = exclam;
layers = (
{
layerId = "D6A4831D-747C-4592-93C0-305F4CD57904";
paths = (
{
closed = 1;
nodes = (
"287 566 LINE",
"277 642 LINE SMOOTH",
"274 667 OFFCURVE",
"235 715 OFFCURVE",
"218 715 QCURVE SMOOTH",
"197 715 OFFCURVE",
"178 680 OFFCURVE",
"176 641 QCURVE SMOOTH",
"175 626 LINE SMOOTH",
"167 444 OFFCURVE",
"116 232 QCURVE SMOOTH",
"106 189 OFFCURVE",
"103 155 QCURVE",
"103 145 OFFCURVE",
"112 120 OFFCURVE",
"118 114 QCURVE",
"124 110 OFFCURVE",
"130 110 QCURVE SMOOTH",
"143 110 OFFCURVE",
"150 117 QCURVE",
"176 141 OFFCURVE",
"190 171 QCURVE",
"203 196 OFFCURVE",
"219 252 QCURVE SMOOTH",
"254 387 OFFCURVE",
"267 446 QCURVE SMOOTH",
"272 470 OFFCURVE",
"281 530 QCURVE SMOOTH"
);
},
{
closed = 1;
nodes = (
"108 -34 OFFCURVE",
"120 -34 QCURVE SMOOTH",
"142 -34 OFFCURVE",
"156 -14 QCURVE SMOOTH",
"164 -3 OFFCURVE",
"164 10 QCURVE SMOOTH",
"164 31 OFFCURVE",
"145 47 QCURVE SMOOTH",
"132 58 OFFCURVE",
"115 63 QCURVE SMOOTH",
"102 67 OFFCURVE",
"64 75 OFFCURVE",
"55 77 QCURVE",
"50 60 OFFCURVE",
"50 40 QCURVE SMOOTH",
"50 15 OFFCURVE",
"73 -18 OFFCURVE",
"96 -28 QCURVE"
);
}
);
userData = {
assembly = "NPUSHB[ ]	/* 10 values pushed */\01215 1 0 1 32 1 2 0 2 76 \012MPPEM[ ]	/* MeasurePixelPerEm */\012PUSHB[ ]	/* 1 value pushed */\01221 \012LT[ ]	/* LessThan */\012IF[ ]	/* If */\012NPUSHB[ ]	/* 19 values pushed */\0120 0 1 2 1 0 2 128 0 1 1 36 77 0 2 2 31 2 78 \012ELSE[ ]	/* Else */\012MPPEM[ ]	/* MeasurePixelPerEm */\012PUSHB[ ]	/* 1 value pushed */\01231 \012LT[ ]	/* LessThan */\012IF[ ]	/* If */\012NPUSHB[ ]	/* 16 values pushed */\0120 1 0 1 133 0 0 2 0 133 0 2 2 31 2 78 \012ELSE[ ]	/* Else */\012NPUSHB[ ]	/* 14 values pushed */\0120 1 0 1 133 0 0 2 0 133 0 2 2 118 \012EIF[ ]	/* EndIf */\012EIF[ ]	/* EndIf */\012PUSHB[ ]	/* 7 values pushed */\01244 42 44 25 3 8 24 \012CALL[ ]	/* CallFunction */";
};
width = 337;
}
);
note = exclam;
unicode = 0021;
},
{
glyphname = quotedbl;
lastChange = "2020-12-07 01:11:18 +0000";
layers = (
{
layerId = "D6A4831D-747C-4592-93C0-305F4CD57904";
paths = (
{
closed = 1;
nodes = (
"94 674 OFFCURVE",
"94 641 QCURVE",
"95 629 OFFCURVE",
"97 587 QCURVE SMOOTH",
"98 565 LINE",
"93 539 OFFCURVE",
"81 501 QCURVE SMOOTH",
"70 465 OFFCURVE",
"60 422 OFFCURVE",
"60 399 QCURVE SMOOTH",
"60 395 OFFCURVE",
"73 391 QCURVE",
"77 389 OFFCURVE",
"82 392 QCURVE",
"123 432 OFFCURVE",
"176 552 OFFCURVE",
"190 614 QCURVE SMOOTH",
"196 641 OFFCURVE",
"198 665 QCURVE",
"199 670 OFFCURVE",
"199 685 OFFCURVE",
"201 697 QCURVE",
"202 705 OFFCURVE",
"177 713 OFFCURVE",
"158 713 QCURVE SMOOTH",
"138 713 OFFCURVE",
"102 705 OFFCURVE",
"101 701 QCURVE SMOOTH"
);
},
{
closed = 1;
nodes = (
"345 693 OFFCURVE",
"299 706 OFFCURVE",
"273 706 QCURVE SMOOTH",
"250 706 OFFCURVE",
"250 701 QCURVE",
"237 652 OFFCURVE",
"234 575 QCURVE",
"232 555 LINE",
"226 523 OFFCURVE",
"224 511 QCURVE",
"209 444 OFFCURVE",
"209 399 QCURVE SMOOTH",
"209 395 OFFCURVE",
"222 391 QCURVE",
"224 390 OFFCURVE",
"249 417 OFFCURVE",
"252 420 QCURVE SMOOTH",
"280 448 OFFCURVE",
"313 508 OFFCURVE",
"328 564 OFFCURVE",
"339 614 QCURVE SMOOTH",
"344 637 OFFCURVE",
"344 644 QCURVE SMOOTH",
"344 647 OFFCURVE",
"343 655 OFFCURVE",
"343 661 QCURVE SMOOTH",
"343 672 OFFCURVE",
"344 681 QCURVE SMOOTH"
);
}
);
userData = {
assembly = "MPPEM[ ]	/* MeasurePixelPerEm */\012PUSHB[ ]	/* 1 value pushed */\01234 \012LT[ ]	/* LessThan */\012IF[ ]	/* If */\012PUSHB[ ]	/* 7 values pushed */\01248 29 25 22 4 0 73 \012ELSE[ ]	/* Else */\012PUSHB[ ]	/* 7 values pushed */\01248 29 25 22 4 1 73 \012EIF[ ]	/* EndIf */\012MPPEM[ ]	/* MeasurePixelPerEm */\012PUSHB[ ]	/* 1 value pushed */\01221 \012LT[ ]	/* LessThan */\012IF[ ]	/* If */\012PUSHB[ ]	/* 7 values pushed */\0121 1 0 0 36 0 78 \012ELSE[ ]	/* Else */\012MPPEM[ ]	/* MeasurePixelPerEm */\012PUSHB[ ]	/* 1 value pushed */\01234 \012LT[ ]	/* LessThan */\012IF[ ]	/* If */\012PUSHB[ ]	/* 5 values pushed */\0121 1 0 0 118 \012ELSE[ ]	/* Else */\012NPUSHB[ ]	/* 9 values pushed */\0120 0 1 0 133 0 1 1 118 \012EIF[ ]	/* EndIf */\012EIF[ ]	/* EndIf */\012PUSHB[ ]	/* 6 values pushed */\01253 52 33 2 8 23 \012CALL[ ]	/* CallFunction */";
};
width = 394;
}
);
note = quotedbl;
unicode = 0022;
},
{
glyphname = numbersign;
lastChange = "2020-12-07 01:11:22 +0000";
layers = (
{
layerId = "D6A4831D-747C-4592-93C0-305F4CD57904";
paths = (
{
closed = 1;
nodes = (
"688 336 OFFCURVE",
"678 348 OFFCURVE",
"671 351 QCURVE SMOOTH",
"657 357 OFFCURVE",
"631 357 QCURVE",
"599 355 OFFCURVE",
"533 350 QCURVE",
"541 385 OFFCURVE",
"556 453 QCURVE",
"575 457 OFFCURVE",
"621 470 OFFCURVE",
"633 473 QCURVE",
"655 480 LINE",
"661 481 OFFCURVE",
"675 492 OFFCURVE",
"675 495 QCURVE",
"675 495 LINE",
"672 500 OFFCURVE",
"657 509 OFFCURVE",
"647 511 QCURVE",
"641 513 OFFCURVE",
"622 513 QCURVE SMOOTH",
"605 513 OFFCURVE",
"597 512 QCURVE SMOOTH",
"570 509 LINE",
"583 571 LINE SMOOTH",
"587 592 OFFCURVE",
"587 608 QCURVE SMOOTH",
"587 635 OFFCURVE",
"577 645 QCURVE SMOOTH",
"555 666 OFFCURVE",
"523 676 QCURVE",
"512 679 OFFCURVE",
"497 655 OFFCURVE",
"493 630 QCURVE SMOOTH",
"490 610 OFFCURVE",
"481 556 OFFCURVE",
"478 542 QCURVE SMOOTH",
"470 501 LINE",
"360 493 LINE",
"374 535 LINE",
"379 554 OFFCURVE",
"402 631 OFFCURVE",
"410 661 QCURVE",
"415 676 OFFCURVE",
"415 686 QCURVE SMOOTH",
"415 701 OFFCURVE",
"393 719 OFFCURVE",
"369 724 QCURVE",
"364 726 OFFCURVE",
"353 726 QCURVE SMOOTH",
"324 725 LINE",
"308 658 LINE SMOOTH",
"271 506 OFFCURVE",
"266 485 QCURVE",
"200 479 LINE SMOOTH",
"157 474 OFFCURVE",
"101 461 QCURVE SMOOTH",
"89 458 OFFCURVE",
"66 446 OFFCURVE",
"67 441 QCURVE",
"68 433 OFFCURVE",
"85 416 OFFCURVE",
"95 411 QCURVE",
"124 399 OFFCURVE",
"159 399 QCURVE SMOOTH",
"170 399 OFFCURVE",
"196 402 QCURVE SMOOTH",
"223 406 LINE SMOOTH",
"230 407 OFFCURVE",
"244 408 OFFCURVE",
"249 409 QCURVE",
"245 387 LINE SMOOTH",
"238 350 OFFCURVE",
"228 319 QCURVE",
"228 318 LINE",
"117 297 LINE",
"101 295 OFFCURVE",
"84 288 QCURVE",
"60 276 OFFCURVE",
"60 262 QCURVE SMOOTH",
"60 249 OFFCURVE",
"83 235 QCURVE",
"122 215 OFFCURVE",
"156 215 QCURVE SMOOTH",
"168 215 OFFCURVE",
"182 218 QCURVE",
"187 220 OFFCURVE",
"201 222 QCURVE",
"181 153 OFFCURVE",
"172 119 QCURVE SMOOTH",
"165 93 OFFCURVE",
"162 55 QCURVE SMOOTH",
"160 34 OFFCURVE",
"159 26 QCURVE",
"179 14 OFFCURVE",
"201 4 OFFCURVE",
"209 4 QCURVE SMOOTH",
"220 4 OFFCURVE",
"233 24 OFFCURVE",
"241 50 QCURVE SMOOTH",
"258 107 OFFCURVE",
"291 223 QCURVE",
"293 238 LINE",
"341 246 LINE",
"423 260 LINE",
"389 92 LINE",
"385 55 LINE SMOOTH",
"383 32 OFFCURVE",
"383 27 QCURVE SMOOTH",
"383 0 OFFCURVE",
"395 0 QCURVE SMOOTH",
"401 0 OFFCURVE",
"416 11 QCURVE",
"439 26 OFFCURVE",
"469 92 OFFCURVE",
"481 141 QCURVE SMOOTH",
"504 230 OFFCURVE",
"515 275 QCURVE",
"590 288 LINE SMOOTH",
"614 292 OFFCURVE",
"666 309 OFFCURVE",
"672 310 QCURVE",
"679 313 OFFCURVE",
"691 325 OFFCURVE",
"690 329 QCURVE SMOOTH"
);
},
{
closed = 1;
nodes = (
"441 344 LINE",
"406 343 LINE",
"318 332 LINE",
"323 350 LINE SMOOTH",
"334 392 OFFCURVE",
"341 422 QCURVE",
"458 437 LINE",
"458 433 OFFCURVE",
"456 429 QCURVE"
);
}
);
userData = {
assembly = "NPUSHB[ ]	/* 25 values pushed */\012128 100 85 64 53 5 3 5 118 1 7 6 132 36 19 3 2 7 30 15 2 0 2 4 76 \012MPPEM[ ]	/* MeasurePixelPerEm */\012PUSHB[ ]	/* 1 value pushed */\01221 \012LT[ ]	/* LessThan */\012IF[ ]	/* If */\012NPUSHB[ ]	/* 48 values pushed */\0120 5 4 3 4 5 3 128 0 3 6 4 3 6 126 0 6 7 4 6 7 126 0 7 2 4 7 2 126 0 2 0 4 2 0 126 0 4 4 36 77 1 1 0 0 40 0 78 \012ELSE[ ]	/* Else */\012MPPEM[ ]	/* MeasurePixelPerEm */\012PUSHB[ ]	/* 1 value pushed */\01244 \012LT[ ]	/* LessThan */\012IF[ ]	/* If */\012NPUSHB[ ]	/* 37 values pushed */\0120 4 5 4 133 0 5 3 5 133 0 3 6 3 133 0 6 7 6 133 0 7 2 7 133 0 2 0 2 133 1 1 0 0 40 0 78 \012ELSE[ ]	/* Else */\012NPUSHB[ ]	/* 35 values pushed */\0120 4 5 4 133 0 5 3 5 133 0 3 6 3 133 0 6 7 6 133 0 7 2 7 133 0 2 0 2 133 1 1 0 0 118 \012EIF[ ]	/* EndIf */\012EIF[ ]	/* EndIf */\012NPUSHB[ ]	/* 16 values pushed */\012134 133 121 119 104 102 75 73 60 58 44 28 44 8 8 25 \012CALL[ ]	/* CallFunction */";
};
width = 740;
}
);
note = numbersign;
unicode = 0023;
},
{
glyphname = dollar;
lastChange = "2020-12-07 01:11:22 +0000";
layers = (
{
layerId = "D6A4831D-747C-4592-93C0-305F4CD57904";
paths = (
{
closed = 1;
nodes = (
"431 490 OFFCURVE",
"444 496 OFFCURVE",
"463 508 QCURVE SMOOTH",
"478 518 OFFCURVE",
"478 532 QCURVE SMOOTH",
"478 546 OFFCURVE",
"464 555 QCURVE SMOOTH",
"409 592 OFFCURVE",
"356 592 QCURVE SMOOTH",
"344 592 OFFCURVE",
"335 606 OFFCURVE",
"334 633 QCURVE SMOOTH",
"333 662 OFFCURVE",
"325 705 OFFCURVE",
"317 730 QCURVE SMOOTH",
"305 766 OFFCURVE",
"266 766 QCURVE SMOOTH",
"260 766 OFFCURVE",
"247 764 QCURVE",
"228 760 OFFCURVE",
"215 739 OFFCURVE",
"215 722 QCURVE",
"216 700 LINE SMOOTH",
"217 683 OFFCURVE",
"216 660 OFFCURVE",
"216 653 QCURVE SMOOTH",
"216 632 LINE SMOOTH",
"216 605 OFFCURVE",
"217 590 QCURVE",
"218 553 OFFCURVE",
"183 529 QCURVE SMOOTH",
"137 497 OFFCURVE",
"103 463 QCURVE SMOOTH",
"58 419 OFFCURVE",
"60 373 QCURVE SMOOTH",
"61 349 OFFCURVE",
"87 307 OFFCURVE",
"112 292 QCURVE",
"133 281 OFFCURVE",
"156 272 OFFCURVE",
"169 273 QCURVE SMOOTH",
"185 274 OFFCURVE",
"195 276 QCURVE SMOOTH",
"219 281 OFFCURVE",
"234 257 OFFCURVE",
"234 239 QCURVE SMOOTH",
"234 232 OFFCURVE",
"233 209 OFFCURVE",
"233 201 QCURVE",
"234 196 OFFCURVE",
"234 186 QCURVE SMOOTH",
"234 145 OFFCURVE",
"220 114 OFFCURVE",
"199 114 QCURVE SMOOTH",
"184 114 OFFCURVE",
"142 125 QCURVE",
"137 126 OFFCURVE",
"120 122 OFFCURVE",
"116 121 QCURVE",
"117 119 OFFCURVE",
"119 101 OFFCURVE",
"123 99 QCURVE",
"131 94 OFFCURVE",
"159 78 OFFCURVE",
"187 64 OFFCURVE",
"203 60 QCURVE SMOOTH",
"221 56 OFFCURVE",
"239 40 OFFCURVE",
"239 24 QCURVE",
"242 -10 OFFCURVE",
"243 -28 QCURVE SMOOTH",
"244 -41 OFFCURVE",
"246 -76 OFFCURVE",
"246 -102 QCURVE SMOOTH",
"246 -107 OFFCURVE",
"247 -135 OFFCURVE",
"265 -157 OFFCURVE",
"298 -157 QCURVE SMOOTH",
"339 -157 OFFCURVE",
"339 -99 QCURVE SMOOTH",
"339 -24 LINE SMOOTH",
"340 20 OFFCURVE",
"338 51 QCURVE SMOOTH",
"337 68 LINE",
"337 79 OFFCURVE",
"350 94 OFFCURVE",
"374 114 QCURVE SMOOTH",
"395 132 OFFCURVE",
"426 170 OFFCURVE",
"446 197 QCURVE SMOOTH",
"452 205 OFFCURVE",
"467 225 OFFCURVE",
"477 238 QCURVE",
"495 259 OFFCURVE",
"495 286 QCURVE SMOOTH",
"495 304 OFFCURVE",
"478 335 OFFCURVE",
"464 344 QCURVE SMOOTH",
"449 354 OFFCURVE",
"407 371 OFFCURVE",
"390 375 QCURVE",
"365 377 OFFCURVE",
"329 383 OFFCURVE",
"316 391 OFFCURVE",
"316 401 QCURVE SMOOTH",
"316 414 OFFCURVE",
"328 454 QCURVE",
"332 487 LINE",
"352 486 LINE",
"372 483 OFFCURVE",
"394 483 QCURVE SMOOTH",
"404 483 OFFCURVE",
"408 484 QCURVE SMOOTH"
);
},
{
closed = 1;
nodes = (
"233 350 OFFCURVE",
"209 339 OFFCURVE",
"194 339 QCURVE SMOOTH",
"175 339 OFFCURVE",
"156 370 OFFCURVE",
"158 392 QCURVE",
"156 403 OFFCURVE",
"156 407 QCURVE SMOOTH",
"156 430 OFFCURVE",
"192 460 OFFCURVE",
"224 471 QCURVE",
"228 469 OFFCURVE",
"236 408 OFFCURVE",
"236 382 QCURVE SMOOTH",
"236 369 OFFCURVE",
"234 358 QCURVE"
);
},
{
closed = 1;
nodes = (
"315 221 OFFCURVE",
"315 252 QCURVE SMOOTH",
"315 308 OFFCURVE",
"366 308 QCURVE SMOOTH",
"381 308 OFFCURVE",
"408 300 QCURVE",
"410 263 OFFCURVE",
"374 200 OFFCURVE",
"330 180 QCURVE"
);
}
);
userData = {
assembly = "NPUSHB[ ]	/* 89 values pushed */\012122 120 2 7 0 131 1 4 8 137 1 3 4 43 41 2 2 3 4 76 0 5 6 5 133 0 8 7 4 7 8 4 128 0 3 4 2 4 3 2 128 0 2 2 132 0 6 1 1 0 7 6 0 105 0 7 8 4 7 89 0 7 7 4 97 0 4 7 4 81 134 132 126 124 104 102 96 94 71 70 59 57 35 33 17 17 9 8 24 \012CALL[ ]	/* CallFunction */";
};
width = 545;
}
);
note = dollar;
unicode = 0024;
},
{
glyphname = percent;
lastChange = "2020-12-07 01:11:22 +0000";
layers = (
{
layerId = "D6A4831D-747C-4592-93C0-305F4CD57904";
paths = (
{
closed = 1;
nodes = (
"309 539 LINE",
"334 548 LINE",
"375 561 OFFCURVE",
"392 575 QCURVE SMOOTH",
"436 611 OFFCURVE",
"438 664 QCURVE SMOOTH",
"439 692 OFFCURVE",
"425 734 QCURVE SMOOTH",
"413 771 OFFCURVE",
"343 833 OFFCURVE",
"308 833 QCURVE SMOOTH",
"274 833 LINE SMOOTH",
"248 833 OFFCURVE",
"239 826 QCURVE SMOOTH",
"196 792 OFFCURVE",
"180 754 QCURVE SMOOTH",
"168 726 OFFCURVE",
"169 692 QCURVE SMOOTH",
"171 634 OFFCURVE",
"231 547 OFFCURVE",
"290 547 QCURVE SMOOTH",
"300 547 OFFCURVE",
"306 548 QCURVE"
);
},
{
closed = 1;
nodes = (
"283 607 OFFCURVE",
"276 607 QCURVE SMOOTH",
"263 607 OFFCURVE",
"258 626 QCURVE SMOOTH",
"235 713 OFFCURVE",
"226 778 QCURVE SMOOTH",
"224 792 OFFCURVE",
"257 815 OFFCURVE",
"276 815 QCURVE SMOOTH",
"293 815 OFFCURVE",
"330 789 OFFCURVE",
"355 753 OFFCURVE",
"356 741 QCURVE",
"352 689 OFFCURVE",
"327 631 OFFCURVE",
"294 613 QCURVE SMOOTH"
);
},
{
closed = 1;
nodes = (
"165 145 LINE SMOOTH",
"268 233 OFFCURVE",
"317 282 QCURVE SMOOTH",
"364 329 OFFCURVE",
"490 459 OFFCURVE",
"524 495 QCURVE SMOOTH",
"600 571 OFFCURVE",
"671 648 QCURVE SMOOTH",
"683 661 OFFCURVE",
"683 674 QCURVE SMOOTH",
"683 682 OFFCURVE",
"672 697 OFFCURVE",
"663 700 QCURVE",
"648 708 OFFCURVE",
"624 708 QCURVE SMOOTH",
"614 708 OFFCURVE",
"600 706 QCURVE SMOOTH",
"573 702 OFFCURVE",
"536 674 OFFCURVE",
"514 646 QCURVE SMOOTH",
"500 628 OFFCURVE",
"491 619 QCURVE SMOOTH",
"391 517 OFFCURVE",
"231 340 QCURVE",
"181 290 OFFCURVE",
"89 173 QCURVE SMOOTH",
"67 145 LINE",
"60 135 OFFCURVE",
"60 120 QCURVE SMOOTH",
"60 115 OFFCURVE",
"61 112 QCURVE",
"62 107 OFFCURVE",
"82 98 OFFCURVE",
"88 94 QCURVE",
"97 98 OFFCURVE",
"128 114 OFFCURVE",
"137 121 QCURVE"
);
},
{
closed = 1;
nodes = (
"602 321 LINE SMOOTH",
"586 321 OFFCURVE",
"562 329 OFFCURVE",
"553 343 QCURVE",
"552 346 OFFCURVE",
"544 346 QCURVE SMOOTH",
"537 346 OFFCURVE",
"534 343 QCURVE SMOOTH",
"528 337 OFFCURVE",
"504 321 OFFCURVE",
"483 302 OFFCURVE",
"476 291 QCURVE SMOOTH",
"455 257 OFFCURVE",
"455 219 QCURVE SMOOTH",
"455 170 OFFCURVE",
"515 91 OFFCURVE",
"559 80 QCURVE",
"584 76 OFFCURVE",
"604 76 QCURVE SMOOTH",
"655 76 OFFCURVE",
"724 128 OFFCURVE",
"724 182 QCURVE SMOOTH",
"724 241 OFFCURVE",
"664 321 OFFCURVE",
"617 321 QCURVE SMOOTH"
);
},
{
closed = 1;
nodes = (
"570 177 OFFCURVE",
"554 221 OFFCURVE",
"554 245 QCURVE SMOOTH",
"554 279 OFFCURVE",
"569 302 QCURVE",
"588 288 OFFCURVE",
"608 245 OFFCURVE",
"608 223 QCURVE SMOOTH",
"608 189 OFFCURVE",
"586 164 QCURVE"
);
}
);
userData = {
assembly = "NPUSHB[ ]	/* 15 values pushed */\01225 1 4 2 94 1 6 0 110 105 2 5 6 3 76 \012MPPEM[ ]	/* MeasurePixelPerEm */\012PUSHB[ ]	/* 1 value pushed */\01221 \012LT[ ]	/* LessThan */\012IF[ ]	/* If */\012NPUSHB[ ]	/* 31 values pushed */\0120 1 0 2 4 1 2 105 0 3 7 1 0 6 3 0 105 8 1 6 0 5 6 5 101 0 4 4 36 4 78 \012ELSE[ ]	/* Else */\012NPUSHB[ ]	/* 43 values pushed */\0120 4 2 3 2 4 3 128 0 1 0 2 4 1 2 105 0 3 7 1 0 6 3 0 105 8 1 6 5 5 6 89 8 1 6 6 5 97 0 5 6 5 81 \012EIF[ ]	/* EndIf */\012NPUSHB[ ]	/* 25 values pushed */\01276 76 2 0 76 100 76 98 82 80 61 59 36 35 30 28 12 9 0 22 2 22 9 8 22 \012CALL[ ]	/* CallFunction */";
};
width = 774;
}
);
note = percent;
unicode = 0025;
},
{
glyphname = ampersand;
lastChange = "2020-12-07 01:11:18 +0000";
layers = (
{
layerId = "D6A4831D-747C-4592-93C0-305F4CD57904";
paths = (
{
closed = 1;
nodes = (
"316 389 OFFCURVE",
"316 408 QCURVE SMOOTH",
"316 428 OFFCURVE",
"339 449 QCURVE SMOOTH",
"402 508 OFFCURVE",
"418 605 QCURVE SMOOTH",
"420 617 OFFCURVE",
"420 624 QCURVE SMOOTH",
"420 662 OFFCURVE",
"386 746 OFFCURVE",
"360 764 QCURVE SMOOTH",
"331 785 OFFCURVE",
"285 785 QCURVE SMOOTH",
"234 785 OFFCURVE",
"129 731 OFFCURVE",
"60 639 OFFCURVE",
"60 585 QCURVE SMOOTH",
"60 538 OFFCURVE",
"101 462 OFFCURVE",
"138 426 QCURVE SMOOTH",
"155 409 OFFCURVE",
"155 397 QCURVE SMOOTH",
"155 387 OFFCURVE",
"141 368 QCURVE SMOOTH",
"80 288 OFFCURVE",
"80 209 QCURVE SMOOTH",
"80 193 OFFCURVE",
"83 175 QCURVE SMOOTH",
"93 107 OFFCURVE",
"188 22 OFFCURVE",
"249 22 QCURVE SMOOTH",
"286 22 OFFCURVE",
"323 40 QCURVE SMOOTH",
"346 51 OFFCURVE",
"385 87 OFFCURVE",
"412 116 QCURVE SMOOTH",
"432 137 LINE SMOOTH",
"443 149 OFFCURVE",
"455 159 OFFCURVE",
"463 159 QCURVE SMOOTH",
"468 159 OFFCURVE",
"480 154 QCURVE",
"509 139 OFFCURVE",
"562 53 OFFCURVE",
"562 20 QCURVE SMOOTH",
"562 12 OFFCURVE",
"561 9 QCURVE SMOOTH",
"560 6 OFFCURVE",
"560 -1 QCURVE SMOOTH",
"560 -14 OFFCURVE",
"575 -29 OFFCURVE",
"589 -33 QCURVE",
"598 -36 OFFCURVE",
"606 -36 QCURVE SMOOTH",
"626 -36 OFFCURVE",
"651 -2 OFFCURVE",
"651 26 QCURVE SMOOTH",
"651 152 OFFCURVE",
"541 217 QCURVE",
"517 233 OFFCURVE",
"517 250 QCURVE SMOOTH",
"517 260 OFFCURVE",
"524 279 QCURVE SMOOTH",
"544 329 OFFCURVE",
"569 416 QCURVE SMOOTH",
"572 428 OFFCURVE",
"572 440 QCURVE SMOOTH",
"572 477 OFFCURVE",
"533 477 QCURVE SMOOTH",
"494 477 OFFCURVE",
"483 430 QCURVE SMOOTH",
"477 406 OFFCURVE",
"455 352 OFFCURVE",
"452 344 QCURVE SMOOTH",
"449 336 OFFCURVE",
"439 313 OFFCURVE",
"433 297 QCURVE",
"370 347 OFFCURVE",
"339 370 QCURVE"
);
},
{
closed = 1;
nodes = (
"248 482 OFFCURVE",
"236 482 QCURVE SMOOTH",
"225 482 OFFCURVE",
"211 500 QCURVE SMOOTH",
"178 545 OFFCURVE",
"178 594 QCURVE SMOOTH",
"178 621 OFFCURVE",
"201 673 OFFCURVE",
"222 693 QCURVE SMOOTH",
"247 716 OFFCURVE",
"263 716 QCURVE SMOOTH",
"275 716 OFFCURVE",
"291 694 OFFCURVE",
"297 672 QCURVE SMOOTH",
"300 661 OFFCURVE",
"304 632 QCURVE",
"311 627 LINE",
"293 582 LINE",
"286 567 OFFCURVE",
"269 526 OFFCURVE",
"257 500 QCURVE SMOOTH"
);
},
{
closed = 1;
nodes = (
"360 240 OFFCURVE",
"364 226 OFFCURVE",
"364 219 QCURVE SMOOTH",
"364 212 OFFCURVE",
"362 210 QCURVE",
"323 152 OFFCURVE",
"289 115 QCURVE SMOOTH",
"278 103 OFFCURVE",
"261 103 QCURVE SMOOTH",
"243 103 OFFCURVE",
"212 132 OFFCURVE",
"208 155 QCURVE",
"204 185 OFFCURVE",
"204 200 QCURVE SMOOTH",
"204 268 OFFCURVE",
"244 325 QCURVE",
"285 295 LINE SMOOTH",
"298 285 OFFCURVE",
"334 259 OFFCURVE",
"356 242 QCURVE"
);
}
);
userData = {
assembly = "MPPEM[ ]	/* MeasurePixelPerEm */\012PUSHB[ ]	/* 1 value pushed */\01246 \012LT[ ]	/* LessThan */\012IF[ ]	/* If */\012NPUSHB[ ]	/* 18 values pushed */\01282 70 2 0 5 116 103 1 3 2 0 33 29 2 1 3 3 76 \012ELSE[ ]	/* Else */\012NPUSHB[ ]	/* 18 values pushed */\01282 70 2 6 5 116 103 1 3 2 0 33 29 2 1 3 3 76 \012EIF[ ]	/* EndIf */\012MPPEM[ ]	/* MeasurePixelPerEm */\012PUSHB[ ]	/* 1 value pushed */\01226 \012LT[ ]	/* LessThan */\012IF[ ]	/* If */\012NPUSHB[ ]	/* 40 values pushed */\0126 1 0 5 2 5 0 2 128 0 2 7 5 2 7 126 0 4 0 5 0 4 5 105 0 7 7 3 98 0 3 3 34 77 0 1 1 31 1 78 \012ELSE[ ]	/* Else */\012MPPEM[ ]	/* MeasurePixelPerEm */\012PUSHB[ ]	/* 1 value pushed */\01246 \012LT[ ]	/* LessThan */\012IF[ ]	/* If */\012NPUSHB[ ]	/* 40 values pushed */\0126 1 0 5 2 5 0 2 128 0 2 7 5 2 7 126 0 1 3 1 134 0 4 0 5 0 4 5 105 0 7 7 3 98 0 3 3 34 3 78 \012ELSE[ ]	/* Else */\012NPUSHB[ ]	/* 46 values pushed */\0120 6 5 0 5 6 0 128 0 0 2 5 0 2 126 0 2 7 5 2 7 126 0 1 3 1 134 0 4 0 5 6 4 5 105 0 7 7 3 98 0 3 3 34 3 78 \012EIF[ ]	/* EndIf */\012EIF[ ]	/* EndIf */\012NPUSHB[ ]	/* 15 values pushed */\012111 109 98 96 89 87 66 64 39 45 29 40 8 8 26 \012CALL[ ]	/* CallFunction */";
};
width = 701;
}
);
note = ampersand;
unicode = 0026;
},
{
glyphname = quotesingle;
lastChange = "2020-12-07 01:11:22 +0000";
layers = (
{
layerId = "D6A4831D-747C-4592-93C0-305F4CD57904";
paths = (
{
closed = 1;
nodes = (
"143 691 OFFCURVE",
"176 660 OFFCURVE",
"167 622 CURVE",
"155 577 OFFCURVE",
"143 531 OFFCURVE",
"125 488 CURVE",
"119 473 OFFCURVE",
"96 464 OFFCURVE",
"79 455 CURVE",
"76 454 OFFCURVE",
"59 469 OFFCURVE",
"60 476 CURVE",
"64 537 OFFCURVE",
"69 598 OFFCURVE",
"76 659 CURVE",
"77 669 OFFCURVE",
"92 677 OFFCURVE",
"94 679 CURVE"
);
}
);
userData = {
assembly = "NPUSHB[ ]	/* 12 values pushed */\01214 1 0 73 0 0 0 118 34 1 8 23 \012CALL[ ]	/* CallFunction */";
};
width = 218;
}
);
note = quotesingle;
unicode = 0027;
},
{
glyphname = parenleft;
lastChange = "2020-12-07 01:11:22 +0000";
layers = (
{
layerId = "D6A4831D-747C-4592-93C0-305F4CD57904";
paths = (
{
closed = 1;
nodes = (
"328 -86 LINE",
"295 -71 LINE SMOOTH",
"224 -39 OFFCURVE",
"181 -18 QCURVE SMOOTH",
"134 5 OFFCURVE",
"131 62 QCURVE SMOOTH",
"129 104 OFFCURVE",
"135 130 QCURVE SMOOTH",
"148 188 OFFCURVE",
"190 306 OFFCURVE",
"223 369 QCURVE SMOOTH",
"272 465 OFFCURVE",
"360 535 QCURVE SMOOTH",
"379 550 OFFCURVE",
"379 567 QCURVE SMOOTH",
"379 573 OFFCURVE",
"376 579 QCURVE",
"368 601 OFFCURVE",
"349 627 OFFCURVE",
"331 632 QCURVE",
"280 593 LINE SMOOTH",
"269 585 OFFCURVE",
"262 575 QCURVE",
"101 403 OFFCURVE",
"62 154 QCURVE",
"60 138 OFFCURVE",
"60 131 QCURVE SMOOTH",
"61 100 OFFCURVE",
"75 49 QCURVE SMOOTH",
"86 10 OFFCURVE",
"139 -43 OFFCURVE",
"184 -74 QCURVE SMOOTH",
"256 -124 OFFCURVE",
"328 -124 QCURVE SMOOTH",
"340 -124 OFFCURVE",
"359 -115 OFFCURVE",
"366 -102 QCURVE"
);
}
);
userData = {
assembly = "NPUSHB[ ]	/* 12 values pushed */\01216 1 0 74 0 0 0 118 33 1 8 23 \012CALL[ ]	/* CallFunction */";
};
width = 429;
}
);
note = parenleft;
unicode = 0028;
},
{
glyphname = parenright;
lastChange = "2020-12-07 01:11:22 +0000";
layers = (
{
layerId = "D6A4831D-747C-4592-93C0-305F4CD57904";
paths = (
{
closed = 1;
nodes = (
"78 562 OFFCURVE",
"105 528 QCURVE",
"115 518 OFFCURVE",
"124 506 QCURVE",
"130 499 OFFCURVE",
"167 456 OFFCURVE",
"177 435 QCURVE SMOOTH",
"225 335 OFFCURVE",
"225 236 QCURVE SMOOTH",
"226 115 OFFCURVE",
"155 0 QCURVE SMOOTH",
"115 -65 LINE",
"81 -120 LINE",
"135 -115 OFFCURVE",
"213 -79 OFFCURVE",
"235 -41 QCURVE SMOOTH",
"306 83 OFFCURVE",
"306 194 QCURVE SMOOTH",
"306 207 OFFCURVE",
"304 233 QCURVE",
"301 256 LINE SMOOTH",
"293 321 OFFCURVE",
"272 408 OFFCURVE",
"244 445 QCURVE SMOOTH",
"225 468 OFFCURVE",
"165 544 QCURVE SMOOTH",
"134 583 LINE",
"122 597 OFFCURVE",
"88 609 OFFCURVE",
"60 609 QCURVE",
"63 600 OFFCURVE",
"74 568 OFFCURVE",
"80 559 QCURVE"
);
}
);
userData = {
assembly = "NPUSHB[ ]	/* 12 values pushed */\01219 1 0 73 0 0 0 118 18 1 8 23 \012CALL[ ]	/* CallFunction */";
};
width = 356;
}
);
note = parenright;
unicode = 0029;
},
{
glyphname = asterisk;
lastChange = "2020-12-07 01:11:18 +0000";
layers = (
{
layerId = "D6A4831D-747C-4592-93C0-305F4CD57904";
paths = (
{
closed = 1;
nodes = (
"293 543 OFFCURVE",
"281 543 QCURVE SMOOTH",
"267 543 OFFCURVE",
"257 538 QCURVE SMOOTH",
"247 533 OFFCURVE",
"247 504 QCURVE SMOOTH",
"248 471 OFFCURVE",
"254 409 QCURVE",
"243 405 LINE",
"221 431 LINE",
"197 464 OFFCURVE",
"149 504 OFFCURVE",
"117 511 QCURVE SMOOTH",
"107 513 OFFCURVE",
"80 504 OFFCURVE",
"72 496 QCURVE",
"70 492 OFFCURVE",
"70 487 QCURVE SMOOTH",
"70 478 OFFCURVE",
"76 459 OFFCURVE",
"81 454 QCURVE SMOOTH",
"128 405 OFFCURVE",
"185 358 QCURVE",
"202 345 OFFCURVE",
"202 336 QCURVE SMOOTH",
"202 330 OFFCURVE",
"191 321 OFFCURVE",
"179 314 QCURVE",
"125 287 OFFCURVE",
"77 251 QCURVE SMOOTH",
"60 238 OFFCURVE",
"60 223 QCURVE SMOOTH",
"60 215 OFFCURVE",
"74 199 OFFCURVE",
"86 195 QCURVE SMOOTH",
"102 190 OFFCURVE",
"137 190 QCURVE SMOOTH",
"158 190 LINE SMOOTH",
"160 190 OFFCURVE",
"186 194 QCURVE",
"173 168 LINE",
"170 163 OFFCURVE",
"155 131 OFFCURVE",
"147 120 QCURVE",
"136 103 OFFCURVE",
"136 89 QCURVE SMOOTH",
"136 71 OFFCURVE",
"155 58 QCURVE",
"174 46 OFFCURVE",
"196 46 QCURVE SMOOTH",
"227 46 OFFCURVE",
"241 67 QCURVE SMOOTH",
"266 107 LINE SMOOTH",
"270 113 OFFCURVE",
"281 132 OFFCURVE",
"289 144 QCURVE",
"338 -34 LINE",
"346 -30 OFFCURVE",
"369 -19 OFFCURVE",
"370 -15 QCURVE",
"381 78 OFFCURVE",
"392 195 QCURVE SMOOTH",
"396 232 LINE",
"498 180 LINE",
"503 177 OFFCURVE",
"524 163 OFFCURVE",
"532 163 QCURVE SMOOTH",
"544 163 OFFCURVE",
"553 175 QCURVE",
"539 205 OFFCURVE",
"492 244 OFFCURVE",
"453 267 QCURVE SMOOTH",
"423 285 OFFCURVE",
"409 295 QCURVE",
"440 313 LINE",
"485 338 LINE SMOOTH",
"542 369 OFFCURVE",
"557 378 QCURVE SMOOTH",
"562 381 OFFCURVE",
"570 397 OFFCURVE",
"572 401 QCURVE",
"568 403 OFFCURVE",
"552 412 OFFCURVE",
"546 412 QCURVE",
"533 413 OFFCURVE",
"507 413 QCURVE SMOOTH",
"465 413 LINE",
"473 432 LINE",
"492 473 OFFCURVE",
"501 502 QCURVE",
"503 512 OFFCURVE",
"503 519 QCURVE SMOOTH",
"503 531 OFFCURVE",
"501 550 OFFCURVE",
"500 557 QCURVE",
"495 555 OFFCURVE",
"462 542 OFFCURVE",
"450 534 QCURVE SMOOTH",
"441 528 OFFCURVE",
"424 506 OFFCURVE",
"420 501 QCURVE SMOOTH",
"374 443 LINE",
"357 465 LINE SMOOTH",
"324 509 OFFCURVE",
"297 539 QCURVE"
);
}
);
userData = {
assembly = "NPUSHB[ ]	/* 27 values pushed */\01286 12 2 3 0 4 96 64 41 30 4 3 0 35 1 1 3 48 1 2 1 4 76 47 1 2 73 \012MPPEM[ ]	/* MeasurePixelPerEm */\012PUSHB[ ]	/* 1 value pushed */\01239 \012LT[ ]	/* LessThan */\012IF[ ]	/* If */\012NPUSHB[ ]	/* 30 values pushed */\0120 4 0 4 133 0 3 0 1 0 3 1 128 0 1 2 0 1 2 126 0 2 2 132 0 0 0 33 0 78 \012ELSE[ ]	/* Else */\012NPUSHB[ ]	/* 24 values pushed */\0120 4 0 4 133 0 0 3 0 133 0 3 1 3 133 0 1 2 1 133 0 2 2 118 \012EIF[ ]	/* EndIf */\012NPUSHB[ ]	/* 13 values pushed */\012103 101 68 65 55 53 37 36 19 17 5 8 22 \012CALL[ ]	/* CallFunction */";
};
width = 622;
}
);
note = asterisk;
unicode = 002A;
},
{
glyphname = plus;
lastChange = "2020-12-07 01:11:22 +0000";
layers = (
{
layerId = "D6A4831D-747C-4592-93C0-305F4CD57904";
paths = (
{
closed = 1;
nodes = (
"571 364 LINE",
"529 359 OFFCURVE",
"442 353 QCURVE",
"434 352 OFFCURVE",
"413 358 OFFCURVE",
"408 359 QCURVE",
"409 420 LINE SMOOTH",
"409 440 OFFCURVE",
"408 450 QCURVE SMOOTH",
"402 508 OFFCURVE",
"340 530 QCURVE",
"331 534 OFFCURVE",
"321 534 QCURVE SMOOTH",
"305 534 OFFCURVE",
"285 510 OFFCURVE",
"283 490 QCURVE",
"283 485 OFFCURVE",
"287 468 OFFCURVE",
"287 463 QCURVE SMOOTH",
"288 405 LINE SMOOTH",
"288 379 OFFCURVE",
"286 367 QCURVE",
"284 344 OFFCURVE",
"278 328 OFFCURVE",
"263 321 OFFCURVE",
"240 315 QCURVE SMOOTH",
"189 301 OFFCURVE",
"113 269 OFFCURVE",
"81 242 QCURVE SMOOTH",
"60 224 OFFCURVE",
"60 206 QCURVE SMOOTH",
"60 172 OFFCURVE",
"98 161 QCURVE SMOOTH",
"127 153 OFFCURVE",
"143 153 QCURVE SMOOTH",
"172 153 OFFCURVE",
"196 169 QCURVE SMOOTH",
"221 188 OFFCURVE",
"254 188 QCURVE",
"249 154 LINE",
"243 116 LINE SMOOTH",
"230 34 OFFCURVE",
"226 -4 QCURVE SMOOTH",
"225 -18 OFFCURVE",
"234 -34 OFFCURVE",
"242 -34 QCURVE SMOOTH",
"251 -34 OFFCURVE",
"263 -26 QCURVE SMOOTH",
"304 1 OFFCURVE",
"314 24 QCURVE SMOOTH",
"336 78 OFFCURVE",
"370 191 QCURVE SMOOTH",
"376 212 OFFCURVE",
"399 233 OFFCURVE",
"422 236 QCURVE SMOOTH",
"446 239 OFFCURVE",
"495 246 QCURVE SMOOTH",
"550 255 LINE",
"576 268 OFFCURVE",
"623 322 OFFCURVE",
"623 341 QCURVE SMOOTH",
"623 365 OFFCURVE",
"584 365 QCURVE"
);
}
);
userData = {
assembly = "NPUSHB[ ]	/* 14 values pushed */\01243 1 5 3 56 1 4 5 19 1 0 2 3 76 \012MPPEM[ ]	/* MeasurePixelPerEm */\012PUSHB[ ]	/* 1 value pushed */\01226 \012LT[ ]	/* LessThan */\012IF[ ]	/* If */\012NPUSHB[ ]	/* 37 values pushed */\0120 3 5 3 133 0 1 4 2 4 1 2 128 0 2 0 4 2 0 126 6 1 5 5 33 77 0 4 4 33 77 0 0 0 31 0 78 \012ELSE[ ]	/* Else */\012MPPEM[ ]	/* MeasurePixelPerEm */\012PUSHB[ ]	/* 1 value pushed */\01231 \012LT[ ]	/* LessThan */\012IF[ ]	/* If */\012NPUSHB[ ]	/* 39 values pushed */\0120 3 5 3 133 0 4 5 1 5 4 1 128 0 1 2 5 1 2 126 0 2 0 5 2 0 126 6 1 5 5 33 77 0 0 0 31 0 78 \012ELSE[ ]	/* Else */\012NPUSHB[ ]	/* 38 values pushed */\0120 3 5 3 133 0 4 5 1 5 4 1 128 0 1 2 5 1 2 126 0 2 0 5 2 0 126 0 0 0 132 6 1 5 5 33 5 78 \012EIF[ ]	/* EndIf */\012EIF[ ]	/* EndIf */\012NPUSHB[ ]	/* 16 values pushed */\0120 0 0 62 0 62 60 59 50 48 34 22 47 7 8 25 \012CALL[ ]	/* CallFunction */";
};
width = 673;
}
);
note = plus;
unicode = 002B;
},
{
glyphname = comma;
lastChange = "2020-12-07 01:11:22 +0000";
layers = (
{
layerId = "D6A4831D-747C-4592-93C0-305F4CD57904";
paths = (
{
closed = 1;
nodes = (
"152 130 OFFCURVE",
"134 79 OFFCURVE",
"128 40 OFFCURVE",
"126 34 QCURVE SMOOTH",
"93 -74 LINE",
"78 -146 OFFCURVE",
"60 -182 QCURVE SMOOTH",
"59 -184 OFFCURVE",
"95 -202 OFFCURVE",
"98 -208 QCURVE",
"201 -109 OFFCURVE",
"245 29 QCURVE SMOOTH",
"251 48 OFFCURVE",
"255 58 QCURVE SMOOTH",
"273 100 OFFCURVE",
"280 137 QCURVE SMOOTH",
"283 153 OFFCURVE",
"221 166 OFFCURVE",
"190 163 QCURVE SMOOTH",
"171 161 OFFCURVE",
"168 156 QCURVE SMOOTH"
);
}
);
userData = {
assembly = "PUSHB[ ]	/* 4 values pushed */\01210 2 1 50 \012CALL[ ]	/* CallFunction */";
};
width = 330;
}
);
note = comma;
unicode = 002C;
},
{
glyphname = hyphen;
lastChange = "2020-12-07 01:11:18 +0000";
layers = (
{
layerId = "D6A4831D-747C-4592-93C0-305F4CD57904";
paths = (
{
closed = 1;
nodes = (
"509 301 OFFCURVE",
"418 323 OFFCURVE",
"364 323 QCURVE SMOOTH",
"295 323 OFFCURVE",
"189 314 QCURVE SMOOTH",
"141 311 LINE",
"114 308 OFFCURVE",
"89 297 QCURVE",
"60 283 OFFCURVE",
"60 264 QCURVE SMOOTH",
"60 247 OFFCURVE",
"80 233 QCURVE",
"125 199 OFFCURVE",
"174 199 QCURVE SMOOTH",
"182 199 OFFCURVE",
"196 201 QCURVE",
"228 207 LINE",
"263 215 OFFCURVE",
"284 217 QCURVE SMOOTH",
"324 220 LINE SMOOTH",
"391 227 OFFCURVE",
"439 227 QCURVE SMOOTH",
"502 227 OFFCURVE",
"545 216 QCURVE",
"548 215 OFFCURVE",
"564 218 QCURVE",
"571 229 OFFCURVE",
"571 239 QCURVE SMOOTH",
"571 249 OFFCURVE",
"559 263 OFFCURVE",
"547 272 QCURVE SMOOTH"
);
}
);
userData = {
assembly = "NPUSHB[ ]	/* 31 values pushed */\0120 2 0 1 2 87 0 3 0 0 1 3 0 105 0 2 2 1 97 0 1 2 1 81 33 23 38 39 4 8 26 \012CALL[ ]	/* CallFunction */";
};
width = 621;
}
);
note = hyphen;
unicode = 002D;
},
{
glyphname = period;
lastChange = "2020-12-07 01:11:18 +0000";
layers = (
{
layerId = "D6A4831D-747C-4592-93C0-305F4CD57904";
paths = (
{
closed = 1;
nodes = (
"184 24 OFFCURVE",
"184 28 QCURVE SMOOTH",
"184 46 OFFCURVE",
"165 87 OFFCURVE",
"152 95 QCURVE",
"142 102 OFFCURVE",
"133 102 QCURVE SMOOTH",
"127 102 OFFCURVE",
"114 95 OFFCURVE",
"100 81 OFFCURVE",
"98 79 QCURVE",
"98 79 OFFCURVE",
"89 73 QCURVE SMOOTH",
"75 64 OFFCURVE",
"60 46 OFFCURVE",
"60 34 QCURVE SMOOTH",
"60 9 OFFCURVE",
"103 -33 OFFCURVE",
"126 -34 QCURVE",
"143 -34 OFFCURVE",
"176 -4 OFFCURVE",
"182 16 QCURVE"
);
}
);
userData = {
assembly = "PUSHB[ ]	/* 6 values pushed */\01219 1 0 1 1 76 \012MPPEM[ ]	/* MeasurePixelPerEm */\012PUSHB[ ]	/* 1 value pushed */\01231 \012LT[ ]	/* LessThan */\012IF[ ]	/* If */\012NPUSHB[ ]	/* 11 values pushed */\0120 1 1 0 97 0 0 0 31 0 78 \012ELSE[ ]	/* Else */\012NPUSHB[ ]	/* 16 values pushed */\0120 1 0 0 1 89 0 1 1 0 97 0 0 1 0 81 \012EIF[ ]	/* EndIf */\012PUSHB[ ]	/* 5 values pushed */\01242 33 2 8 24 \012CALL[ ]	/* CallFunction */";
};
width = 234;
}
);
note = period;
unicode = 002E;
},
{
glyphname = slash;
lastChange = "2020-12-07 01:11:22 +0000";
layers = (
{
layerId = "D6A4831D-747C-4592-93C0-305F4CD57904";
paths = (
{
closed = 1;
nodes = (
"184 32 OFFCURVE",
"220 160 OFFCURVE",
"227 185 QCURVE SMOOTH",
"229 192 OFFCURVE",
"233 205 OFFCURVE",
"234 210 QCURVE",
"272 356 LINE SMOOTH",
"297 454 OFFCURVE",
"309 502 QCURVE SMOOTH",
"327 563 OFFCURVE",
"353 651 QCURVE SMOOTH",
"381 746 LINE",
"386 766 OFFCURVE",
"386 777 QCURVE SMOOTH",
"386 799 OFFCURVE",
"357 822 OFFCURVE",
"326 829 QCURVE",
"315 832 OFFCURVE",
"304 832 QCURVE SMOOTH",
"295 832 OFFCURVE",
"277 830 OFFCURVE",
"266 830 QCURVE",
"260 808 OFFCURVE",
"244 738 QCURVE SMOOTH",
"197 534 LINE SMOOTH",
"183 474 OFFCURVE",
"177 444 QCURVE SMOOTH",
"167 388 OFFCURVE",
"153 337 QCURVE SMOOTH",
"120 221 LINE SMOOTH",
"95 138 OFFCURVE",
"78 71 QCURVE SMOOTH",
"72 44 OFFCURVE",
"65 -10 QCURVE SMOOTH",
"60 -50 LINE",
"107 -80 OFFCURVE",
"127 -80 QCURVE SMOOTH",
"141 -80 OFFCURVE",
"159 -53 OFFCURVE",
"169 -19 QCURVE SMOOTH"
);
}
);
userData = {
assembly = "PUSHB[ ]	/* 6 values pushed */\0124 1 0 1 1 76 \012MPPEM[ ]	/* MeasurePixelPerEm */\012PUSHB[ ]	/* 1 value pushed */\01231 \012LT[ ]	/* LessThan */\012IF[ ]	/* If */\012NPUSHB[ ]	/* 12 values pushed */\0122 1 1 0 1 133 0 0 0 31 0 78 \012ELSE[ ]	/* Else */\012NPUSHB[ ]	/* 10 values pushed */\0122 1 1 0 1 133 0 0 0 118 \012EIF[ ]	/* EndIf */\012PUSHB[ ]	/* 6 values pushed */\01233 30 33 3 8 25 \012CALL[ ]	/* CallFunction */";
};
width = 436;
}
);
note = slash;
unicode = 002F;
},
{
glyphname = zero;
lastChange = "2020-12-07 01:11:18 +0000";
layers = (
{
layerId = "D6A4831D-747C-4592-93C0-305F4CD57904";
paths = (
{
closed = 1;
nodes = (
"60 323 OFFCURVE",
"60 228 QCURVE SMOOTH",
"60 180 OFFCURVE",
"74 120 QCURVE SMOOTH",
"86 70 OFFCURVE",
"150 -6 OFFCURVE",
"195 -23 QCURVE SMOOTH",
"227 -35 OFFCURVE",
"257 -35 QCURVE SMOOTH",
"314 -35 OFFCURVE",
"363 2 QCURVE SMOOTH",
"417 43 OFFCURVE",
"460 131 QCURVE SMOOTH",
"485 182 OFFCURVE",
"514 266 OFFCURVE",
"514 309 QCURVE",
"513 367 OFFCURVE",
"483 420 QCURVE SMOOTH",
"475 434 OFFCURVE",
"449 469 QCURVE",
"439 481 OFFCURVE",
"429 496 QCURVE",
"419 508 LINE",
"434 511 LINE",
"444 512 LINE",
"453 514 LINE",
"465 519 LINE SMOOTH",
"481 526 OFFCURVE",
"483 528 QCURVE",
"485 536 OFFCURVE",
"477 560 OFFCURVE",
"473 563 QCURVE",
"448 576 OFFCURVE",
"417 590 OFFCURVE",
"402 590 QCURVE SMOOTH",
"399 590 LINE",
"308 586 OFFCURVE",
"238 528 QCURVE SMOOTH",
"204 500 OFFCURVE",
"135 424 OFFCURVE",
"115 395 QCURVE"
);
},
{
closed = 1;
nodes = (
"306 454 OFFCURVE",
"344 479 QCURVE",
"368 497 OFFCURVE",
"382 497 QCURVE SMOOTH",
"388 497 OFFCURVE",
"392 495 QCURVE",
"409 485 OFFCURVE",
"411 441 QCURVE",
"412 437 OFFCURVE",
"412 428 QCURVE",
"413 422 LINE",
"413 421 LINE",
"404 203 OFFCURVE",
"283 82 QCURVE SMOOTH",
"271 70 OFFCURVE",
"236 53 OFFCURVE",
"220 53 QCURVE SMOOTH",
"213 53 OFFCURVE",
"207 55 QCURVE SMOOTH",
"192 60 OFFCURVE",
"168 106 OFFCURVE",
"165 127 QCURVE SMOOTH",
"161 153 OFFCURVE",
"162 176 QCURVE SMOOTH",
"166 314 OFFCURVE",
"261 409 QCURVE SMOOTH"
);
}
);
userData = {
assembly = "PUSHB[ ]	/* 6 values pushed */\01217 1 3 0 1 76 \012MPPEM[ ]	/* MeasurePixelPerEm */\012PUSHB[ ]	/* 1 value pushed */\01229 \012LT[ ]	/* LessThan */\012IF[ ]	/* If */\012NPUSHB[ ]	/* 19 values pushed */\0120 0 0 3 2 0 3 105 0 2 2 1 97 0 1 1 31 1 78 \012ELSE[ ]	/* Else */\012NPUSHB[ ]	/* 24 values pushed */\0120 0 0 3 2 0 3 105 0 2 1 1 2 89 0 2 2 1 97 0 1 2 1 81 \012EIF[ ]	/* EndIf */\012NPUSHB[ ]	/* 10 values pushed */\01263 62 50 49 32 30 51 4 8 23 \012CALL[ ]	/* CallFunction */";
};
width = 564;
}
);
note = zero;
unicode = 0030;
},
{
glyphname = one;
lastChange = "2020-12-07 04:09:31 +0000";
layers = (
{
layerId = "D6A4831D-747C-4592-93C0-305F4CD57904";
paths = (
{
closed = 1;
nodes = (
"281 502 OFFCURVE",
"283 492 OFFCURVE",
"283 488 QCURVE SMOOTH",
"283 436 OFFCURVE",
"281 333 QCURVE SMOOTH",
"277 182 OFFCURVE",
"279 106 QCURVE SMOOTH",
"280 58 OFFCURVE",
"283 34 QCURVE SMOOTH",
"286 8 OFFCURVE",
"322 -4 OFFCURVE",
"353 -3 QCURVE",
"356 -2 OFFCURVE",
"366 29 OFFCURVE",
"366 40 QCURVE SMOOTH",
"366 87 LINE",
"366 181 LINE SMOOTH",
"366 235 OFFCURVE",
"367 262 QCURVE SMOOTH",
"373 420 LINE SMOOTH",
"374 446 OFFCURVE",
"379 524 OFFCURVE",
"379 578 QCURVE SMOOTH",
"379 600 LINE",
"379 617 OFFCURVE",
"369 637 OFFCURVE",
"353 642 QCURVE",
"348 644 OFFCURVE",
"310 656 OFFCURVE",
"293 656 QCURVE SMOOTH",
"266 656 OFFCURVE",
"247 632 QCURVE SMOOTH",
"149 502 LINE",
"77 408 LINE SMOOTH",
"57 387 OFFCURVE",
"61 371 QCURVE SMOOTH",
"73 316 OFFCURVE",
"124 329 OFFCURVE",
"140 350 QCURVE",
"154 372 OFFCURVE",
"168 393 QCURVE SMOOTH",
"195 433 OFFCURVE",
"267 512 QCURVE",
"271 510 OFFCURVE",
"278 508 OFFCURVE",
"281 507 QCURVE"
);
}
);
userData = {
assembly = "PUSHB[ ]	/* 6 values pushed */\01245 1 0 1 1 76 \012MPPEM[ ]	/* MeasurePixelPerEm */\012PUSHB[ ]	/* 1 value pushed */\01221 \012LT[ ]	/* LessThan */\012IF[ ]	/* If */\012NPUSHB[ ]	/* 19 values pushed */\0120 0 1 2 1 0 2 128 0 1 1 36 77 0 2 2 40 2 78 \012ELSE[ ]	/* Else */\012MPPEM[ ]	/* MeasurePixelPerEm */\012PUSHB[ ]	/* 1 value pushed */\01236 \012LT[ ]	/* LessThan */\012IF[ ]	/* If */\012NPUSHB[ ]	/* 16 values pushed */\0120 1 0 1 133 0 0 2 0 133 0 2 2 40 2 78 \012ELSE[ ]	/* Else */\012NPUSHB[ ]	/* 14 values pushed */\0120 1 0 1 133 0 0 2 0 133 0 2 2 118 \012EIF[ ]	/* EndIf */\012EIF[ ]	/* EndIf */\012PUSHB[ ]	/* 7 values pushed */\01237 35 40 39 3 8 24 \012CALL[ ]	/* CallFunction */";
};
width = 469;
}
);
note = one;
unicode = 0031;
},
{
glyphname = two;
lastChange = "2020-12-07 01:11:22 +0000";
layers = (
{
layerId = "D6A4831D-747C-4592-93C0-305F4CD57904";
paths = (
{
closed = 1;
nodes = (
"213 -31 OFFCURVE",
"294 -31 QCURVE SMOOTH",
"350 -31 OFFCURVE",
"404 -13 QCURVE SMOOTH",
"454 4 OFFCURVE",
"574 62 OFFCURVE",
"574 89 QCURVE SMOOTH",
"574 91 OFFCURVE",
"572 98 QCURVE",
"565 112 OFFCURVE",
"544 112 QCURVE SMOOTH",
"519 112 OFFCURVE",
"455 85 OFFCURVE",
"448 82 QCURVE",
"387 61 OFFCURVE",
"282 43 OFFCURVE",
"216 39 QCURVE",
"304 202 OFFCURVE",
"387 369 QCURVE SMOOTH",
"391 377 OFFCURVE",
"414 421 QCURVE SMOOTH",
"426 444 OFFCURVE",
"426 466 QCURVE SMOOTH",
"426 495 OFFCURVE",
"393 546 OFFCURVE",
"333 578 OFFCURVE",
"295 578 QCURVE SMOOTH",
"264 578 OFFCURVE",
"227 565 QCURVE SMOOTH",
"201 556 OFFCURVE",
"120 504 OFFCURVE",
"60 437 OFFCURVE",
"60 406 QCURVE SMOOTH",
"60 377 OFFCURVE",
"100 352 QCURVE SMOOTH",
"108 347 OFFCURVE",
"115 347 QCURVE SMOOTH",
"132 347 OFFCURVE",
"171 381 OFFCURVE",
"198 411 QCURVE SMOOTH",
"213 428 LINE",
"229 450 LINE SMOOTH",
"253 484 OFFCURVE",
"263 493 QCURVE",
"274 501 OFFCURVE",
"285 501 QCURVE SMOOTH",
"299 501 OFFCURVE",
"315 469 OFFCURVE",
"313 450 QCURVE",
"309 433 OFFCURVE",
"278 368 OFFCURVE",
"224 265 OFFCURVE",
"217 253 QCURVE SMOOTH",
"163 161 OFFCURVE",
"111 42 OFFCURVE",
"111 22 QCURVE SMOOTH",
"111 16 OFFCURVE",
"114 14 QCURVE"
);
}
);
userData = {
assembly = "PUSHB[ ]	/* 6 values pushed */\0121 1 5 3 1 76 \012MPPEM[ ]	/* MeasurePixelPerEm */\012PUSHB[ ]	/* 1 value pushed */\01239 \012LT[ ]	/* LessThan */\012IF[ ]	/* If */\012NPUSHB[ ]	/* 34 values pushed */\0120 1 0 4 0 1 4 128 0 4 3 0 4 3 126 0 2 0 0 1 2 0 105 0 3 3 5 97 0 5 5 31 5 78 \012ELSE[ ]	/* Else */\012NPUSHB[ ]	/* 39 values pushed */\0120 1 0 4 0 1 4 128 0 4 3 0 4 3 126 0 2 0 0 1 2 0 105 0 3 5 5 3 89 0 3 3 5 97 0 5 3 5 81 \012EIF[ ]	/* EndIf */\012NPUSHB[ ]	/* 9 values pushed */\01239 36 25 41 23 42 6 8 28 \012CALL[ ]	/* CallFunction */";
};
width = 624;
}
);
note = two;
unicode = 0032;
},
{
glyphname = three;
lastChange = "2020-12-07 01:11:22 +0000";
layers = (
{
layerId = "D6A4831D-747C-4592-93C0-305F4CD57904";
paths = (
{
closed = 1;
nodes = (
"371 72 OFFCURVE",
"407 199 OFFCURVE",
"407 274 QCURVE SMOOTH",
"407 326 OFFCURVE",
"377 385 OFFCURVE",
"309 415 OFFCURVE",
"248 423 QCURVE",
"253 431 OFFCURVE",
"274 458 QCURVE",
"288 478 OFFCURVE",
"289 479 QCURVE",
"306 508 OFFCURVE",
"306 531 QCURVE SMOOTH",
"306 563 OFFCURVE",
"273 591 QCURVE",
"243 614 OFFCURVE",
"201 614 QCURVE SMOOTH",
"150 614 OFFCURVE",
"104 579 QCURVE",
"96 576 OFFCURVE",
"72 562 OFFCURVE",
"60 551 OFFCURVE",
"60 544 QCURVE SMOOTH",
"60 539 OFFCURVE",
"62 531 QCURVE",
"73 523 OFFCURVE",
"91 523 QCURVE SMOOTH",
"108 523 OFFCURVE",
"139 532 QCURVE",
"165 538 OFFCURVE",
"172 538 QCURVE SMOOTH",
"193 538 OFFCURVE",
"193 518 QCURVE SMOOTH",
"193 512 OFFCURVE",
"191 501 QCURVE",
"186 479 OFFCURVE",
"180 471 QCURVE",
"134 399 LINE",
"87 326 LINE SMOOTH",
"76 309 OFFCURVE",
"76 300 QCURVE SMOOTH",
"76 296 OFFCURVE",
"77 296 QCURVE",
"92 285 OFFCURVE",
"110 275 OFFCURVE",
"121 275 QCURVE SMOOTH",
"133 275 OFFCURVE",
"145 283 QCURVE",
"233 347 LINE",
"253 360 OFFCURVE",
"263 360 QCURVE SMOOTH",
"287 360 OFFCURVE",
"293 314 QCURVE",
"295 289 OFFCURVE",
"295 276 QCURVE SMOOTH",
"295 189 OFFCURVE",
"254 91 QCURVE SMOOTH",
"236 46 OFFCURVE",
"180 -10 OFFCURVE",
"136 -15 QCURVE",
"131 -16 OFFCURVE",
"111 -25 OFFCURVE",
"103 -28 QCURVE",
"170 -61 OFFCURVE",
"211 -61 QCURVE SMOOTH",
"243 -61 OFFCURVE",
"299 -24 OFFCURVE",
"330 18 QCURVE SMOOTH"
);
}
);
userData = {
assembly = "NPUSHB[ ]	/* 10 values pushed */\01260 1 1 4 4 1 0 2 2 76 \012MPPEM[ ]	/* MeasurePixelPerEm */\012PUSHB[ ]	/* 1 value pushed */\01221 \012LT[ ]	/* LessThan */\012IF[ ]	/* If */\012NPUSHB[ ]	/* 37 values pushed */\0120 4 3 1 3 4 1 128 0 1 2 3 1 2 126 0 2 0 3 2 0 126 0 0 0 132 0 3 3 5 97 0 5 5 32 3 78 \012ELSE[ ]	/* Else */\012NPUSHB[ ]	/* 42 values pushed */\0120 4 3 1 3 4 1 128 0 1 2 3 1 2 126 0 2 0 3 2 0 126 0 0 0 132 0 5 3 3 5 89 0 5 5 3 97 0 3 5 3 81 \012EIF[ ]	/* EndIf */\012NPUSHB[ ]	/* 9 values pushed */\01240 35 29 35 44 33 6 8 28 \012CALL[ ]	/* CallFunction */";
};
width = 457;
}
);
note = three;
unicode = 0033;
},
{
glyphname = four;
lastChange = "2020-12-07 01:11:22 +0000";
layers = (
{
layerId = "D6A4831D-747C-4592-93C0-305F4CD57904";
paths = (
{
closed = 1;
nodes = (
"440 402 OFFCURVE",
"445 421 QCURVE",
"456 476 OFFCURVE",
"459 504 QCURVE",
"462 532 OFFCURVE",
"462 559 QCURVE",
"462 590 OFFCURVE",
"458 613 QCURVE",
"455 632 OFFCURVE",
"399 647 OFFCURVE",
"365 647 QCURVE",
"335 647 OFFCURVE",
"325 644 QCURVE",
"318 641 OFFCURVE",
"285 632 OFFCURVE",
"278 623 QCURVE",
"154 479 OFFCURVE",
"76 306 QCURVE",
"57 267 OFFCURVE",
"60 240 QCURVE",
"61 230 OFFCURVE",
"61 226 QCURVE SMOOTH",
"66 201 OFFCURVE",
"122 170 OFFCURVE",
"157 170 QCURVE",
"178 170 OFFCURVE",
"191 174 QCURVE",
"243 191 OFFCURVE",
"279 198 QCURVE SMOOTH",
"312 207 LINE SMOOTH",
"312 199 OFFCURVE",
"313 180 OFFCURVE",
"312 168 QCURVE",
"310 132 LINE",
"309 106 OFFCURVE",
"306 54 QCURVE SMOOTH",
"307 -19 OFFCURVE",
"309 -96 QCURVE",
"310 -133 OFFCURVE",
"339 -126 QCURVE SMOOTH",
"350 -123 OFFCURVE",
"368 -109 OFFCURVE",
"371 -102 QCURVE SMOOTH",
"383 -76 OFFCURVE",
"386 -31 QCURVE",
"402 183 LINE SMOOTH",
"402 191 OFFCURVE",
"404 235 OFFCURVE",
"426 262 OFFCURVE",
"474 274 QCURVE",
"487 277 OFFCURVE",
"518 294 QCURVE",
"540 305 OFFCURVE",
"542 308 QCURVE SMOOTH",
"525 346 OFFCURVE",
"492 346 QCURVE",
"482 346 OFFCURVE",
"456 339 OFFCURVE",
"451 338 QCURVE SMOOTH",
"440 333 OFFCURVE",
"426 331 QCURVE SMOOTH",
"426 340 OFFCURVE",
"431 361 OFFCURVE",
"432 365 QCURVE SMOOTH"
);
},
{
closed = 1;
nodes = (
"353 520 LINE",
"349 486 OFFCURVE",
"348 467 QCURVE SMOOTH",
"340 395 OFFCURVE",
"327 312 QCURVE",
"326 305 OFFCURVE",
"317 287 OFFCURVE",
"311 286 QCURVE SMOOTH",
"244 266 OFFCURVE",
"179 245 QCURVE",
"176 244 OFFCURVE",
"163 246 OFFCURVE",
"159 247 QCURVE SMOOTH",
"210 410 OFFCURVE",
"355 546 QCURVE SMOOTH"
);
}
);
userData = {
assembly = "NPUSHB[ ]	/* 17 values pushed */\01278 75 2 0 3 65 9 2 1 0 2 76 30 18 2 2 73 \012MPPEM[ ]	/* MeasurePixelPerEm */\012PUSHB[ ]	/* 1 value pushed */\01221 \012LT[ ]	/* LessThan */\012IF[ ]	/* If */\012NPUSHB[ ]	/* 23 values pushed */\0120 1 0 2 0 1 2 128 0 2 2 132 0 3 3 32 77 0 0 0 33 0 78 \012ELSE[ ]	/* Else */\012MPPEM[ ]	/* MeasurePixelPerEm */\012PUSHB[ ]	/* 1 value pushed */\01244 \012LT[ ]	/* LessThan */\012IF[ ]	/* If */\012NPUSHB[ ]	/* 25 values pushed */\0120 0 3 1 3 0 1 128 0 1 2 3 1 2 126 0 2 2 132 0 3 3 32 3 78 \012ELSE[ ]	/* Else */\012NPUSHB[ ]	/* 19 values pushed */\0120 3 0 3 133 0 0 1 0 133 0 1 2 1 133 0 2 2 118 \012EIF[ ]	/* EndIf */\012EIF[ ]	/* EndIf */\012NPUSHB[ ]	/* 10 values pushed */\01253 51 39 37 34 32 38 4 8 23 \012CALL[ ]	/* CallFunction */";
};
width = 592;
}
);
note = four;
unicode = 0034;
},
{
glyphname = five;
lastChange = "2020-12-07 02:13:20 +0000";
layers = (
{
layerId = "D6A4831D-747C-4592-93C0-305F4CD57904";
paths = (
{
closed = 1;
nodes = (
"682 579 OFFCURVE",
"690 602 OFFCURVE",
"690 614 QCURVE SMOOTH",
"690 625 OFFCURVE",
"684 641 OFFCURVE",
"679 642 QCURVE",
"637 646 LINE SMOOTH",
"620 648 OFFCURVE",
"615 648 QCURVE SMOOTH",
"606 648 OFFCURVE",
"575 645 QCURVE SMOOTH",
"553 643 OFFCURVE",
"474 631 QCURVE SMOOTH",
"386 616 OFFCURVE",
"340 614 QCURVE SMOOTH",
"305 613 OFFCURVE",
"258 587 OFFCURVE",
"238 557 QCURVE SMOOTH",
"186 479 OFFCURVE",
"140 434 QCURVE SMOOTH",
"126 420 OFFCURVE",
"113 403 OFFCURVE",
"114 397 QCURVE",
"115 389 OFFCURVE",
"147 372 QCURVE SMOOTH",
"175 356 OFFCURVE",
"192 354 QCURVE SMOOTH",
"242 347 OFFCURVE",
"300 286 OFFCURVE",
"320 238 QCURVE",
"332 215 OFFCURVE",
"332 187 QCURVE SMOOTH",
"332 149 OFFCURVE",
"305 117 QCURVE",
"287 91 OFFCURVE",
"239 61 OFFCURVE",
"205 61 QCURVE SMOOTH",
"188 61 OFFCURVE",
"179 63 QCURVE SMOOTH",
"161 67 OFFCURVE",
"141 67 QCURVE SMOOTH",
"118 67 OFFCURVE",
"93 63 QCURVE",
"82 63 OFFCURVE",
"61 61 QCURVE",
"60 54 LINE",
"140 -13 OFFCURVE",
"245 -13 QCURVE SMOOTH",
"266 -13 OFFCURVE",
"289 -10 QCURVE SMOOTH",
"333 -5 OFFCURVE",
"392 57 OFFCURVE",
"417 108 QCURVE SMOOTH",
"442 160 OFFCURVE",
"442 204 QCURVE SMOOTH",
"442 273 OFFCURVE",
"378 324 QCURVE SMOOTH",
"365 335 OFFCURVE",
"353 342 QCURVE",
"332 356 OFFCURVE",
"302 383 QCURVE",
"279 401 OFFCURVE",
"277 402 QCURVE",
"269 407 OFFCURVE",
"315 468 OFFCURVE",
"377 529 OFFCURVE",
"388 531 QCURVE SMOOTH",
"462 546 OFFCURVE",
"581 561 QCURVE SMOOTH",
"638 568 LINE",
"659 572 OFFCURVE",
"674 576 QCURVE"
);
}
);
userData = {
assembly = "NPUSHB[ ]	/* 10 values pushed */\01248 1 1 4 25 1 0 1 2 76 \012MPPEM[ ]	/* MeasurePixelPerEm */\012PUSHB[ ]	/* 1 value pushed */\01221 \012LT[ ]	/* LessThan */\012IF[ ]	/* If */\012NPUSHB[ ]	/* 23 values pushed */\0120 5 5 32 77 0 4 4 32 77 3 2 2 1 1 0 97 0 0 0 31 0 78 \012ELSE[ ]	/* Else */\012MPPEM[ ]	/* MeasurePixelPerEm */\012PUSHB[ ]	/* 1 value pushed */\01241 \012LT[ ]	/* LessThan */\012IF[ ]	/* If */\012NPUSHB[ ]	/* 26 values pushed */\0120 4 5 1 5 4 1 128 0 5 5 32 77 3 2 2 1 1 0 97 0 0 0 31 0 78 \012ELSE[ ]	/* Else */\012NPUSHB[ ]	/* 23 values pushed */\0120 5 4 5 133 0 4 1 4 133 3 2 2 1 1 0 97 0 0 0 31 0 78 \012EIF[ ]	/* EndIf */\012EIF[ ]	/* EndIf */\012NPUSHB[ ]	/* 15 values pushed */\01262 61 57 55 35 33 31 29 28 27 24 22 6 8 22 \012CALL[ ]	/* CallFunction */";
};
width = 700;
}
);
note = five;
unicode = 0035;
},
{
glyphname = six;
lastChange = "2020-12-07 01:11:22 +0000";
layers = (
{
layerId = "D6A4831D-747C-4592-93C0-305F4CD57904";
paths = (
{
closed = 1;
nodes = (
"320 -6 OFFCURVE",
"338 -6 QCURVE SMOOTH",
"403 -7 OFFCURVE",
"448 29 QCURVE SMOOTH",
"468 45 OFFCURVE",
"497 102 OFFCURVE",
"497 128 QCURVE SMOOTH",
"497 157 OFFCURVE",
"456 209 OFFCURVE",
"393 240 OFFCURVE",
"361 240 QCURVE SMOOTH",
"327 240 OFFCURVE",
"303 222 QCURVE SMOOTH",
"283 207 OFFCURVE",
"253 180 OFFCURVE",
"235 156 QCURVE SMOOTH",
"229 148 OFFCURVE",
"216 127 OFFCURVE",
"212 127 QCURVE SMOOTH",
"206 127 OFFCURVE",
"195 151 QCURVE SMOOTH",
"172 200 OFFCURVE",
"171 261 QCURVE SMOOTH",
"170 306 OFFCURVE",
"201 390 OFFCURVE",
"227 438 QCURVE",
"231 444 OFFCURVE",
"236 454 OFFCURVE",
"238 458 QCURVE SMOOTH",
"257 493 OFFCURVE",
"287 534 OFFCURVE",
"335 563 OFFCURVE",
"369 563 QCURVE SMOOTH",
"374 563 OFFCURVE",
"389 579 OFFCURVE",
"388 583 QCURVE SMOOTH",
"384 598 OFFCURVE",
"374 616 OFFCURVE",
"367 622 QCURVE",
"347 637 OFFCURVE",
"309 637 QCURVE SMOOTH",
"284 637 OFFCURVE",
"237 622 OFFCURVE",
"222 606 QCURVE SMOOTH",
"72 446 OFFCURVE",
"61 255 QCURVE",
"60 248 OFFCURVE",
"60 237 QCURVE SMOOTH",
"60 181 OFFCURVE",
"140 71 OFFCURVE",
"259 1 OFFCURVE",
"311 -5 QCURVE SMOOTH"
);
},
{
closed = 1;
nodes = (
"354 169 OFFCURVE",
"362 169 QCURVE SMOOTH",
"381 169 OFFCURVE",
"396 145 QCURVE SMOOTH",
"402 135 OFFCURVE",
"402 126 QCURVE SMOOTH",
"402 105 OFFCURVE",
"350 73 OFFCURVE",
"320 73 QCURVE SMOOTH",
"296 73 OFFCURVE",
"283 82 QCURVE",
"283 104 OFFCURVE",
"300 134 OFFCURVE",
"322 151 OFFCURVE",
"345 164 QCURVE SMOOTH"
);
}
);
userData = {
assembly = "NPUSHB[ ]	/* 10 values pushed */\01215 1 1 0 55 1 5 2 2 76 \012MPPEM[ ]	/* MeasurePixelPerEm */\012PUSHB[ ]	/* 1 value pushed */\01244 \012LT[ ]	/* LessThan */\012IF[ ]	/* If */\012NPUSHB[ ]	/* 37 values pushed */\0120 2 6 5 6 2 5 128 0 3 0 6 2 3 6 105 0 1 1 0 97 0 0 0 32 77 0 5 5 4 97 0 4 4 31 4 78 \012ELSE[ ]	/* Else */\012NPUSHB[ ]	/* 34 values pushed */\0120 2 6 5 6 2 5 128 0 3 0 6 2 3 6 105 0 5 0 4 5 4 101 0 1 1 0 97 0 0 0 32 1 78 \012EIF[ ]	/* EndIf */\012NPUSHB[ ]	/* 10 values pushed */\01221 38 39 38 44 38 41 7 8 29 \012CALL[ ]	/* CallFunction */";
};
width = 547;
}
);
note = six;
unicode = 0036;
},
{
glyphname = seven;
lastChange = "2020-12-07 01:11:22 +0000";
layers = (
{
layerId = "D6A4831D-747C-4592-93C0-305F4CD57904";
paths = (
{
closed = 1;
nodes = (
"358 547 OFFCURVE",
"407 550 QCURVE SMOOTH",
"423 551 OFFCURVE",
"444 536 OFFCURVE",
"444 520 QCURVE SMOOTH",
"444 512 OFFCURVE",
"443 508 QCURVE SMOOTH",
"438 486 OFFCURVE",
"411 427 OFFCURVE",
"408 421 QCURVE SMOOTH",
"388 380 OFFCURVE",
"381 358 QCURVE SMOOTH",
"366 311 OFFCURVE",
"327 214 OFFCURVE",
"323 203 QCURVE SMOOTH",
"287 102 OFFCURVE",
"265 47 QCURVE SMOOTH",
"259 32 OFFCURVE",
"260 17 QCURVE SMOOTH",
"262 -7 OFFCURVE",
"270 -20 QCURVE",
"278 -32 OFFCURVE",
"301 -32 QCURVE SMOOTH",
"310 -32 OFFCURVE",
"319 -29 QCURVE SMOOTH",
"341 -22 OFFCURVE",
"360 19 QCURVE SMOOTH",
"375 54 OFFCURVE",
"395 115 QCURVE SMOOTH",
"404 142 LINE SMOOTH",
"413 169 OFFCURVE",
"423 204 QCURVE SMOOTH",
"445 282 OFFCURVE",
"464 328 QCURVE SMOOTH",
"492 395 OFFCURVE",
"525 485 OFFCURVE",
"547 528 QCURVE SMOOTH",
"561 556 OFFCURVE",
"561 575 QCURVE SMOOTH",
"561 609 OFFCURVE",
"514 623 QCURVE SMOOTH",
"487 631 OFFCURVE",
"448 632 QCURVE SMOOTH",
"284 636 OFFCURVE",
"204 623 QCURVE SMOOTH",
"180 619 OFFCURVE",
"122 614 OFFCURVE",
"111 613 QCURVE",
"94 610 OFFCURVE",
"60 606 QCURVE",
"84 562 OFFCURVE",
"126 532 OFFCURVE",
"159 532 QCURVE SMOOTH",
"169 532 OFFCURVE",
"195 534 QCURVE SMOOTH"
);
}
);
userData = {
assembly = "NPUSHB[ ]	/* 11 values pushed */\0124 1 3 1 49 35 2 2 0 2 76 \012MPPEM[ ]	/* MeasurePixelPerEm */\012PUSHB[ ]	/* 1 value pushed */\01236 \012LT[ ]	/* LessThan */\012IF[ ]	/* If */\012NPUSHB[ ]	/* 24 values pushed */\0120 0 3 2 3 0 2 128 0 3 3 1 97 0 1 1 32 77 0 2 2 31 2 78 \012ELSE[ ]	/* Else */\012NPUSHB[ ]	/* 23 values pushed */\0120 0 3 2 3 0 2 128 0 2 2 132 0 3 3 1 97 0 1 1 32 3 78 \012EIF[ ]	/* EndIf */\012NPUSHB[ ]	/* 9 values pushed */\01253 51 32 30 40 32 4 8 24 \012CALL[ ]	/* CallFunction */";
};
width = 611;
}
);
note = seven;
unicode = 0037;
},
{
glyphname = eight;
lastChange = "2020-12-07 04:10:20 +0000";
layers = (
{
layerId = "D6A4831D-747C-4592-93C0-305F4CD57904";
paths = (
{
closed = 1;
nodes = (
"127 390 LINE SMOOTH",
"92 324 OFFCURVE",
"64 247 OFFCURVE",
"62 198 QCURVE",
"60 184 OFFCURVE",
"60 177 QCURVE SMOOTH",
"60 132 OFFCURVE",
"117 51 OFFCURVE",
"210 2 OFFCURVE",
"261 2 QCURVE SMOOTH",
"320 2 OFFCURVE",
"410 77 OFFCURVE",
"431 139 QCURVE",
"434 150 OFFCURVE",
"453 210 OFFCURVE",
"468 278 OFFCURVE",
"468 317 QCURVE SMOOTH",
"468 352 OFFCURVE",
"441 441 OFFCURVE",
"421 461 QCURVE",
"409 476 OFFCURVE",
"382 503 OFFCURVE",
"382 506 QCURVE SMOOTH",
"382 510 OFFCURVE",
"406 528 OFFCURVE",
"420 540 QCURVE SMOOTH",
"435 553 OFFCURVE",
"459 624 OFFCURVE",
"459 649 QCURVE SMOOTH",
"459 662 OFFCURVE",
"455 666 QCURVE SMOOTH",
"434 687 OFFCURVE",
"383 733 OFFCURVE",
"354 742 QCURVE SMOOTH",
"313 755 OFFCURVE",
"283 753 QCURVE SMOOTH",
"234 750 OFFCURVE",
"153 704 OFFCURVE",
"113 657 QCURVE",
"95 624 OFFCURVE",
"77 583 OFFCURVE",
"77 560 QCURVE SMOOTH",
"77 530 OFFCURVE",
"94 502 QCURVE",
"104 482 OFFCURVE",
"139 459 OFFCURVE",
"167 450 QCURVE",
"163 444 OFFCURVE",
"144 424 OFFCURVE",
"143 420 QCURVE"
);
},
{
closed = 1;
nodes = (
"346 686 OFFCURVE",
"364 670 OFFCURVE",
"364 658 QCURVE SMOOTH",
"364 648 OFFCURVE",
"360 640 QCURVE SMOOTH",
"315 550 OFFCURVE",
"233 516 QCURVE SMOOTH",
"224 512 OFFCURVE",
"215 512 QCURVE SMOOTH",
"203 512 OFFCURVE",
"191 529 OFFCURVE",
"191 544 QCURVE SMOOTH",
"191 583 OFFCURVE",
"228 648 OFFCURVE",
"292 686 OFFCURVE",
"331 686 QCURVE SMOOTH"
);
},
{
closed = 1;
nodes = (
"357 268 OFFCURVE",
"323 183 OFFCURVE",
"295 124 QCURVE SMOOTH",
"285 103 OFFCURVE",
"256 73 OFFCURVE",
"238 73 QCURVE SMOOTH",
"229 73 OFFCURVE",
"219 78 QCURVE",
"203 88 OFFCURVE",
"179 134 OFFCURVE",
"176 158 QCURVE SMOOTH",
"171 198 OFFCURVE",
"171 231 QCURVE SMOOTH",
"171 322 OFFCURVE",
"207 377 QCURVE SMOOTH",
"226 406 OFFCURVE",
"277 446 OFFCURVE",
"325 477 QCURVE",
"328 476 OFFCURVE",
"351 414 OFFCURVE",
"368 338 OFFCURVE",
"366 312 QCURVE"
);
}
);
userData = {
assembly = "NPUSHB[ ]	/* 56 values pushed */\01220 1 2 3 45 43 2 3 4 2 2 76 0 2 3 4 3 2 4 128 0 0 5 1 3 2 0 3 105 0 4 4 1 97 0 1 1 40 1 78 50 50 82 80 50 65 50 64 57 55 40 38 44 6 8 23 \012CALL[ ]	/* CallFunction */";
};
width = 548;
}
);
note = eight;
unicode = 0038;
},
{
glyphname = nine;
lastChange = "2020-12-07 01:11:22 +0000";
layers = (
{
layerId = "D6A4831D-747C-4592-93C0-305F4CD57904";
paths = (
{
closed = 1;
nodes = (
"422 618 OFFCURVE",
"431 618 QCURVE SMOOTH",
"453 618 OFFCURVE",
"470 630 QCURVE",
"473 633 OFFCURVE",
"473 643 QCURVE SMOOTH",
"473 651 OFFCURVE",
"469 669 OFFCURVE",
"466 674 QCURVE",
"443 705 OFFCURVE",
"374 735 OFFCURVE",
"333 735 QCURVE SMOOTH",
"255 735 OFFCURVE",
"136 651 OFFCURVE",
"87 577 QCURVE SMOOTH",
"60 536 OFFCURVE",
"60 497 QCURVE SMOOTH",
"60 476 OFFCURVE",
"65 462 QCURVE",
"78 421 OFFCURVE",
"167 357 OFFCURVE",
"209 357 QCURVE SMOOTH",
"230 357 OFFCURVE",
"281 375 OFFCURVE",
"291 378 QCURVE SMOOTH",
"300 381 OFFCURVE",
"307 381 QCURVE SMOOTH",
"315 381 OFFCURVE",
"320 368 OFFCURVE",
"319 352 QCURVE SMOOTH",
"311 230 OFFCURVE",
"311 166 QCURVE SMOOTH",
"311 132 LINE SMOOTH",
"312 101 OFFCURVE",
"326 43 OFFCURVE",
"339 -7 QCURVE",
"345 -27 OFFCURVE",
"378 -48 OFFCURVE",
"401 -48 QCURVE SMOOTH",
"415 -48 OFFCURVE",
"427 -39 OFFCURVE",
"427 -28 QCURVE SMOOTH",
"427 -25 OFFCURVE",
"425 -14 QCURVE",
"405 77 OFFCURVE",
"405 171 QCURVE SMOOTH",
"405 314 OFFCURVE",
"454 485 QCURVE SMOOTH",
"460 504 OFFCURVE",
"460 511 QCURVE SMOOTH",
"460 527 OFFCURVE",
"443 537 QCURVE",
"420 552 OFFCURVE",
"394 552 QCURVE SMOOTH",
"369 552 OFFCURVE",
"359 538 QCURVE",
"289 457 OFFCURVE",
"213 433 QCURVE SMOOTH",
"199 429 OFFCURVE",
"186 429 QCURVE SMOOTH",
"169 429 OFFCURVE",
"161 435 QCURVE",
"155 441 OFFCURVE",
"149 464 OFFCURVE",
"149 475 QCURVE SMOOTH",
"149 484 OFFCURVE",
"150 488 QCURVE",
"159 532 OFFCURVE",
"228 612 OFFCURVE",
"323 659 OFFCURVE",
"367 656 QCURVE",
"374 650 OFFCURVE",
"405 624 OFFCURVE",
"419 620 QCURVE"
);
}
);
userData = {
assembly = "NPUSHB[ ]	/* 70 values pushed */\01223 8 2 1 2 1 76 0 7 0 2 0 7 2 128 0 2 1 0 2 1 126 0 4 1 5 1 4 5 128 0 3 5 3 134 0 6 0 0 7 6 0 105 0 1 4 5 1 89 0 1 1 5 97 0 5 1 5 81 40 40 35 42 45 36 41 18 8 8 30 \012CALL[ ]	/* CallFunction */";
};
width = 523;
}
);
note = nine;
unicode = 0039;
},
{
glyphname = colon;
lastChange = "2020-12-07 01:11:22 +0000";
layers = (
{
layerId = "D6A4831D-747C-4592-93C0-305F4CD57904";
paths = (
{
closed = 1;
nodes = (
"85 372 OFFCURVE",
"85 361 QCURVE SMOOTH",
"85 332 OFFCURVE",
"129 263 OFFCURVE",
"154 251 QCURVE SMOOTH",
"164 246 OFFCURVE",
"177 247 QCURVE SMOOTH",
"195 248 OFFCURVE",
"217 272 OFFCURVE",
"217 293 QCURVE SMOOTH",
"217 311 OFFCURVE",
"182 361 OFFCURVE",
"133 400 OFFCURVE",
"113 402 QCURVE",
"109 399 OFFCURVE",
"89 384 OFFCURVE",
"87 376 QCURVE"
);
},
{
closed = 1;
nodes = (
"80 185 LINE",
"63 174 LINE",
"63 166 OFFCURVE",
"60 148 OFFCURVE",
"60 140 QCURVE SMOOTH",
"60 131 OFFCURVE",
"64 125 QCURVE",
"89 87 OFFCURVE",
"133 43 QCURVE SMOOTH",
"149 27 OFFCURVE",
"170 27 QCURVE SMOOTH",
"187 27 OFFCURVE",
"203 40 QCURVE",
"215 49 OFFCURVE",
"215 67 QCURVE SMOOTH",
"215 80 OFFCURVE",
"203 105 OFFCURVE",
"190 114 QCURVE",
"164 130 OFFCURVE",
"114 163 QCURVE SMOOTH"
);
}
);
userData = {
assembly = "NPUSHB[ ]	/* 29 values pushed */\01236 35 2 2 1 1 76 0 0 1 0 133 0 1 2 1 133 0 2 2 34 2 78 47 37 33 3 8 25 \012CALL[ ]	/* CallFunction */";
};
width = 267;
}
);
note = colon;
unicode = 003A;
},
{
glyphname = semicolon;
lastChange = "2020-12-07 01:11:22 +0000";
layers = (
{
layerId = "D6A4831D-747C-4592-93C0-305F4CD57904";
paths = (
{
closed = 1;
nodes = (
"108 176 OFFCURVE",
"141 169 OFFCURVE",
"155 172 QCURVE SMOOTH",
"171 175 OFFCURVE",
"173 185 QCURVE",
"184 225 OFFCURVE",
"178 265 QCURVE",
"175 278 OFFCURVE",
"150 292 OFFCURVE",
"133 286 QCURVE SMOOTH",
"121 282 OFFCURVE",
"102 280 OFFCURVE",
"95 278 QCURVE",
"72 273 LINE",
"71 258 OFFCURVE",
"75 238 QCURVE SMOOTH",
"82 202 OFFCURVE",
"99 185 QCURVE SMOOTH"
);
},
{
closed = 1;
nodes = (
"173 56 OFFCURVE",
"169 77 QCURVE SMOOTH",
"164 102 OFFCURVE",
"140 124 QCURVE SMOOTH",
"127 136 OFFCURVE",
"113 133 QCURVE SMOOTH",
"105 131 OFFCURVE",
"90 112 OFFCURVE",
"88 99 QCURVE SMOOTH",
"82 57 OFFCURVE",
"84 2 QCURVE",
"86 -11 LINE",
"81 -123 OFFCURVE",
"62 -220 QCURVE SMOOTH",
"60 -230 OFFCURVE",
"60 -244 QCURVE SMOOTH",
"60 -267 LINE",
"94 -251 OFFCURVE",
"133 -202 OFFCURVE",
"143 -168 QCURVE SMOOTH",
"159 -118 OFFCURVE",
"162 -68 QCURVE SMOOTH",
"164 -39 OFFCURVE",
"168 21 QCURVE"
);
}
);
userData = {
assembly = "PUSHB[ ]	/* 6 values pushed */\01236 24 15 8 2 50 \012CALL[ ]	/* CallFunction */";
};
width = 230;
}
);
note = semicolon;
unicode = 003B;
},
{
glyphname = less;
lastChange = "2020-12-07 01:11:18 +0000";
layers = (
{
layerId = "D6A4831D-747C-4592-93C0-305F4CD57904";
paths = (
{
closed = 1;
nodes = (
"403 476 OFFCURVE",
"481 549 QCURVE SMOOTH",
"497 564 OFFCURVE",
"532 590 QCURVE SMOOTH",
"557 609 LINE",
"573 624 OFFCURVE",
"573 647 QCURVE SMOOTH",
"573 660 OFFCURVE",
"561 682 OFFCURVE",
"549 687 QCURVE SMOOTH",
"516 702 OFFCURVE",
"488 702 QCURVE SMOOTH",
"438 702 OFFCURVE",
"392 648 QCURVE SMOOTH",
"380 634 OFFCURVE",
"316 566 QCURVE SMOOTH",
"278 524 LINE",
"71 293 LINE SMOOTH",
"60 280 OFFCURVE",
"60 269 QCURVE SMOOTH",
"60 254 OFFCURVE",
"72 247 QCURVE",
"80 240 OFFCURVE",
"112 217 OFFCURVE",
"146 200 OFFCURVE",
"167 201 QCURVE SMOOTH",
"205 203 OFFCURVE",
"278 188 OFFCURVE",
"335 174 QCURVE",
"422 149 OFFCURVE",
"509 149 QCURVE SMOOTH",
"542 149 OFFCURVE",
"574 153 QCURVE SMOOTH",
"593 155 OFFCURVE",
"615 167 OFFCURVE",
"618 186 QCURVE",
"614 189 OFFCURVE",
"598 201 OFFCURVE",
"591 202 QCURVE",
"529 216 OFFCURVE",
"496 217 QCURVE SMOOTH",
"434 217 OFFCURVE",
"316 248 OFFCURVE",
"225 279 QCURVE",
"241 298 LINE SMOOTH",
"287 355 OFFCURVE",
"311 381 QCURVE SMOOTH"
);
}
);
userData = {
assembly = "PUSHB[ ]	/* 6 values pushed */\0122 1 0 3 1 76 \012MPPEM[ ]	/* MeasurePixelPerEm */\012PUSHB[ ]	/* 1 value pushed */\01221 \012LT[ ]	/* LessThan */\012IF[ ]	/* If */\012NPUSHB[ ]	/* 21 values pushed */\0120 2 0 1 0 2 1 128 0 0 0 1 0 1 101 0 3 3 36 3 78 \012ELSE[ ]	/* Else */\012NPUSHB[ ]	/* 29 values pushed */\0120 3 0 3 133 0 2 0 1 0 2 1 128 0 0 2 1 0 89 0 0 0 1 97 0 1 0 1 81 \012EIF[ ]	/* EndIf */\012PUSHB[ ]	/* 7 values pushed */\01244 35 40 36 4 8 26 \012CALL[ ]	/* CallFunction */";
};
width = 668;
}
);
note = less;
unicode = 003C;
},
{
glyphname = equal;
lastChange = "2020-12-07 01:11:22 +0000";
layers = (
{
layerId = "D6A4831D-747C-4592-93C0-305F4CD57904";
paths = (
{
closed = 1;
nodes = (
"271 362 OFFCURVE",
"170 362 QCURVE SMOOTH",
"130 362 OFFCURVE",
"84 348 OFFCURVE",
"60 328 QCURVE",
"64 323 OFFCURVE",
"80 300 OFFCURVE",
"87 295 QCURVE SMOOTH",
"123 267 OFFCURVE",
"171 267 QCURVE SMOOTH",
"183 267 OFFCURVE",
"189 268 QCURVE",
"305 278 OFFCURVE",
"377 284 QCURVE SMOOTH",
"549 296 LINE",
"546 334 OFFCURVE",
"507 376 OFFCURVE",
"477 374 QCURVE SMOOTH"
);
},
{
closed = 1;
nodes = (
"186 122 OFFCURVE",
"267 101 OFFCURVE",
"317 100 QCURVE SMOOTH",
"387 102 OFFCURVE",
"497 110 QCURVE SMOOTH",
"520 112 LINE SMOOTH",
"541 114 OFFCURVE",
"568 125 QCURVE SMOOTH",
"594 135 OFFCURVE",
"594 154 QCURVE SMOOTH",
"594 169 OFFCURVE",
"576 182 QCURVE",
"535 213 OFFCURVE",
"491 213 QCURVE SMOOTH",
"468 213 OFFCURVE",
"436 205 QCURVE",
"429 204 OFFCURVE",
"401 198 OFFCURVE",
"390 197 QCURVE SMOOTH",
"369 196 LINE SMOOTH",
"297 189 OFFCURVE",
"249 187 QCURVE SMOOTH",
"196 186 OFFCURVE",
"153 197 QCURVE SMOOTH",
"149 198 OFFCURVE",
"138 196 OFFCURVE",
"136 196 QCURVE",
"129 186 OFFCURVE",
"129 177 QCURVE SMOOTH",
"129 162 OFFCURVE",
"151 146 QCURVE SMOOTH"
);
}
);
userData = {
assembly = "NPUSHB[ ]	/* 58 values pushed */\01212 2 2 0 1 1 76 6 1 1 0 0 3 1 0 105 0 2 4 5 2 89 0 3 0 4 5 3 4 105 0 2 2 5 97 0 5 2 5 81 0 0 46 44 42 41 35 33 27 25 0 17 0 14 53 7 8 23 \012CALL[ ]	/* CallFunction */";
};
width = 644;
}
);
note = equal;
unicode = 003D;
},
{
glyphname = greater;
lastChange = "2020-12-07 01:11:18 +0000";
layers = (
{
layerId = "D6A4831D-747C-4592-93C0-305F4CD57904";
paths = (
{
closed = 1;
nodes = (
"366 536 LINE",
"333 565 OFFCURVE",
"305 584 QCURVE",
"282 608 OFFCURVE",
"248 633 QCURVE SMOOTH",
"215 658 OFFCURVE",
"205 666 QCURVE",
"189 684 OFFCURVE",
"171 684 QCURVE SMOOTH",
"159 684 OFFCURVE",
"147 675 QCURVE SMOOTH",
"137 668 OFFCURVE",
"137 658 QCURVE SMOOTH",
"137 646 OFFCURVE",
"152 627 QCURVE SMOOTH",
"208 551 OFFCURVE",
"239 516 QCURVE SMOOTH",
"249 505 OFFCURVE",
"286 476 OFFCURVE",
"305 463 QCURVE",
"350 429 OFFCURVE",
"360 420 QCURVE",
"336 407 OFFCURVE",
"274 385 QCURVE SMOOTH",
"216 366 OFFCURVE",
"189 351 QCURVE SMOOTH",
"128 315 OFFCURVE",
"83 285 QCURVE SMOOTH",
"60 269 OFFCURVE",
"60 250 QCURVE SMOOTH",
"60 240 OFFCURVE",
"68 229 QCURVE SMOOTH",
"78 216 OFFCURVE",
"116 200 OFFCURVE",
"136 200 QCURVE SMOOTH",
"158 200 OFFCURVE",
"171 208 QCURVE",
"190 218 OFFCURVE",
"225 238 OFFCURVE",
"241 247 QCURVE SMOOTH",
"266 261 LINE SMOOTH",
"299 280 OFFCURVE",
"454 341 OFFCURVE",
"458 343 QCURVE",
"513 367 OFFCURVE",
"513 395 QCURVE SMOOTH",
"513 409 OFFCURVE",
"483 445 OFFCURVE",
"423 490 OFFCURVE",
"415 496 QCURVE"
);
}
);
userData = {
assembly = "PUSHB[ ]	/* 6 values pushed */\01227 1 0 1 1 76 \012MPPEM[ ]	/* MeasurePixelPerEm */\012PUSHB[ ]	/* 1 value pushed */\01221 \012LT[ ]	/* LessThan */\012IF[ ]	/* If */\012NPUSHB[ ]	/* 11 values pushed */\0120 0 1 0 134 0 1 1 30 1 78 \012ELSE[ ]	/* Else */\012NPUSHB[ ]	/* 9 values pushed */\0120 1 0 1 133 0 0 0 118 \012EIF[ ]	/* EndIf */\012PUSHB[ ]	/* 6 values pushed */\01241 39 45 2 8 23 \012CALL[ ]	/* CallFunction */";
};
width = 563;
}
);
note = greater;
unicode = 003E;
},
{
glyphname = question;
lastChange = "2020-12-07 01:11:22 +0000";
layers = (
{
layerId = "D6A4831D-747C-4592-93C0-305F4CD57904";
paths = (
{
closed = 1;
nodes = (
"95 754 OFFCURVE",
"95 738 QCURVE SMOOTH",
"95 729 OFFCURVE",
"101 718 QCURVE",
"111 702 OFFCURVE",
"144 685 OFFCURVE",
"163 685 QCURVE SMOOTH",
"195 685 OFFCURVE",
"216 705 QCURVE",
"251 736 OFFCURVE",
"276 745 QCURVE SMOOTH",
"289 750 OFFCURVE",
"304 750 QCURVE SMOOTH",
"321 750 OFFCURVE",
"331 744 QCURVE SMOOTH",
"349 733 OFFCURVE",
"349 708 QCURVE SMOOTH",
"349 695 OFFCURVE",
"344 680 QCURVE",
"327 636 OFFCURVE",
"304 606 QCURVE SMOOTH",
"219 502 LINE",
"174 449 LINE SMOOTH",
"140 407 OFFCURVE",
"70 323 QCURVE",
"60 310 OFFCURVE",
"60 300 QCURVE SMOOTH",
"60 290 OFFCURVE",
"68 283 QCURVE",
"75 276 OFFCURVE",
"94 268 OFFCURVE",
"101 270 QCURVE SMOOTH",
"141 280 OFFCURVE",
"168 298 QCURVE SMOOTH",
"207 323 OFFCURVE",
"273 388 OFFCURVE",
"319 440 QCURVE",
"320 441 OFFCURVE",
"353 477 QCURVE SMOOTH",
"429 559 OFFCURVE",
"460 642 QCURVE SMOOTH",
"467 660 OFFCURVE",
"467 680 QCURVE SMOOTH",
"467 704 OFFCURVE",
"456 723 QCURVE SMOOTH",
"399 827 OFFCURVE",
"276 841 QCURVE",
"176 837 OFFCURVE",
"109 768 QCURVE SMOOTH"
);
},
{
closed = 1;
nodes = (
"189 -3 OFFCURVE",
"242 -31 QCURVE",
"276 20 LINE",
"182 85 LINE",
"162 68 OFFCURVE",
"144 47 OFFCURVE",
"144 39 QCURVE SMOOTH",
"144 31 OFFCURVE",
"160 15 OFFCURVE",
"179 3 QCURVE SMOOTH"
);
}
);
userData = {
assembly = "NPUSHB[ ]	/* 38 values pushed */\01256 55 54 3 2 73 0 1 0 2 0 1 2 128 0 0 1 2 0 89 0 0 0 2 97 0 2 0 2 81 42 40 36 34 16 3 8 23 \012CALL[ ]	/* CallFunction */";
};
width = 517;
}
);
note = question;
unicode = 003F;
},
{
glyphname = at;
lastChange = "2020-12-07 01:11:18 +0000";
layers = (
{
layerId = "D6A4831D-747C-4592-93C0-305F4CD57904";
paths = (
{
closed = 1;
nodes = (
"614 481 OFFCURVE",
"597 499 QCURVE SMOOTH",
"508 595 OFFCURVE",
"396 591 QCURVE",
"373 589 LINE",
"353 588 OFFCURVE",
"328 584 OFFCURVE",
"317 579 QCURVE SMOOTH",
"241 544 OFFCURVE",
"186 503 QCURVE SMOOTH",
"115 450 OFFCURVE",
"76 364 QCURVE SMOOTH",
"60 329 OFFCURVE",
"60 294 QCURVE SMOOTH",
"60 250 OFFCURVE",
"85 195 QCURVE SMOOTH",
"163 25 OFFCURVE",
"345 1 QCURVE",
"358 0 LINE",
"367 0 OFFCURVE",
"373 3 QCURVE",
"381 8 OFFCURVE",
"396 26 OFFCURVE",
"399 29 QCURVE",
"393 31 OFFCURVE",
"376 38 OFFCURVE",
"370 39 QCURVE",
"287 42 OFFCURVE",
"233 93 QCURVE SMOOTH",
"218 108 OFFCURVE",
"191 147 OFFCURVE",
"164 197 OFFCURVE",
"159 205 QCURVE",
"138 243 OFFCURVE",
"138 282 QCURVE SMOOTH",
"138 309 OFFCURVE",
"158 363 OFFCURVE",
"177 394 QCURVE SMOOTH",
"223 468 OFFCURVE",
"313 527 QCURVE SMOOTH",
"357 556 OFFCURVE",
"401 556 QCURVE SMOOTH",
"435 556 OFFCURVE",
"469 538 QCURVE SMOOTH",
"527 508 OFFCURVE",
"587 410 OFFCURVE",
"596 343 QCURVE SMOOTH",
"598 327 OFFCURVE",
"598 320 QCURVE SMOOTH",
"598 254 OFFCURVE",
"539 214 QCURVE",
"527 207 OFFCURVE",
"521 207 QCURVE SMOOTH",
"509 207 OFFCURVE",
"501 222 QCURVE SMOOTH",
"497 229 OFFCURVE",
"491 242 OFFCURVE",
"488 248 QCURVE SMOOTH",
"479 266 OFFCURVE",
"449 286 OFFCURVE",
"433 286 QCURVE SMOOTH",
"402 286 OFFCURVE",
"381 258 QCURVE",
"366 240 OFFCURVE",
"333 223 QCURVE",
"326 220 OFFCURVE",
"321 220 QCURVE SMOOTH",
"304 220 OFFCURVE",
"304 247 QCURVE SMOOTH",
"304 268 OFFCURVE",
"343 344 OFFCURVE",
"359 351 QCURVE SMOOTH",
"368 355 OFFCURVE",
"380 349 QCURVE",
"385 346 OFFCURVE",
"396 333 OFFCURVE",
"398 330 QCURVE",
"408 318 OFFCURVE",
"433 318 QCURVE SMOOTH",
"453 318 OFFCURVE",
"460 327 QCURVE SMOOTH",
"469 338 OFFCURVE",
"469 347 QCURVE SMOOTH",
"469 360 OFFCURVE",
"452 377 QCURVE",
"416 410 OFFCURVE",
"374 410 QCURVE SMOOTH",
"357 410 OFFCURVE",
"338 404 QCURVE SMOOTH",
"305 394 OFFCURVE",
"260 351 OFFCURVE",
"241 319 QCURVE SMOOTH",
"225 291 OFFCURVE",
"225 264 QCURVE SMOOTH",
"225 236 OFFCURVE",
"259 188 OFFCURVE",
"289 175 QCURVE SMOOTH",
"318 162 OFFCURVE",
"344 162 QCURVE SMOOTH",
"374 162 OFFCURVE",
"405 179 QCURVE SMOOTH",
"421 188 OFFCURVE",
"433 188 QCURVE SMOOTH",
"438 188 OFFCURVE",
"440 186 QCURVE",
"475 154 OFFCURVE",
"525 154 QCURVE SMOOTH",
"539 154 OFFCURVE",
"567 158 QCURVE SMOOTH",
"590 161 OFFCURVE",
"641 194 OFFCURVE",
"677 239 OFFCURVE",
"678 259 QCURVE SMOOTH",
"679 280 LINE SMOOTH",
"681 308 OFFCURVE",
"681 322 QCURVE SMOOTH",
"681 388 OFFCURVE",
"651 429 QCURVE SMOOTH"
);
}
);
userData = {
assembly = "NPUSHB[ ]	/* 10 values pushed */\01268 1 4 3 3 1 5 6 2 76 \012MPPEM[ ]	/* MeasurePixelPerEm */\012PUSHB[ ]	/* 1 value pushed */\01229 \012LT[ ]	/* LessThan */\012IF[ ]	/* If */\012NPUSHB[ ]	/* 53 values pushed */\01212 1 11 0 8 3 11 8 105 0 5 7 0 5 89 0 6 0 1 0 6 1 105 0 7 2 1 0 9 7 0 105 0 4 4 3 97 0 3 3 33 77 0 9 9 10 97 0 10 10 40 10 78 \012ELSE[ ]	/* Else */\012MPPEM[ ]	/* MeasurePixelPerEm */\012PUSHB[ ]	/* 1 value pushed */\01244 \012LT[ ]	/* LessThan */\012IF[ ]	/* If */\012NPUSHB[ ]	/* 54 values pushed */\01212 1 11 0 8 3 11 8 105 0 6 0 1 2 6 1 105 0 5 0 2 0 5 2 105 0 7 0 0 9 7 0 105 0 4 4 3 97 0 3 3 33 77 0 9 9 10 97 0 10 10 40 10 78 \012ELSE[ ]	/* Else */\012MPPEM[ ]	/* MeasurePixelPerEm */\012PUSHB[ ]	/* 1 value pushed */\01246 \012LT[ ]	/* LessThan */\012IF[ ]	/* If */\012NPUSHB[ ]	/* 51 values pushed */\01212 1 11 0 8 3 11 8 105 0 6 0 1 2 6 1 105 0 5 0 2 0 5 2 105 0 7 0 0 9 7 0 105 0 9 0 10 9 10 101 0 4 4 3 97 0 3 3 33 4 78 \012ELSE[ ]	/* Else */\012MPPEM[ ]	/* MeasurePixelPerEm */\012PUSHB[ ]	/* 1 value pushed */\01249 \012LT[ ]	/* LessThan */\012IF[ ]	/* If */\012NPUSHB[ ]	/* 57 values pushed */\0120 11 12 8 12 11 114 0 12 0 8 3 12 8 105 0 6 0 1 2 6 1 105 0 5 0 2 0 5 2 105 0 7 0 0 9 7 0 105 0 9 0 10 9 10 101 0 4 4 3 97 0 3 3 33 4 78 \012ELSE[ ]	/* Else */\012NPUSHB[ ]	/* 63 values pushed */\0120 11 12 8 12 11 114 0 12 0 8 3 12 8 105 0 3 0 4 6 3 4 105 0 6 0 1 2 6 1 105 0 5 0 2 0 5 2 105 0 7 0 0 9 7 0 105 0 9 10 10 9 89 0 9 9 10 97 0 10 9 10 81 \012EIF[ ]	/* EndIf */\012EIF[ ]	/* EndIf */\012EIF[ ]	/* EndIf */\012EIF[ ]	/* EndIf */\012NPUSHB[ ]	/* 20 values pushed */\012114 113 112 111 98 97 90 89 42 22 37 26 38 42 34 19 41 13 8 31 \012CALL[ ]	/* CallFunction */";
};
width = 731;
}
);
note = at;
unicode = 0040;
},
{
glyphname = A;
lastChange = "2020-12-07 02:06:15 +0000";
layers = (
{
layerId = "D6A4831D-747C-4592-93C0-305F4CD57904";
paths = (
{
closed = 1;
nodes = (
"604 602 OFFCURVE",
"584 643 QCURVE SMOOTH",
"570 671 OFFCURVE",
"519 702 OFFCURVE",
"489 702 QCURVE SMOOTH",
"465 702 OFFCURVE",
"442 691 QCURVE SMOOTH",
"334 645 OFFCURVE",
"271 523 QCURVE SMOOTH",
"249 477 OFFCURVE",
"135 245 QCURVE SMOOTH",
"66 105 LINE SMOOTH",
"60 93 OFFCURVE",
"60 82 QCURVE SMOOTH",
"60 66 OFFCURVE",
"75 49 QCURVE SMOOTH",
"85 37 OFFCURVE",
"114 22 OFFCURVE",
"129 22 QCURVE SMOOTH",
"160 22 OFFCURVE",
"179 56 QCURVE SMOOTH",
"209 107 OFFCURVE",
"225 137 QCURVE SMOOTH",
"242 170 OFFCURVE",
"279 178 QCURVE SMOOTH",
"314 185 OFFCURVE",
"355 197 QCURVE SMOOTH",
"403 211 LINE SMOOTH",
"421 216 OFFCURVE",
"468 232 OFFCURVE",
"499 241 QCURVE SMOOTH",
"508 244 OFFCURVE",
"515 244 QCURVE SMOOTH",
"534 244 OFFCURVE",
"540 217 QCURVE SMOOTH",
"557 152 OFFCURVE",
"565 113 QCURVE SMOOTH",
"567 98 OFFCURVE",
"567 80 QCURVE SMOOTH",
"567 69 OFFCURVE",
"567 63 QCURVE",
"566 59 OFFCURVE",
"566 51 QCURVE SMOOTH",
"566 27 OFFCURVE",
"592 -6 OFFCURVE",
"617 -12 QCURVE",
"626 -14 OFFCURVE",
"628 -14 QCURVE SMOOTH",
"645 -14 OFFCURVE",
"667 5 OFFCURVE",
"668 21 QCURVE SMOOTH",
"670 45 OFFCURVE",
"670 59 QCURVE SMOOTH",
"670 84 OFFCURVE",
"665 100 QCURVE SMOOTH",
"627 214 OFFCURVE",
"627 359 QCURVE",
"625 411 LINE SMOOTH",
"619 493 OFFCURVE",
"613 536 QCURVE SMOOTH"
);
},
{
closed = 1;
nodes = (
"307 322 LINE SMOOTH",
"326 367 OFFCURVE",
"333 380 QCURVE SMOOTH",
"376 459 OFFCURVE",
"423 533 QCURVE SMOOTH",
"450 579 OFFCURVE",
"503 585 QCURVE",
"514 529 OFFCURVE",
"521 418 OFFCURVE",
"523 322 QCURVE",
"427 307 OFFCURVE",
"290 283 QCURVE"
);
}
);
userData = {
assembly = "NPUSHB[ ]	/* 18 values pushed */\01271 64 61 2 4 1 3 18 16 2 2 1 8 1 0 2 3 76 \012MPPEM[ ]	/* MeasurePixelPerEm */\012PUSHB[ ]	/* 1 value pushed */\01221 \012LT[ ]	/* LessThan */\012IF[ ]	/* If */\012NPUSHB[ ]	/* 24 values pushed */\0120 1 3 2 3 1 2 128 0 3 3 36 77 0 2 2 34 77 0 0 0 31 0 78 \012ELSE[ ]	/* Else */\012NPUSHB[ ]	/* 21 values pushed */\0120 3 1 3 133 0 1 2 1 133 0 2 2 34 77 0 0 0 31 0 78 \012EIF[ ]	/* EndIf */\012PUSHB[ ]	/* 7 values pushed */\01244 45 30 26 4 8 26 \012CALL[ ]	/* CallFunction */";
};
width = 720;
}
);
leftKerningGroup = A;
note = A;
rightKerningGroup = A;
unicode = 0041;
},
{
glyphname = B;
lastChange = "2020-12-07 01:55:22 +0000";
layers = (
{
layerId = "D6A4831D-747C-4592-93C0-305F4CD57904";
paths = (
{
closed = 1;
nodes = (
"491 484 OFFCURVE",
"498 500 QCURVE",
"508 520 LINE",
"519 545 OFFCURVE",
"519 570 QCURVE SMOOTH",
"519 600 OFFCURVE",
"490 652 OFFCURVE",
"464 668 QCURVE SMOOTH",
"414 700 OFFCURVE",
"340 700 QCURVE SMOOTH",
"324 700 OFFCURVE",
"294 698 QCURVE SMOOTH",
"229 692 OFFCURVE",
"134 626 OFFCURVE",
"110 568 QCURVE SMOOTH",
"79 491 OFFCURVE",
"68 403 QCURVE SMOOTH",
"60 343 OFFCURVE",
"60 267 QCURVE SMOOTH",
"60 227 OFFCURVE",
"62 167 OFFCURVE",
"63 147 QCURVE SMOOTH",
"64 131 OFFCURVE",
"66 83 OFFCURVE",
"66 51 QCURVE SMOOTH",
"66 9 OFFCURVE",
"102 -24 QCURVE",
"115 -37 OFFCURVE",
"131 -37 QCURVE SMOOTH",
"149 -37 OFFCURVE",
"161 -19 QCURVE",
"164 -15 OFFCURVE",
"169 2 OFFCURVE",
"171 8 QCURVE",
"193 -8 OFFCURVE",
"209 -21 QCURVE SMOOTH",
"250 -55 OFFCURVE",
"298 -55 QCURVE SMOOTH",
"331 -55 OFFCURVE",
"365 -38 QCURVE SMOOTH",
"503 31 OFFCURVE",
"565 146 QCURVE SMOOTH",
"590 193 OFFCURVE",
"590 241 QCURVE SMOOTH",
"590 290 OFFCURVE",
"537 371 OFFCURVE",
"484 391 QCURVE SMOOTH",
"474 395 OFFCURVE",
"449 410 QCURVE",
"476 455 OFFCURVE",
"481 465 QCURVE SMOOTH"
);
},
{
closed = 1;
nodes = (
"353 431 OFFCURVE",
"256 379 QCURVE SMOOTH",
"237 368 OFFCURVE",
"201 342 QCURVE SMOOTH",
"178 326 LINE",
"187 305 OFFCURVE",
"213 279 OFFCURVE",
"232 268 QCURVE SMOOTH",
"248 259 OFFCURVE",
"263 259 QCURVE SMOOTH",
"287 259 OFFCURVE",
"311 280 QCURVE SMOOTH",
"358 324 OFFCURVE",
"403 337 QCURVE SMOOTH",
"416 341 OFFCURVE",
"431 341 QCURVE SMOOTH",
"456 341 OFFCURVE",
"485 313 OFFCURVE",
"485 286 QCURVE SMOOTH",
"485 274 OFFCURVE",
"482 259 QCURVE SMOOTH",
"474 221 OFFCURVE",
"443 173 QCURVE SMOOTH",
"402 114 OFFCURVE",
"317 40 OFFCURVE",
"257 28 QCURVE",
"252 34 OFFCURVE",
"234 57 OFFCURVE",
"225 62 QCURVE SMOOTH",
"215 68 OFFCURVE",
"196 70 QCURVE",
"182 72 OFFCURVE",
"176 74 QCURVE",
"172 107 LINE SMOOTH",
"162 191 OFFCURVE",
"161 218 QCURVE SMOOTH",
"159 252 OFFCURVE",
"157 267 QCURVE",
"153 317 OFFCURVE",
"153 343 QCURVE SMOOTH",
"153 391 OFFCURVE",
"165 430 QCURVE SMOOTH",
"181 480 OFFCURVE",
"214 548 OFFCURVE",
"271 605 OFFCURVE",
"314 619 QCURVE SMOOTH",
"334 626 OFFCURVE",
"357 626 QCURVE SMOOTH",
"384 626 OFFCURVE",
"414 613 QCURVE",
"411 591 LINE SMOOTH",
"407 561 OFFCURVE",
"402 548 QCURVE SMOOTH"
);
}
);
userData = {
assembly = "NPUSHB[ ]	/* 16 values pushed */\01253 1 2 4 3 98 1 5 4 77 16 2 1 5 3 76 \012MPPEM[ ]	/* MeasurePixelPerEm */\012PUSHB[ ]	/* 1 value pushed */\01221 \012LT[ ]	/* LessThan */\012IF[ ]	/* If */\012NPUSHB[ ]	/* 36 values pushed */\0120 4 3 5 3 4 5 128 0 5 1 3 5 1 126 0 0 1 0 134 0 3 3 2 97 0 2 2 36 77 0 1 1 31 1 78 \012ELSE[ ]	/* Else */\012MPPEM[ ]	/* MeasurePixelPerEm */\012PUSHB[ ]	/* 1 value pushed */\01226 \012LT[ ]	/* LessThan */\012IF[ ]	/* If */\012NPUSHB[ ]	/* 34 values pushed */\0120 4 3 5 3 4 5 128 0 5 1 3 5 1 126 0 0 1 0 134 0 2 0 3 4 2 3 105 0 1 1 31 1 78 \012ELSE[ ]	/* Else */\012NPUSHB[ ]	/* 42 values pushed */\0120 4 3 5 3 4 5 128 0 5 1 3 5 1 126 0 1 0 3 1 0 126 0 0 0 132 0 2 3 3 2 89 0 2 2 3 97 0 3 2 3 81 \012EIF[ ]	/* EndIf */\012EIF[ ]	/* EndIf */\012NPUSHB[ ]	/* 13 values pushed */\01294 92 88 86 56 54 41 38 39 43 6 8 24 \012CALL[ ]	/* CallFunction */";
};
width = 640;
}
);
leftMetricsKey = "=H";
note = B;
unicode = 0042;
},
{
glyphname = C;
lastChange = "2020-12-07 01:52:42 +0000";
layers = (
{
layerId = "D6A4831D-747C-4592-93C0-305F4CD57904";
paths = (
{
closed = 1;
nodes = (
"372 2 OFFCURVE",
"416 12 QCURVE SMOOTH",
"467 24 OFFCURVE",
"567 92 QCURVE",
"567 92 OFFCURVE",
"618 146 OFFCURVE",
"654 197 OFFCURVE",
"658 204 QCURVE",
"669 218 OFFCURVE",
"669 234 QCURVE SMOOTH",
"669 257 OFFCURVE",
"648 272 QCURVE SMOOTH",
"629 285 OFFCURVE",
"616 285 QCURVE SMOOTH",
"608 285 OFFCURVE",
"589 274 OFFCURVE",
"576 261 QCURVE SMOOTH",
"556 240 LINE SMOOTH",
"519 201 OFFCURVE",
"503 190 QCURVE",
"439 139 OFFCURVE",
"374 107 OFFCURVE",
"311 99 QCURVE SMOOTH",
"293 96 OFFCURVE",
"278 96 QCURVE SMOOTH",
"235 96 OFFCURVE",
"184 139 OFFCURVE",
"174 185 QCURVE SMOOTH",
"165 226 OFFCURVE",
"165 270 QCURVE SMOOTH",
"165 393 OFFCURVE",
"250 482 QCURVE SMOOTH",
"300 535 OFFCURVE",
"351 535 QCURVE SMOOTH",
"378 535 OFFCURVE",
"407 519 QCURVE SMOOTH",
"413 515 OFFCURVE",
"416 515 QCURVE SMOOTH",
"422 514 OFFCURVE",
"433 514 QCURVE SMOOTH",
"447 514 OFFCURVE",
"464 529 OFFCURVE",
"464 544 QCURVE SMOOTH",
"464 548 OFFCURVE",
"462 560 QCURVE",
"451 600 OFFCURVE",
"369 663 OFFCURVE",
"326 663 QCURVE SMOOTH",
"284 663 OFFCURVE",
"180 610 OFFCURVE",
"96 528 OFFCURVE",
"81 487 QCURVE SMOOTH",
"66 443 OFFCURVE",
"50 369 OFFCURVE",
"50 330 QCURVE SMOOTH",
"50 314 OFFCURVE",
"51 307 QCURVE",
"51 287 LINE SMOOTH",
"51 215 OFFCURVE",
"122 82 OFFCURVE",
"247 0 OFFCURVE",
"328 0 QCURVE SMOOTH"
);
}
);
userData = {
assembly = "PUSHB[ ]	/* 6 values pushed */\01261 1 3 4 1 76 \012MPPEM[ ]	/* MeasurePixelPerEm */\012PUSHB[ ]	/* 1 value pushed */\01221 \012LT[ ]	/* LessThan */\012IF[ ]	/* If */\012NPUSHB[ ]	/* 36 values pushed */\0120 1 2 4 2 1 4 128 0 4 3 2 4 3 126 0 2 2 0 97 0 0 0 36 77 0 3 3 5 97 0 5 5 40 5 78 \012ELSE[ ]	/* Else */\012MPPEM[ ]	/* MeasurePixelPerEm */\012PUSHB[ ]	/* 1 value pushed */\01244 \012LT[ ]	/* LessThan */\012IF[ ]	/* If */\012NPUSHB[ ]	/* 34 values pushed */\0120 1 2 4 2 1 4 128 0 4 3 2 4 3 126 0 0 0 2 1 0 2 105 0 3 3 5 97 0 5 5 40 5 78 \012ELSE[ ]	/* Else */\012NPUSHB[ ]	/* 39 values pushed */\0120 1 2 4 2 1 4 128 0 4 3 2 4 3 126 0 0 0 2 1 0 2 105 0 3 5 5 3 89 0 3 3 5 97 0 5 3 5 81 \012EIF[ ]	/* EndIf */\012EIF[ ]	/* EndIf */\012NPUSHB[ ]	/* 9 values pushed */\01244 41 39 36 38 39 6 8 28 \012CALL[ ]	/* CallFunction */";
};
width = 719;
}
);
leftKerningGroup = C;
leftMetricsKey = "=O";
note = C;
rightKerningGroup = C;
unicode = 0043;
},
{
glyphname = D;
lastChange = "2020-12-07 02:01:38 +0000";
layers = (
{
layerId = "D6A4831D-747C-4592-93C0-305F4CD57904";
paths = (
{
closed = 1;
nodes = (
"162 615 LINE",
"155 531 OFFCURVE",
"125 372 OFFCURVE",
"95 242 QCURVE SMOOTH",
"90 220 LINE SMOOTH",
"80 175 OFFCURVE",
"68 83 QCURVE SMOOTH",
"61 31 LINE",
"60 22 LINE",
"60 8 OFFCURVE",
"76 -13 OFFCURVE",
"91 -23 QCURVE",
"132 -48 OFFCURVE",
"176 -48 QCURVE SMOOTH",
"213 -48 OFFCURVE",
"247 -31 QCURVE SMOOTH",
"339 12 OFFCURVE",
"415 79 QCURVE SMOOTH",
"540 187 OFFCURVE",
"658 374 QCURVE SMOOTH",
"689 424 OFFCURVE",
"689 471 QCURVE SMOOTH",
"689 526 OFFCURVE",
"648 579 QCURVE SMOOTH",
"620 613 OFFCURVE",
"579 638 QCURVE SMOOTH",
"520 676 OFFCURVE",
"384 718 OFFCURVE",
"295 734 QCURVE SMOOTH",
"264 740 OFFCURVE",
"234 740 QCURVE SMOOTH",
"203 740 OFFCURVE",
"176 733 QCURVE SMOOTH",
"150 727 OFFCURVE",
"118 705 OFFCURVE",
"114 678 QCURVE",
"123 671 OFFCURVE",
"141 655 QCURVE SMOOTH",
"167 632 OFFCURVE",
"166 633 QCURVE"
);
},
{
closed = 1;
nodes = (
"413 628 OFFCURVE",
"513 583 QCURVE SMOOTH",
"540 570 OFFCURVE",
"571 520 OFFCURVE",
"571 489 QCURVE SMOOTH",
"571 471 OFFCURVE",
"567 458 QCURVE SMOOTH",
"552 404 OFFCURVE",
"493 306 OFFCURVE",
"450 251 QCURVE SMOOTH",
"344 120 OFFCURVE",
"194 47 QCURVE",
"181 42 LINE",
"180 42 OFFCURVE",
"171 46 QCURVE",
"171 52 OFFCURVE",
"172 79 OFFCURVE",
"175 90 QCURVE",
"193 174 OFFCURVE",
"217 272 QCURVE SMOOTH",
"253 416 LINE SMOOTH",
"275 501 OFFCURVE",
"288 559 QCURVE SMOOTH",
"290 569 OFFCURVE",
"290 573 QCURVE SMOOTH",
"290 590 OFFCURVE",
"268 620 OFFCURVE",
"244 640 QCURVE",
"266 643 LINE SMOOTH",
"286 646 OFFCURVE",
"298 645 QCURVE"
);
}
);
userData = {
assembly = "NPUSHB[ ]	/* 24 values pushed */\01245 42 39 30 3 5 1 0 1 76 0 0 1 0 133 0 1 1 118 47 39 2 8 24 \012CALL[ ]	/* CallFunction */";
};
width = 729;
}
);
leftMetricsKey = "=H";
note = D;
rightKerningGroup = D;
rightMetricsKey = "=O";
unicode = 0044;
},
{
glyphname = E;
lastChange = "2020-12-07 02:17:38 +0000";
layers = (
{
layerId = "D6A4831D-747C-4592-93C0-305F4CD57904";
paths = (
{
closed = 1;
nodes = (
"325 376 LINE",
"350 455 OFFCURVE",
"376 535 QCURVE SMOOTH",
"386 566 OFFCURVE",
"423 566 QCURVE SMOOTH",
"428 566 OFFCURVE",
"448 561 OFFCURVE",
"452 561 QCURVE",
"507 565 OFFCURVE",
"532 566 QCURVE SMOOTH",
"640 570 OFFCURVE",
"694 579 QCURVE SMOOTH",
"729 585 OFFCURVE",
"797 600 QCURVE",
"803 602 OFFCURVE",
"817 613 OFFCURVE",
"817 617 QCURVE SMOOTH",
"817 625 OFFCURVE",
"810 642 OFFCURVE",
"804 645 QCURVE SMOOTH",
"770 662 OFFCURVE",
"748 664 QCURVE SMOOTH",
"706 666 OFFCURVE",
"621 666 QCURVE SMOOTH",
"537 666 LINE",
"494 666 LINE SMOOTH",
"456 666 OFFCURVE",
"401 682 OFFCURVE",
"377 706 QCURVE SMOOTH",
"373 710 OFFCURVE",
"360 715 OFFCURVE",
"354 715 QCURVE",
"334 717 OFFCURVE",
"324 717 QCURVE SMOOTH",
"309 717 OFFCURVE",
"288 705 OFFCURVE",
"281 688 QCURVE",
"279 681 OFFCURVE",
"253 670 OFFCURVE",
"249 668 QCURVE",
"242 665 OFFCURVE",
"226 661 QCURVE",
"204 654 LINE",
"208 646 OFFCURVE",
"217 619 OFFCURVE",
"224 614 QCURVE",
"243 599 OFFCURVE",
"243 579 QCURVE SMOOTH",
"243 566 OFFCURVE",
"234 546 QCURVE",
"231 540 OFFCURVE",
"226 519 OFFCURVE",
"224 512 QCURVE",
"173 365 LINE",
"60 358 LINE",
"64 330 OFFCURVE",
"93 302 OFFCURVE",
"120 287 QCURVE",
"153 271 OFFCURVE",
"153 237 QCURVE SMOOTH",
"153 233 OFFCURVE",
"153 194 OFFCURVE",
"158 177 QCURVE SMOOTH",
"194 54 OFFCURVE",
"323 4 QCURVE SMOOTH",
"396 -25 OFFCURVE",
"487 -25 QCURVE SMOOTH",
"529 -25 OFFCURVE",
"562 -21 QCURVE SMOOTH",
"594 -17 OFFCURVE",
"634 0 OFFCURVE",
"645 24 QCURVE",
"630 53 OFFCURVE",
"597 76 OFFCURVE",
"572 76 QCURVE",
"557 75 LINE SMOOTH",
"465 69 OFFCURVE",
"406 67 QCURVE SMOOTH",
"348 65 OFFCURVE",
"281 132 OFFCURVE",
"281 180 QCURVE SMOOTH",
"281 213 OFFCURVE",
"297 248 QCURVE",
"367 258 LINE SMOOTH",
"447 269 OFFCURVE",
"487 275 QCURVE SMOOTH",
"532 282 OFFCURVE",
"572 317 QCURVE",
"585 330 OFFCURVE",
"585 342 QCURVE SMOOTH",
"585 352 OFFCURVE",
"576 366 QCURVE SMOOTH",
"559 392 OFFCURVE",
"530 392 QCURVE SMOOTH",
"516 392 OFFCURVE",
"495 384 QCURVE SMOOTH",
"420 354 OFFCURVE",
"351 354 QCURVE SMOOTH",
"335 354 OFFCURVE",
"327 355 QCURVE",
"326 359 OFFCURVE",
"324 368 OFFCURVE",
"324 372 QCURVE"
);
}
);
userData = {
assembly = "NPUSHB[ ]	/* 14 values pushed */\01259 1 8 7 94 1 1 8 30 1 4 2 3 76 \012MPPEM[ ]	/* MeasurePixelPerEm */\012PUSHB[ ]	/* 1 value pushed */\01221 \012LT[ ]	/* LessThan */\012IF[ ]	/* If */\012NPUSHB[ ]	/* 42 values pushed */\0125 1 0 1 2 1 0 2 128 0 6 6 36 77 9 1 8 8 7 95 0 7 7 30 77 0 1 1 33 77 3 1 2 2 4 98 0 4 4 31 4 78 \012ELSE[ ]	/* Else */\012MPPEM[ ]	/* MeasurePixelPerEm */\012PUSHB[ ]	/* 1 value pushed */\01229 \012LT[ ]	/* LessThan */\012IF[ ]	/* If */\012NPUSHB[ ]	/* 40 values pushed */\0120 6 7 6 133 5 1 0 1 2 1 0 2 128 0 7 9 1 8 1 7 8 105 0 1 1 33 77 3 1 2 2 4 98 0 4 4 31 4 78 \012ELSE[ ]	/* Else */\012MPPEM[ ]	/* MeasurePixelPerEm */\012PUSHB[ ]	/* 1 value pushed */\01234 \012LT[ ]	/* LessThan */\012IF[ ]	/* If */\012NPUSHB[ ]	/* 46 values pushed */\0120 6 7 6 133 5 1 0 1 3 1 0 3 128 0 3 2 1 3 2 126 0 7 9 1 8 1 7 8 105 0 1 1 33 77 0 2 2 4 98 0 4 4 31 4 78 \012ELSE[ ]	/* Else */\012NPUSHB[ ]	/* 52 values pushed */\0120 6 7 6 133 0 5 1 0 1 5 0 128 0 0 3 1 0 3 126 0 3 2 1 3 2 126 0 7 9 1 8 1 7 8 105 0 1 1 33 77 0 2 2 4 98 0 4 4 31 4 78 \012EIF[ ]	/* EndIf */\012EIF[ ]	/* EndIf */\012EIF[ ]	/* EndIf */\012NPUSHB[ ]	/* 17 values pushed */\01298 96 93 92 81 75 69 67 27 38 33 46 34 35 10 8 28 \012CALL[ ]	/* CallFunction */";
};
width = 837;
}
);
leftMetricsKey = "=H";
note = E;
unicode = 0045;
},
{
glyphname = F;
lastChange = "2020-12-07 02:09:04 +0000";
layers = (
{
layerId = "D6A4831D-747C-4592-93C0-305F4CD57904";
paths = (
{
closed = 1;
nodes = (
"290 490 LINE",
"315 522 OFFCURVE",
"349 547 QCURVE",
"413 597 OFFCURVE",
"487 637 OFFCURVE",
"517 628 QCURVE SMOOTH",
"539 628 OFFCURVE",
"556 616 QCURVE",
"560 614 OFFCURVE",
"575 610 OFFCURVE",
"580 608 QCURVE",
"589 605 OFFCURVE",
"597 605 QCURVE SMOOTH",
"620 605 OFFCURVE",
"633 626 QCURVE",
"638 636 OFFCURVE",
"638 642 QCURVE SMOOTH",
"638 656 OFFCURVE",
"619 675 QCURVE SMOOTH",
"572 725 OFFCURVE",
"506 725 QCURVE SMOOTH",
"484 725 OFFCURVE",
"467 721 QCURVE",
"382 705 OFFCURVE",
"297 646 QCURVE SMOOTH",
"211 587 OFFCURVE",
"106 445 OFFCURVE",
"93 352 QCURVE SMOOTH",
"85 293 OFFCURVE",
"75 204 OFFCURVE",
"72 175 QCURVE SMOOTH",
"69 141 OFFCURVE",
"61 71 QCURVE",
"60 66 OFFCURVE",
"60 57 QCURVE SMOOTH",
"60 32 OFFCURVE",
"85 -5 OFFCURVE",
"110 -20 QCURVE SMOOTH",
"132 -33 OFFCURVE",
"149 -33 QCURVE SMOOTH",
"180 -33 OFFCURVE",
"186 17 QCURVE SMOOTH",
"188 31 OFFCURVE",
"188 58 QCURVE SMOOTH",
"188 98 LINE SMOOTH",
"188 130 OFFCURVE",
"193 152 OFFCURVE",
"214 161 OFFCURVE",
"246 168 QCURVE SMOOTH",
"251 169 OFFCURVE",
"260 174 OFFCURVE",
"265 175 QCURVE",
"459 228 LINE",
"552 248 LINE",
"571 254 OFFCURVE",
"589 264 OFFCURVE",
"589 276 QCURVE SMOOTH",
"589 294 OFFCURVE",
"560 319 QCURVE SMOOTH",
"553 325 OFFCURVE",
"536 325 QCURVE",
"524 324 OFFCURVE",
"500 324 QCURVE SMOOTH",
"493 324 OFFCURVE",
"449 322 OFFCURVE",
"430 319 QCURVE SMOOTH",
"387 312 OFFCURVE",
"355 305 OFFCURVE",
"334 300 QCURVE SMOOTH",
"277 288 LINE",
"270 287 OFFCURVE",
"224 286 OFFCURVE",
"214 286 QCURVE",
"220 329 OFFCURVE",
"237 391 OFFCURVE",
"266 445 QCURVE SMOOTH"
);
}
);
userData = {
assembly = "PUSHB[ ]	/* 6 values pushed */\01258 1 6 4 1 76 \012MPPEM[ ]	/* MeasurePixelPerEm */\012PUSHB[ ]	/* 1 value pushed */\01221 \012LT[ ]	/* LessThan */\012IF[ ]	/* If */\012NPUSHB[ ]	/* 39 values pushed */\0120 5 6 1 6 5 1 128 2 1 1 0 6 1 0 126 0 0 3 6 0 3 126 0 6 6 4 97 0 4 4 36 77 0 3 3 31 3 78 \012ELSE[ ]	/* Else */\012MPPEM[ ]	/* MeasurePixelPerEm */\012PUSHB[ ]	/* 1 value pushed */\01234 \012LT[ ]	/* LessThan */\012IF[ ]	/* If */\012NPUSHB[ ]	/* 37 values pushed */\0120 5 6 1 6 5 1 128 2 1 1 0 6 1 0 126 0 0 3 6 0 3 126 0 4 0 6 5 4 6 105 0 3 3 31 3 78 \012ELSE[ ]	/* Else */\012NPUSHB[ ]	/* 43 values pushed */\0120 5 6 1 6 5 1 128 2 1 1 0 6 1 0 126 0 0 3 6 0 3 126 0 3 3 132 0 4 6 6 4 89 0 4 4 6 97 0 6 4 6 81 \012EIF[ ]	/* EndIf */\012EIF[ ]	/* EndIf */\012NPUSHB[ ]	/* 14 values pushed */\01270 68 62 61 55 53 36 34 17 54 34 7 8 25 \012CALL[ ]	/* CallFunction */";
};
width = 658;
}
);
leftMetricsKey = "=H";
note = F;
rightMetricsKey = "=E";
unicode = 0046;
},
{
glyphname = G;
lastChange = "2020-12-07 01:52:42 +0000";
layers = (
{
layerId = "D6A4831D-747C-4592-93C0-305F4CD57904";
paths = (
{
closed = 1;
nodes = (
"468 676 OFFCURVE",
"427 676 QCURVE SMOOTH",
"330 676 OFFCURVE",
"134 600 OFFCURVE",
"95 515 QCURVE",
"56 410 OFFCURVE",
"50 318 OFFCURVE",
"50 261 QCURVE SMOOTH",
"50 249 OFFCURVE",
"52 219 QCURVE SMOOTH",
"55 175 OFFCURVE",
"92 106 OFFCURVE",
"127 76 QCURVE SMOOTH",
"198 17 OFFCURVE",
"285 17 QCURVE SMOOTH",
"304 17 OFFCURVE",
"313 18 QCURVE SMOOTH",
"351 21 OFFCURVE",
"419 51 OFFCURVE",
"464 78 QCURVE SMOOTH",
"521 111 OFFCURVE",
"601 183 OFFCURVE",
"624 232 QCURVE",
"635 252 OFFCURVE",
"640 267 QCURVE SMOOTH",
"650 294 OFFCURVE",
"650 319 QCURVE SMOOTH",
"650 387 OFFCURVE",
"560 402 QCURVE SMOOTH",
"495 413 OFFCURVE",
"446 410 QCURVE SMOOTH",
"386 406 OFFCURVE",
"271 393 QCURVE SMOOTH",
"236 389 LINE",
"233 389 OFFCURVE",
"225 381 OFFCURVE",
"222 379 QCURVE",
"235 334 OFFCURVE",
"282 295 OFFCURVE",
"323 295 QCURVE",
"361 297 OFFCURVE",
"380 299 QCURVE",
"409 301 LINE SMOOTH",
"475 306 OFFCURVE",
"509 308 QCURVE",
"511 298 OFFCURVE",
"511 293 QCURVE SMOOTH",
"511 280 OFFCURVE",
"500 263 OFFCURVE",
"489 253 QCURVE",
"463 232 LINE",
"457 228 OFFCURVE",
"397 179 OFFCURVE",
"367 160 QCURVE",
"314 129 OFFCURVE",
"261 120 QCURVE",
"252 118 OFFCURVE",
"236 118 QCURVE SMOOTH",
"173 118 OFFCURVE",
"161 194 QCURVE SMOOTH",
"152 253 OFFCURVE",
"152 291 QCURVE SMOOTH",
"152 365 OFFCURVE",
"188 495 OFFCURVE",
"325 563 OFFCURVE",
"448 575 OFFCURVE",
"535 576 QCURVE",
"556 577 OFFCURVE",
"585 594 OFFCURVE",
"598 613 QCURVE",
"561 663 OFFCURVE",
"506 670 QCURVE SMOOTH"
);
}
);
userData = {
assembly = "MPPEM[ ]	/* MeasurePixelPerEm */\012PUSHB[ ]	/* 1 value pushed */\01239 \012LT[ ]	/* LessThan */\012IF[ ]	/* If */\012NPUSHB[ ]	/* 15 values pushed */\0121 1 0 6 35 27 2 2 4 25 1 1 2 3 76 \012ELSE[ ]	/* Else */\012NPUSHB[ ]	/* 15 values pushed */\0121 1 0 6 35 27 2 2 4 25 1 1 3 3 76 \012EIF[ ]	/* EndIf */\012MPPEM[ ]	/* MeasurePixelPerEm */\012PUSHB[ ]	/* 1 value pushed */\01221 \012LT[ ]	/* LessThan */\012IF[ ]	/* If */\012NPUSHB[ ]	/* 32 values pushed */\0120 0 0 6 97 0 6 6 30 77 3 1 2 2 4 97 0 4 4 33 77 0 1 1 5 97 0 5 5 34 5 78 \012ELSE[ ]	/* Else */\012MPPEM[ ]	/* MeasurePixelPerEm */\012PUSHB[ ]	/* 1 value pushed */\01239 \012LT[ ]	/* LessThan */\012IF[ ]	/* If */\012NPUSHB[ ]	/* 30 values pushed */\0120 6 0 0 4 6 0 105 3 1 2 2 4 97 0 4 4 33 77 0 1 1 5 97 0 5 5 34 5 78 \012ELSE[ ]	/* Else */\012MPPEM[ ]	/* MeasurePixelPerEm */\012PUSHB[ ]	/* 1 value pushed */\01249 \012LT[ ]	/* LessThan */\012IF[ ]	/* If */\012NPUSHB[ ]	/* 37 values pushed */\0120 3 2 1 2 3 1 128 0 6 0 0 4 6 0 105 0 2 2 4 97 0 4 4 33 77 0 1 1 5 97 0 5 5 34 5 78 \012ELSE[ ]	/* Else */\012NPUSHB[ ]	/* 35 values pushed */\0120 3 2 1 2 3 1 128 0 6 0 0 4 6 0 105 0 4 0 2 3 4 2 105 0 1 1 5 97 0 5 5 34 5 78 \012EIF[ ]	/* EndIf */\012EIF[ ]	/* EndIf */\012EIF[ ]	/* EndIf */\012NPUSHB[ ]	/* 10 values pushed */\01243 46 39 33 45 40 35 7 8 29 \012CALL[ ]	/* CallFunction */";
};
width = 700;
}
);
leftMetricsKey = "=O";
note = G;
unicode = 0047;
},
{
glyphname = H;
lastChange = "2020-12-07 01:11:18 +0000";
layers = (
{
layerId = "D6A4831D-747C-4592-93C0-305F4CD57904";
paths = (
{
closed = 1;
nodes = (
"434 323 LINE",
"416 224 OFFCURVE",
"405 160 QCURVE SMOOTH",
"403 149 OFFCURVE",
"403 128 QCURVE SMOOTH",
"403 79 OFFCURVE",
"427 26 QCURVE",
"434 -12 OFFCURVE",
"467 -9 QCURVE",
"480 -9 OFFCURVE",
"492 6 OFFCURVE",
"493 31 OFFCURVE",
"493 35 QCURVE",
"497 86 OFFCURVE",
"518 180 OFFCURVE",
"542 258 QCURVE SMOOTH",
"554 297 LINE SMOOTH",
"564 330 OFFCURVE",
"578 348 OFFCURVE",
"600 348 QCURVE SMOOTH",
"616 348 OFFCURVE",
"626 347 QCURVE SMOOTH",
"653 344 OFFCURVE",
"693 356 OFFCURVE",
"705 375 QCURVE",
"701 406 OFFCURVE",
"667 430 OFFCURVE",
"636 439 QCURVE",
"632 440 OFFCURVE",
"610 447 OFFCURVE",
"602 452 QCURVE",
"619 497 OFFCURVE",
"619 526 QCURVE SMOOTH",
"619 556 OFFCURVE",
"588 603 OFFCURVE",
"567 622 QCURVE SMOOTH",
"545 642 OFFCURVE",
"516 604 QCURVE",
"508 570 LINE",
"474 465 LINE",
"347 476 LINE",
"294 480 LINE",
"304 533 LINE",
"310 555 LINE",
"319 595 LINE",
"321 607 OFFCURVE",
"321 613 QCURVE SMOOTH",
"321 653 OFFCURVE",
"284 703 OFFCURVE",
"240 702 QCURVE",
"231 683 OFFCURVE",
"229 676 QCURVE SMOOTH",
"218 640 LINE SMOOTH",
"195 564 OFFCURVE",
"176 498 QCURVE SMOOTH",
"169 473 OFFCURVE",
"150 445 OFFCURVE",
"129 440 QCURVE",
"123 439 OFFCURVE",
"108 429 OFFCURVE",
"104 427 QCURVE",
"60 403 OFFCURVE",
"60 375 QCURVE SMOOTH",
"60 351 OFFCURVE",
"94 322 QCURVE SMOOTH",
"117 302 OFFCURVE",
"117 280 QCURVE SMOOTH",
"117 272 OFFCURVE",
"114 263 QCURVE",
"111 255 OFFCURVE",
"107 232 OFFCURVE",
"105 226 QCURVE",
"104 211 OFFCURVE",
"99 196 QCURVE",
"96 184 OFFCURVE",
"96 175 QCURVE SMOOTH",
"96 154 OFFCURVE",
"115 121 OFFCURVE",
"135 94 QCURVE",
"144 83 OFFCURVE",
"139 83 QCURVE SMOOTH",
"149 83 OFFCURVE",
"168 92 OFFCURVE",
"174 99 QCURVE",
"184 112 OFFCURVE",
"189 130 QCURVE SMOOTH",
"200 166 LINE SMOOTH",
"210 257 OFFCURVE",
"237 299 QCURVE SMOOTH",
"269 349 OFFCURVE",
"291 353 QCURVE",
"331 359 OFFCURVE",
"405 364 QCURVE",
"416 364 OFFCURVE",
"440 366 QCURVE"
);
}
);
userData = {
assembly = "NPUSHB[ ]	/* 19 values pushed */\01296 71 65 54 52 47 6 0 3 22 1 1 4 83 1 5 1 3 76 \012MPPEM[ ]	/* MeasurePixelPerEm */\012PUSHB[ ]	/* 1 value pushed */\01221 \012LT[ ]	/* LessThan */\012IF[ ]	/* If */\012NPUSHB[ ]	/* 38 values pushed */\0120 0 3 4 3 0 4 128 0 4 1 3 4 1 126 0 1 5 3 1 5 126 0 2 2 36 77 0 3 3 32 77 0 5 5 31 5 78 \012ELSE[ ]	/* Else */\012NPUSHB[ ]	/* 38 values pushed */\0120 2 3 2 133 0 0 3 4 3 0 4 128 0 4 1 3 4 1 126 0 1 5 3 1 5 126 0 3 3 32 77 0 5 5 31 5 78 \012EIF[ ]	/* EndIf */\012NPUSHB[ ]	/* 13 values pushed */\01287 86 77 75 59 57 45 44 42 32 6 8 24 \012CALL[ ]	/* CallFunction */";
};
width = 755;
}
);
leftKerningGroup = H;
note = H;
rightKerningGroup = H;
unicode = 0048;
},
{
glyphname = I;
lastChange = "2020-12-07 01:56:50 +0000";
layers = (
{
layerId = "D6A4831D-747C-4592-93C0-305F4CD57904";
paths = (
{
closed = 1;
nodes = (
"240 36 OFFCURVE",
"283 52 QCURVE SMOOTH",
"348 76 OFFCURVE",
"438 101 OFFCURVE",
"485 107 QCURVE SMOOTH",
"507 109 OFFCURVE",
"567 128 QCURVE SMOOTH",
"586 134 LINE SMOOTH",
"589 135 OFFCURVE",
"614 141 OFFCURVE",
"639 153 OFFCURVE",
"649 166 QCURVE",
"640 194 OFFCURVE",
"596 212 OFFCURVE",
"563 212 QCURVE SMOOTH",
"536 213 OFFCURVE",
"482 206 QCURVE SMOOTH",
"458 203 OFFCURVE",
"390 194 QCURVE",
"402 253 LINE SMOOTH",
"419 334 OFFCURVE",
"428 382 QCURVE SMOOTH",
"438 437 OFFCURVE",
"451 531 QCURVE SMOOTH",
"456 567 LINE",
"527 559 LINE",
"549 558 LINE SMOOTH",
"575 557 OFFCURVE",
"588 556 QCURVE SMOOTH",
"605 555 OFFCURVE",
"613 557 QCURVE",
"620 557 OFFCURVE",
"637 573 OFFCURVE",
"642 577 QCURVE",
"638 582 OFFCURVE",
"625 599 OFFCURVE",
"619 604 QCURVE",
"616 607 OFFCURVE",
"603 609 OFFCURVE",
"601 609 QCURVE",
"538 627 LINE SMOOTH",
"517 633 OFFCURVE",
"454 650 OFFCURVE",
"412 663 QCURVE SMOOTH",
"367 677 OFFCURVE",
"321 676 QCURVE SMOOTH",
"220 675 OFFCURVE",
"131 609 QCURVE SMOOTH",
"108 592 OFFCURVE",
"97 576 QCURVE SMOOTH",
"89 565 OFFCURVE",
"89 553 QCURVE SMOOTH",
"89 544 OFFCURVE",
"100 528 OFFCURVE",
"109 524 QCURVE",
"112 523 OFFCURVE",
"145 508 OFFCURVE",
"160 508 QCURVE SMOOTH",
"174 508 OFFCURVE",
"187 515 QCURVE SMOOTH",
"224 535 OFFCURVE",
"253 547 QCURVE",
"277 559 LINE",
"282 555 OFFCURVE",
"300 540 OFFCURVE",
"307 537 QCURVE",
"328 529 OFFCURVE",
"328 508 QCURVE SMOOTH",
"328 502 OFFCURVE",
"327 499 QCURVE",
"323 468 LINE SMOOTH",
"310 367 OFFCURVE",
"289 248 OFFCURVE",
"271 187 QCURVE",
"265 163 OFFCURVE",
"240 155 QCURVE SMOOTH",
"182 137 OFFCURVE",
"127 115 QCURVE SMOOTH",
"122 113 OFFCURVE",
"94 101 OFFCURVE",
"66 80 OFFCURVE",
"60 58 QCURVE",
"104 16 OFFCURVE",
"152 16 QCURVE SMOOTH",
"170 16 OFFCURVE",
"191 22 QCURVE SMOOTH"
);
}
);
userData = {
assembly = "NPUSHB[ ]	/* 18 values pushed */\01251 22 2 3 2 73 66 3 3 0 5 2 76 17 1 1 1 75 \012MPPEM[ ]	/* MeasurePixelPerEm */\012PUSHB[ ]	/* 1 value pushed */\01221 \012LT[ ]	/* LessThan */\012IF[ ]	/* If */\012NPUSHB[ ]	/* 34 values pushed */\0124 1 3 2 1 2 3 1 128 0 1 5 2 1 5 126 0 5 0 2 5 0 126 0 2 2 30 77 0 0 0 34 0 78 \012ELSE[ ]	/* Else */\012NPUSHB[ ]	/* 27 values pushed */\0120 2 3 2 133 4 1 3 1 3 133 0 1 5 1 133 0 5 0 5 133 0 0 0 34 0 78 \012EIF[ ]	/* EndIf */\012NPUSHB[ ]	/* 14 values pushed */\01271 69 59 58 57 53 40 38 28 26 32 6 8 23 \012CALL[ ]	/* CallFunction */";
};
width = 699;
}
);
leftKerningGroup = I;
leftMetricsKey = "=H";
note = I;
rightKerningGroup = I;
rightMetricsKey = "=H";
unicode = 0049;
},
{
glyphname = J;
lastChange = "2020-12-07 01:11:19 +0000";
layers = (
{
layerId = "D6A4831D-747C-4592-93C0-305F4CD57904";
paths = (
{
closed = 1;
nodes = (
"178 9 OFFCURVE",
"242 9 QCURVE SMOOTH",
"288 9 OFFCURVE",
"340 20 QCURVE SMOOTH",
"407 33 OFFCURVE",
"494 113 OFFCURVE",
"520 178 QCURVE SMOOTH",
"543 237 OFFCURVE",
"557 360 OFFCURVE",
"559 449 QCURVE SMOOTH",
"560 477 LINE",
"560 512 LINE SMOOTH",
"560 569 OFFCURVE",
"559 597 QCURVE",
"559 654 LINE",
"526 683 OFFCURVE",
"485 683 QCURVE SMOOTH",
"465 683 OFFCURVE",
"435 676 QCURVE",
"425 673 OFFCURVE",
"404 671 QCURVE SMOOTH",
"381 669 OFFCURVE",
"365 664 QCURVE",
"298 639 OFFCURVE",
"223 603 QCURVE SMOOTH",
"213 598 OFFCURVE",
"199 580 OFFCURVE",
"199 570 QCURVE SMOOTH",
"199 563 OFFCURVE",
"202 557 QCURVE",
"206 548 OFFCURVE",
"229 533 OFFCURVE",
"240 530 QCURVE SMOOTH",
"253 526 OFFCURVE",
"269 526 QCURVE SMOOTH",
"295 526 OFFCURVE",
"318 539 QCURVE SMOOTH",
"352 559 OFFCURVE",
"395 577 OFFCURVE",
"423 578 QCURVE",
"435 491 OFFCURVE",
"435 426 QCURVE SMOOTH",
"435 284 OFFCURVE",
"378 178 QCURVE SMOOTH",
"356 137 OFFCURVE",
"267 89 OFFCURVE",
"216 89 QCURVE SMOOTH",
"184 89 OFFCURVE",
"155 99 QCURVE",
"150 101 OFFCURVE",
"119 111 OFFCURVE",
"106 111 QCURVE SMOOTH",
"79 111 OFFCURVE",
"60 87 QCURVE",
"83 52 OFFCURVE",
"122 34 QCURVE SMOOTH"
);
}
);
userData = {
assembly = "NPUSHB[ ]	/* 10 values pushed */\01240 1 2 4 1 1 5 1 2 76 \012MPPEM[ ]	/* MeasurePixelPerEm */\012PUSHB[ ]	/* 1 value pushed */\01221 \012LT[ ]	/* LessThan */\012IF[ ]	/* If */\012NPUSHB[ ]	/* 38 values pushed */\0120 2 4 3 4 2 3 128 0 3 0 4 3 0 126 0 0 1 4 0 1 126 0 4 4 30 77 0 1 1 5 97 0 5 5 40 5 78 \012ELSE[ ]	/* Else */\012NPUSHB[ ]	/* 31 values pushed */\0120 4 2 4 133 0 2 3 2 133 0 3 0 3 133 0 0 1 0 133 0 1 1 5 97 0 5 5 40 5 78 \012EIF[ ]	/* EndIf */\012NPUSHB[ ]	/* 11 values pushed */\01254 52 39 37 35 22 35 34 6 8 26 \012CALL[ ]	/* CallFunction */";
};
width = 610;
}
);
note = J;
unicode = 004A;
},
{
glyphname = K;
lastChange = "2020-12-07 01:55:22 +0000";
layers = (
{
layerId = "D6A4831D-747C-4592-93C0-305F4CD57904";
paths = (
{
closed = 1;
nodes = (
"231 487 OFFCURVE",
"235 499 QCURVE SMOOTH",
"251 543 OFFCURVE",
"258 565 QCURVE SMOOTH",
"292 662 LINE SMOOTH",
"298 679 OFFCURVE",
"298 688 QCURVE SMOOTH",
"298 697 OFFCURVE",
"287 709 OFFCURVE",
"272 716 QCURVE SMOOTH",
"241 731 OFFCURVE",
"226 731 QCURVE SMOOTH",
"216 731 OFFCURVE",
"201 719 OFFCURVE",
"194 706 QCURVE SMOOTH",
"190 698 OFFCURVE",
"148 617 OFFCURVE",
"136 580 QCURVE SMOOTH",
"110 495 OFFCURVE",
"90 394 QCURVE SMOOTH",
"75 323 OFFCURVE",
"60 228 OFFCURVE",
"60 181 QCURVE SMOOTH",
"60 150 OFFCURVE",
"65 108 QCURVE",
"69 57 LINE",
"70 22 OFFCURVE",
"79 -8 OFFCURVE",
"106 -26 OFFCURVE",
"142 -39 QCURVE",
"158 -29 OFFCURVE",
"167 2 OFFCURVE",
"167 25 QCURVE",
"166 124 LINE",
"166 157 OFFCURVE",
"167 173 QCURVE SMOOTH",
"168 187 OFFCURVE",
"178 216 OFFCURVE",
"187 224 QCURVE",
"215 251 OFFCURVE",
"270 295 QCURVE SMOOTH",
"299 319 LINE",
"323 285 OFFCURVE",
"325 281 QCURVE",
"355 241 OFFCURVE",
"375 209 QCURVE SMOOTH",
"414 145 OFFCURVE",
"522 38 OFFCURVE",
"591 -13 QCURVE",
"602 -22 OFFCURVE",
"614 -22 QCURVE SMOOTH",
"627 -22 OFFCURVE",
"644 -8 QCURVE",
"627 11 LINE SMOOTH",
"569 72 OFFCURVE",
"474 208 OFFCURVE",
"408 314 QCURVE SMOOTH",
"390 342 LINE SMOOTH",
"373 370 OFFCURVE",
"373 382 QCURVE SMOOTH",
"373 391 OFFCURVE",
"386 408 OFFCURVE",
"400 420 QCURVE SMOOTH",
"423 441 OFFCURVE",
"471 479 QCURVE SMOOTH",
"499 502 LINE",
"609 595 LINE",
"625 611 OFFCURVE",
"625 624 QCURVE SMOOTH",
"625 633 OFFCURVE",
"619 642 QCURVE SMOOTH",
"612 653 OFFCURVE",
"579 666 OFFCURVE",
"561 666 QCURVE SMOOTH",
"539 666 OFFCURVE",
"528 658 QCURVE SMOOTH",
"309 503 LINE SMOOTH",
"267 473 OFFCURVE",
"230 445 QCURVE",
"228 446 OFFCURVE",
"224 448 OFFCURVE",
"222 450 QCURVE"
);
}
);
userData = {
assembly = "NPUSHB[ ]	/* 12 values pushed */\01255 45 39 3 1 0 1 76 51 1 1 73 \012MPPEM[ ]	/* MeasurePixelPerEm */\012PUSHB[ ]	/* 1 value pushed */\01221 \012LT[ ]	/* LessThan */\012IF[ ]	/* If */\012NPUSHB[ ]	/* 16 values pushed */\0120 2 0 2 133 0 0 0 30 77 0 1 1 31 1 78 \012ELSE[ ]	/* Else */\012NPUSHB[ ]	/* 16 values pushed */\0120 2 0 2 133 0 0 1 0 133 0 1 1 31 1 78 \012EIF[ ]	/* EndIf */\012PUSHB[ ]	/* 8 values pushed */\01270 68 31 29 38 3 8 23 \012CALL[ ]	/* CallFunction */";
};
width = 694;
}
);
leftMetricsKey = "=H";
note = K;
unicode = 004B;
},
{
glyphname = L;
lastChange = "2020-12-07 01:55:22 +0000";
layers = (
{
layerId = "D6A4831D-747C-4592-93C0-305F4CD57904";
paths = (
{
closed = 1;
nodes = (
"241 28 OFFCURVE",
"232 28 QCURVE SMOOTH",
"187 28 OFFCURVE",
"187 78 QCURVE SMOOTH",
"187 105 OFFCURVE",
"193 130 QCURVE SMOOTH",
"239 328 OFFCURVE",
"323 541 QCURVE SMOOTH",
"346 597 OFFCURVE",
"354 630 QCURVE SMOOTH",
"358 645 OFFCURVE",
"358 660 QCURVE SMOOTH",
"358 717 OFFCURVE",
"294 722 QCURVE",
"289 722 OFFCURVE",
"279 724 OFFCURVE",
"274 724 QCURVE",
"249 726 OFFCURVE",
"223 707 OFFCURVE",
"216 684 QCURVE SMOOTH",
"189 595 OFFCURVE",
"177 550 QCURVE SMOOTH",
"120 362 OFFCURVE",
"98 283 QCURVE SMOOTH",
"78 212 OFFCURVE",
"61 109 QCURVE",
"60 104 OFFCURVE",
"60 93 QCURVE SMOOTH",
"60 67 OFFCURVE",
"86 22 OFFCURVE",
"110 1 QCURVE SMOOTH",
"173 -58 OFFCURVE",
"272 -58 QCURVE SMOOTH",
"300 -58 OFFCURVE",
"355 -47 OFFCURVE",
"390 -37 QCURVE SMOOTH",
"418 -29 LINE SMOOTH",
"422 -28 OFFCURVE",
"429 -18 OFFCURVE",
"432 -16 QCURVE",
"457 3 OFFCURVE",
"474 19 OFFCURVE",
"474 28 QCURVE SMOOTH",
"474 35 OFFCURVE",
"455 56 OFFCURVE",
"442 69 QCURVE",
"362 52 LINE SMOOTH",
"274 34 OFFCURVE",
"246 29 QCURVE SMOOTH"
);
}
);
userData = {
assembly = "PUSHB[ ]	/* 4 values pushed */\0122 1 1 74 \012MPPEM[ ]	/* MeasurePixelPerEm */\012PUSHB[ ]	/* 1 value pushed */\01236 \012LT[ ]	/* LessThan */\012IF[ ]	/* If */\012NPUSHB[ ]	/* 11 values pushed */\0120 1 1 0 97 0 0 0 31 0 78 \012ELSE[ ]	/* Else */\012NPUSHB[ ]	/* 16 values pushed */\0120 1 0 0 1 89 0 1 1 0 97 0 0 1 0 81 \012EIF[ ]	/* EndIf */\012PUSHB[ ]	/* 6 values pushed */\01247 45 46 2 8 23 \012CALL[ ]	/* CallFunction */";
};
width = 524;
}
);
leftKerningGroup = L;
leftMetricsKey = "=H";
note = L;
rightKerningGroup = A;
unicode = 004C;
},
{
glyphname = M;
lastChange = "2020-12-07 01:56:50 +0000";
layers = (
{
layerId = "D6A4831D-747C-4592-93C0-305F4CD57904";
paths = (
{
closed = 1;
nodes = (
"388 627 OFFCURVE",
"381 627 QCURVE SMOOTH",
"341 627 OFFCURVE",
"317 592 QCURVE SMOOTH",
"285 545 OFFCURVE",
"222 462 QCURVE SMOOTH",
"191 421 LINE SMOOTH",
"108 310 OFFCURVE",
"66 186 QCURVE SMOOTH",
"60 170 OFFCURVE",
"60 154 QCURVE SMOOTH",
"60 124 OFFCURVE",
"87 100 QCURVE",
"122 66 OFFCURVE",
"141 66 QCURVE SMOOTH",
"153 66 OFFCURVE",
"171 95 OFFCURVE",
"181 129 QCURVE SMOOTH",
"233 291 OFFCURVE",
"379 485 QCURVE",
"392 459 LINE SMOOTH",
"396 451 OFFCURVE",
"425 389 OFFCURVE",
"430 371 QCURVE SMOOTH",
"458 275 OFFCURVE",
"477 186 QCURVE SMOOTH",
"489 128 OFFCURVE",
"543 95 QCURVE SMOOTH",
"562 84 OFFCURVE",
"574 84 QCURVE SMOOTH",
"587 84 OFFCURVE",
"606 108 OFFCURVE",
"616 133 QCURVE",
"627 165 OFFCURVE",
"697 283 OFFCURVE",
"770 392 OFFCURVE",
"779 400 QCURVE",
"777 321 LINE",
"776 266 LINE SMOOTH",
"774 190 OFFCURVE",
"774 153 QCURVE SMOOTH",
"774 117 OFFCURVE",
"775 100 QCURVE SMOOTH",
"777 67 OFFCURVE",
"811 30 OFFCURVE",
"843 23 QCURVE SMOOTH",
"855 20 OFFCURVE",
"861 20 QCURVE SMOOTH",
"869 20 OFFCURVE",
"875 30 OFFCURVE",
"875 56 OFFCURVE",
"876 66 QCURVE",
"878 98 LINE",
"878 133 OFFCURVE",
"882 161 QCURVE SMOOTH",
"896 283 OFFCURVE",
"928 527 QCURVE SMOOTH",
"930 545 OFFCURVE",
"935 572 OFFCURVE",
"937 581 QCURVE SMOOTH",
"938 586 OFFCURVE",
"938 596 QCURVE SMOOTH",
"938 607 OFFCURVE",
"936 611 QCURVE",
"927 632 OFFCURVE",
"868 672 OFFCURVE",
"844 672 QCURVE SMOOTH",
"837 672 OFFCURVE",
"834 671 QCURVE",
"816 667 OFFCURVE",
"809 656 QCURVE SMOOTH",
"753 574 OFFCURVE",
"705 501 QCURVE SMOOTH",
"693 484 OFFCURVE",
"662 425 QCURVE SMOOTH",
"635 373 OFFCURVE",
"599 312 OFFCURVE",
"578 289 QCURVE",
"546 356 LINE SMOOTH",
"491 474 OFFCURVE",
"415 623 OFFCURVE",
"404 625 QCURVE"
);
}
);
userData = {
assembly = "NPUSHB[ ]	/* 14 values pushed */\01261 44 19 3 4 2 4 1 76 29 1 3 1 75 \012MPPEM[ ]	/* MeasurePixelPerEm */\012PUSHB[ ]	/* 1 value pushed */\01221 \012LT[ ]	/* LessThan */\012IF[ ]	/* If */\012NPUSHB[ ]	/* 31 values pushed */\0120 2 4 3 4 2 3 128 0 3 1 4 3 1 126 0 0 0 30 77 0 4 4 32 77 0 1 1 34 1 78 \012ELSE[ ]	/* Else */\012NPUSHB[ ]	/* 31 values pushed */\0120 0 4 0 133 0 2 4 3 4 2 3 128 0 3 1 4 3 1 126 0 4 4 32 77 0 1 1 34 1 78 \012EIF[ ]	/* EndIf */\012NPUSHB[ ]	/* 12 values pushed */\01279 78 67 65 52 50 34 32 30 5 8 23 \012CALL[ ]	/* CallFunction */";
};
width = 988;
}
);
leftMetricsKey = "=H";
note = M;
rightKerningGroup = A;
rightMetricsKey = "=H";
unicode = 004D;
},
{
glyphname = N;
lastChange = "2020-12-07 01:56:50 +0000";
layers = (
{
layerId = "D6A4831D-747C-4592-93C0-305F4CD57904";
paths = (
{
closed = 1;
nodes = (
"130 483 OFFCURVE",
"123 456 OFFCURVE",
"122 448 QCURVE",
"95 286 OFFCURVE",
"82 194 QCURVE",
"79 178 OFFCURVE",
"77 146 QCURVE SMOOTH",
"74 94 OFFCURVE",
"65 70 QCURVE SMOOTH",
"60 56 OFFCURVE",
"60 38 QCURVE SMOOTH",
"60 18 OFFCURVE",
"67 -8 QCURVE SMOOTH",
"71 -23 OFFCURVE",
"114 -46 OFFCURVE",
"129 -42 QCURVE SMOOTH",
"158 -34 OFFCURVE",
"197 10 OFFCURVE",
"198 40 QCURVE",
"201 81 OFFCURVE",
"203 142 OFFCURVE",
"204 162 QCURVE SMOOTH",
"210 283 LINE SMOOTH",
"213 324 OFFCURVE",
"228 396 QCURVE SMOOTH",
"237 439 LINE",
"292 369 OFFCURVE",
"319 333 QCURVE SMOOTH",
"339 306 LINE SMOOTH",
"384 245 OFFCURVE",
"414 209 QCURVE SMOOTH",
"443 174 OFFCURVE",
"483 176 QCURVE SMOOTH",
"523 178 OFFCURVE",
"569 217 OFFCURVE",
"577 257 QCURVE SMOOTH",
"582 283 OFFCURVE",
"585 296 QCURVE",
"605 391 OFFCURVE",
"637 516 OFFCURVE",
"661 577 QCURVE",
"671 595 OFFCURVE",
"680 631 QCURVE SMOOTH",
"686 656 OFFCURVE",
"667 671 QCURVE",
"619 678 LINE",
"576 619 OFFCURVE",
"523 488 OFFCURVE",
"491 383 QCURVE SMOOTH",
"474 328 LINE",
"449 364 OFFCURVE",
"423 397 QCURVE",
"307 558 LINE",
"303 563 OFFCURVE",
"299 580 OFFCURVE",
"297 586 QCURVE SMOOTH",
"274 623 OFFCURVE",
"259 623 QCURVE SMOOTH",
"256 623 OFFCURVE",
"242 621 QCURVE",
"181 616 LINE",
"154 588 OFFCURVE",
"125 529 OFFCURVE",
"129 493 QCURVE SMOOTH"
);
}
);
userData = {
assembly = "NPUSHB[ ]	/* 11 values pushed */\01219 1 0 74 57 45 38 14 4 0 73 \012MPPEM[ ]	/* MeasurePixelPerEm */\012PUSHB[ ]	/* 1 value pushed */\01239 \012LT[ ]	/* LessThan */\012IF[ ]	/* If */\012PUSHB[ ]	/* 6 values pushed */\0120 0 0 32 0 78 \012ELSE[ ]	/* Else */\012PUSHB[ ]	/* 4 values pushed */\0120 0 0 118 \012EIF[ ]	/* EndIf */\012PUSHB[ ]	/* 4 values pushed */\01236 1 8 23 \012CALL[ ]	/* CallFunction */";
};
width = 731;
}
);
leftKerningGroup = N;
leftMetricsKey = "=H";
note = N;
rightKerningGroup = N;
rightMetricsKey = "=H";
unicode = 004E;
},
{
glyphname = O;
lastChange = "2020-12-07 01:50:49 +0000";
layers = (
{
layerId = "D6A4831D-747C-4592-93C0-305F4CD57904";
paths = (
{
closed = 1;
nodes = (
"120 494 LINE",
"166 506 OFFCURVE",
"188 513 QCURVE SMOOTH",
"302 546 LINE SMOOTH",
"309 548 OFFCURVE",
"322 552 OFFCURVE",
"328 554 QCURVE SMOOTH",
"385 573 OFFCURVE",
"392 575 QCURVE SMOOTH",
"413 581 OFFCURVE",
"433 581 QCURVE SMOOTH",
"489 581 OFFCURVE",
"524 533 QCURVE SMOOTH",
"545 503 OFFCURVE",
"567 455 OFFCURVE",
"567 430 QCURVE SMOOTH",
"567 400 OFFCURVE",
"548 368 QCURVE SMOOTH",
"520 322 OFFCURVE",
"446 242 OFFCURVE",
"396 199 QCURVE SMOOTH",
"369 175 OFFCURVE",
"302 151 OFFCURVE",
"255 142 QCURVE SMOOTH",
"250 141 OFFCURVE",
"242 141 QCURVE SMOOTH",
"226 141 OFFCURVE",
"205 157 OFFCURVE",
"203 172 QCURVE",
"194 224 OFFCURVE",
"194 261 QCURVE SMOOTH",
"194 278 OFFCURVE",
"195 287 QCURVE SMOOTH",
"198 311 OFFCURVE",
"198 325 QCURVE SMOOTH",
"198 345 OFFCURVE",
"179 367 OFFCURVE",
"148 384 QCURVE",
"126 395 LINE",
"103 406 LINE",
"99 403 OFFCURVE",
"86 393 OFFCURVE",
"84 388 QCURVE",
"50 327 OFFCURVE",
"50 266 QCURVE SMOOTH",
"50 186 OFFCURVE",
"158 61 OFFCURVE",
"245 42 QCURVE SMOOTH",
"271 36 OFFCURVE",
"297 36 QCURVE SMOOTH",
"384 36 OFFCURVE",
"479 99 QCURVE SMOOTH",
"535 136 OFFCURVE",
"625 240 OFFCURVE",
"667 309 QCURVE SMOOTH",
"699 361 OFFCURVE",
"699 411 QCURVE SMOOTH",
"699 475 OFFCURVE",
"649 528 QCURVE",
"645 533 OFFCURVE",
"622 553 QCURVE",
"607 565 OFFCURVE",
"594 578 QCURVE SMOOTH",
"557 615 OFFCURVE",
"443 656 OFFCURVE",
"382 656 QCURVE SMOOTH",
"296 656 OFFCURVE",
"231 617 QCURVE SMOOTH",
"149 568 OFFCURVE",
"110 503 QCURVE"
);
}
);
userData = {
assembly = "PUSHB[ ]	/* 6 values pushed */\01269 1 2 3 1 76 \012MPPEM[ ]	/* MeasurePixelPerEm */\012PUSHB[ ]	/* 1 value pushed */\01221 \012LT[ ]	/* LessThan */\012IF[ ]	/* If */\012NPUSHB[ ]	/* 24 values pushed */\0120 2 3 1 3 2 1 128 0 3 3 0 97 0 0 0 30 77 0 1 1 34 1 78 \012ELSE[ ]	/* Else */\012MPPEM[ ]	/* MeasurePixelPerEm */\012PUSHB[ ]	/* 1 value pushed */\01224 \012LT[ ]	/* LessThan */\012IF[ ]	/* If */\012NPUSHB[ ]	/* 24 values pushed */\0120 2 3 1 3 2 1 128 0 3 3 0 97 0 0 0 32 77 0 1 1 34 1 78 \012ELSE[ ]	/* Else */\012MPPEM[ ]	/* MeasurePixelPerEm */\012PUSHB[ ]	/* 1 value pushed */\01226 \012LT[ ]	/* LessThan */\012IF[ ]	/* If */\012NPUSHB[ ]	/* 22 values pushed */\0120 2 3 1 3 2 1 128 0 0 0 3 2 0 3 105 0 1 1 34 1 78 \012ELSE[ ]	/* Else */\012NPUSHB[ ]	/* 28 values pushed */\0120 2 3 1 3 2 1 128 0 1 1 132 0 0 3 3 0 89 0 0 0 3 97 0 3 0 3 81 \012EIF[ ]	/* EndIf */\012EIF[ ]	/* EndIf */\012EIF[ ]	/* EndIf */\012NPUSHB[ ]	/* 9 values pushed */\01259 57 43 42 46 34 4 8 24 \012CALL[ ]	/* CallFunction */";
};
width = 739;
}
);
leftKerningGroup = O;
note = O;
rightKerningGroup = O;
unicode = 004F;
},
{
glyphname = P;
lastChange = "2020-12-07 02:11:21 +0000";
layers = (
{
layerId = "D6A4831D-747C-4592-93C0-305F4CD57904";
paths = (
{
closed = 1;
nodes = (
"526 328 OFFCURVE",
"617 433 QCURVE SMOOTH",
"636 455 OFFCURVE",
"644 472 QCURVE",
"659 501 OFFCURVE",
"659 525 QCURVE SMOOTH",
"659 562 OFFCURVE",
"620 594 QCURVE SMOOTH",
"615 598 OFFCURVE",
"581 627 OFFCURVE",
"564 634 QCURVE SMOOTH",
"423 692 OFFCURVE",
"286 692 QCURVE SMOOTH",
"251 692 OFFCURVE",
"206 687 QCURVE",
"175 682 OFFCURVE",
"117 652 OFFCURVE",
"96 628 QCURVE SMOOTH",
"68 595 OFFCURVE",
"66 563 QCURVE SMOOTH",
"65 544 OFFCURVE",
"78 518 QCURVE",
"130 509 LINE",
"124 479 OFFCURVE",
"110 421 QCURVE SMOOTH",
"106 405 OFFCURVE",
"83 301 OFFCURVE",
"77 258 QCURVE SMOOTH",
"68 199 OFFCURVE",
"62 81 QCURVE SMOOTH",
"60 41 LINE SMOOTH",
"59 18 OFFCURVE",
"74 0 OFFCURVE",
"93 0 QCURVE",
"106 1 LINE SMOOTH",
"123 2 OFFCURVE",
"141 21 OFFCURVE",
"145 37 QCURVE",
"154 82 LINE SMOOTH",
"157 97 OFFCURVE",
"165 142 OFFCURVE",
"172 172 QCURVE SMOOTH",
"256 561 LINE SMOOTH",
"265 601 OFFCURVE",
"300 598 QCURVE SMOOTH",
"408 589 OFFCURVE",
"495 582 QCURVE",
"502 581 OFFCURVE",
"523 572 OFFCURVE",
"526 571 QCURVE",
"544 562 LINE",
"530 538 LINE",
"515 510 OFFCURVE",
"504 501 QCURVE",
"447 449 OFFCURVE",
"370 389 QCURVE SMOOTH",
"347 371 OFFCURVE",
"299 340 QCURVE SMOOTH",
"271 322 LINE",
"284 296 OFFCURVE",
"323 266 OFFCURVE",
"345 266 QCURVE SMOOTH",
"357 266 OFFCURVE",
"376 273 QCURVE SMOOTH"
);
}
);
userData = {
assembly = "PUSHB[ ]	/* 8 values pushed */\01240 12 4 3 0 1 1 76 \012MPPEM[ ]	/* MeasurePixelPerEm */\012PUSHB[ ]	/* 1 value pushed */\01221 \012LT[ ]	/* LessThan */\012IF[ ]	/* If */\012NPUSHB[ ]	/* 25 values pushed */\0120 0 1 2 1 0 2 128 0 1 1 4 97 0 4 4 36 77 3 1 2 2 40 2 78 \012ELSE[ ]	/* Else */\012MPPEM[ ]	/* MeasurePixelPerEm */\012PUSHB[ ]	/* 1 value pushed */\01249 \012LT[ ]	/* LessThan */\012IF[ ]	/* If */\012NPUSHB[ ]	/* 23 values pushed */\0120 0 1 2 1 0 2 128 0 4 0 1 0 4 1 105 3 1 2 2 40 2 78 \012ELSE[ ]	/* Else */\012NPUSHB[ ]	/* 29 values pushed */\0120 0 1 2 1 0 2 128 3 1 2 2 132 0 4 1 1 4 89 0 4 4 1 97 0 1 4 1 81 \012EIF[ ]	/* EndIf */\012EIF[ ]	/* EndIf */\012NPUSHB[ ]	/* 9 values pushed */\01251 49 17 25 31 32 5 8 26 \012CALL[ ]	/* CallFunction */";
};
width = 689;
}
);
leftKerningGroup = P;
leftMetricsKey = "=H";
note = P;
rightKerningGroup = P;
unicode = 0050;
},
{
glyphname = Q;
lastChange = "2020-12-07 01:18:45 +0000";
layers = (
{
layerId = "D6A4831D-747C-4592-93C0-305F4CD57904";
paths = (
{
closed = 1;
nodes = (
"438 131 OFFCURVE",
"484 210 QCURVE SMOOTH",
"525 280 OFFCURVE",
"526 346 QCURVE",
"526 398 OFFCURVE",
"487 489 OFFCURVE",
"451 536 QCURVE SMOOTH",
"425 570 OFFCURVE",
"353 615 OFFCURVE",
"305 632 QCURVE",
"298 635 OFFCURVE",
"289 635 QCURVE SMOOTH",
"275 635 OFFCURVE",
"258 630 QCURVE",
"214 621 OFFCURVE",
"147 566 OFFCURVE",
"116 523 QCURVE SMOOTH",
"96 495 OFFCURVE",
"72 447 OFFCURVE",
"72 422 QCURVE SMOOTH",
"72 406 OFFCURVE",
"76 394 QCURVE",
"81 377 OFFCURVE",
"81 353 QCURVE SMOOTH",
"81 334 OFFCURVE",
"80 325 QCURVE",
"79 296 LINE SMOOTH",
"74 145 OFFCURVE",
"200 77 QCURVE SMOOTH",
"213 70 OFFCURVE",
"250 48 QCURVE",
"213 41 OFFCURVE",
"209 40 QCURVE",
"167 33 OFFCURVE",
"142 25 QCURVE SMOOTH",
"114 16 OFFCURVE",
"73 -8 OFFCURVE",
"60 -28 QCURVE",
"79 -62 OFFCURVE",
"123 -92 OFFCURVE",
"154 -92 QCURVE SMOOTH",
"170 -92 OFFCURVE",
"186 -89 QCURVE SMOOTH",
"207 -85 OFFCURVE",
"247 -75 QCURVE SMOOTH",
"301 -62 OFFCURVE",
"332 -56 QCURVE",
"396 -46 OFFCURVE",
"463 -37 OFFCURVE",
"500 -37 QCURVE SMOOTH",
"544 -37 OFFCURVE",
"587 -46 QCURVE",
"601 -48 OFFCURVE",
"610 -48 QCURVE SMOOTH",
"631 -48 OFFCURVE",
"656 -43 QCURVE",
"663 -42 OFFCURVE",
"678 -25 OFFCURVE",
"679 -17 QCURVE",
"679 -11 OFFCURVE",
"664 6 OFFCURVE",
"657 8 QCURVE SMOOTH",
"582 29 OFFCURVE",
"469 55 OFFCURVE",
"411 55 QCURVE SMOOTH",
"399 54 OFFCURVE",
"363 57 QCURVE SMOOTH",
"321 60 LINE",
"321 60 OFFCURVE",
"339 75 QCURVE SMOOTH",
"358 90 OFFCURVE",
"366 95 QCURVE"
);
},
{
closed = 1;
nodes = (
"173 309 LINE",
"173 341 LINE",
"170 398 OFFCURVE",
"224 485 OFFCURVE",
"275 526 QCURVE SMOOTH",
"296 543 OFFCURVE",
"318 543 QCURVE SMOOTH",
"350 543 OFFCURVE",
"373 503 QCURVE SMOOTH",
"402 453 OFFCURVE",
"401 404 QCURVE SMOOTH",
"400 362 OFFCURVE",
"380 318 QCURVE SMOOTH",
"344 239 OFFCURVE",
"273 185 QCURVE SMOOTH",
"248 166 OFFCURVE",
"227 166 QCURVE SMOOTH",
"208 166 OFFCURVE",
"181 196 OFFCURVE",
"177 223 QCURVE SMOOTH",
"173 248 OFFCURVE",
"173 280 QCURVE",
"171 309 LINE"
);
}
);
userData = {
assembly = "NPUSHB[ ]	/* 11 values pushed */\01245 1 5 6 40 33 2 2 0 2 76 \012MPPEM[ ]	/* MeasurePixelPerEm */\012PUSHB[ ]	/* 1 value pushed */\01221 \012LT[ ]	/* LessThan */\012IF[ ]	/* If */\012NPUSHB[ ]	/* 41 values pushed */\0120 6 4 5 4 6 5 128 0 5 0 4 5 0 126 0 3 1 3 134 0 4 4 30 77 0 0 0 2 97 0 2 2 31 77 0 1 1 31 1 78 \012ELSE[ ]	/* Else */\012MPPEM[ ]	/* MeasurePixelPerEm */\012PUSHB[ ]	/* 1 value pushed */\01236 \012LT[ ]	/* LessThan */\012IF[ ]	/* If */\012NPUSHB[ ]	/* 36 values pushed */\0120 4 6 4 133 0 6 5 6 133 0 5 0 5 133 0 3 1 3 134 0 0 0 2 97 0 2 2 31 77 0 1 1 31 1 78 \012ELSE[ ]	/* Else */\012NPUSHB[ ]	/* 34 values pushed */\0120 4 6 4 133 0 6 5 6 133 0 5 0 5 133 0 3 1 3 134 0 0 0 2 1 0 2 105 0 1 1 31 1 78 \012EIF[ ]	/* EndIf */\012EIF[ ]	/* EndIf */\012NPUSHB[ ]	/* 13 values pushed */\01289 87 79 77 60 58 39 34 41 52 7 8 26 \012CALL[ ]	/* CallFunction */";
};
width = 699;
}
);
leftKerningGroup = O;
note = Q;
rightKerningGroup = O;
unicode = 0051;
},
{
glyphname = R;
lastChange = "2020-12-07 02:05:59 +0000";
layers = (
{
layerId = "D6A4831D-747C-4592-93C0-305F4CD57904";
paths = (
{
closed = 1;
nodes = (
"650 104 OFFCURVE",
"640 124 OFFCURVE",
"637 129 QCURVE",
"630 128 OFFCURVE",
"617 128 QCURVE SMOOTH",
"574 128 OFFCURVE",
"536 151 QCURVE SMOOTH",
"497 177 OFFCURVE",
"414 222 QCURVE SMOOTH",
"392 234 LINE",
"390 236 OFFCURVE",
"387 241 OFFCURVE",
"386 241 QCURVE",
"451 325 LINE SMOOTH",
"530 428 OFFCURVE",
"573 484 QCURVE SMOOTH",
"609 531 OFFCURVE",
"609 577 QCURVE SMOOTH",
"609 610 OFFCURVE",
"588 645 QCURVE SMOOTH",
"565 684 OFFCURVE",
"496 725 OFFCURVE",
"456 725 QCURVE SMOOTH",
"417 725 OFFCURVE",
"379 706 QCURVE SMOOTH",
"261 647 OFFCURVE",
"204 538 QCURVE SMOOTH",
"103 343 OFFCURVE",
"75 162 QCURVE SMOOTH",
"67 103 OFFCURVE",
"67 27 QCURVE SMOOTH",
"67 2 OFFCURVE",
"107 -32 OFFCURVE",
"134 -32 QCURVE SMOOTH",
"160 -32 OFFCURVE",
"177 -8 OFFCURVE",
"177 28 QCURVE",
"176 44 LINE",
"194 192 LINE",
"208 190 OFFCURVE",
"238 188 QCURVE",
"305 181 OFFCURVE",
"323 178 QCURVE SMOOTH",
"363 171 OFFCURVE",
"398 152 QCURVE SMOOTH",
"425 137 OFFCURVE",
"466 110 QCURVE SMOOTH",
"520 74 OFFCURVE",
"540 65 QCURVE SMOOTH",
"566 53 OFFCURVE",
"611 43 QCURVE",
"615 42 OFFCURVE",
"621 42 QCURVE SMOOTH",
"637 42 OFFCURVE",
"656 61 OFFCURVE",
"656 77 QCURVE SMOOTH",
"656 86 OFFCURVE",
"653 96 QCURVE"
);
},
{
closed = 1;
nodes = (
"264 273 OFFCURVE",
"241 255 OFFCURVE",
"221 257 QCURVE",
"222 317 OFFCURVE",
"291 483 OFFCURVE",
"411 619 OFFCURVE",
"484 641 QCURVE",
"485 636 OFFCURVE",
"489 612 OFFCURVE",
"489 604 QCURVE SMOOTH",
"489 597 OFFCURVE",
"488 594 QCURVE SMOOTH",
"485 585 OFFCURVE",
"470 543 OFFCURVE",
"452 502 OFFCURVE",
"439 484 QCURVE SMOOTH",
"407 440 OFFCURVE",
"324 340 OFFCURVE",
"283 294 QCURVE SMOOTH"
);
}
);
userData = {
assembly = "NPUSHB[ ]	/* 11 values pushed */\01273 44 2 1 3 19 1 0 4 2 76 \012MPPEM[ ]	/* MeasurePixelPerEm */\012PUSHB[ ]	/* 1 value pushed */\01221 \012LT[ ]	/* LessThan */\012IF[ ]	/* If */\012NPUSHB[ ]	/* 29 values pushed */\0120 1 3 4 3 1 4 128 0 3 3 36 77 0 4 4 0 97 0 0 0 34 77 0 2 2 31 2 78 \012ELSE[ ]	/* Else */\012MPPEM[ ]	/* MeasurePixelPerEm */\012PUSHB[ ]	/* 1 value pushed */\01236 \012LT[ ]	/* LessThan */\012IF[ ]	/* If */\012NPUSHB[ ]	/* 24 values pushed */\0120 3 1 3 133 0 1 4 1 133 0 4 0 0 2 4 0 105 0 2 2 31 2 78 \012ELSE[ ]	/* Else */\012NPUSHB[ ]	/* 31 values pushed */\0120 3 1 3 133 0 1 4 1 133 0 2 0 2 134 0 4 0 0 4 89 0 4 4 0 97 0 0 4 0 81 \012EIF[ ]	/* EndIf */\012EIF[ ]	/* EndIf */\012NPUSHB[ ]	/* 9 values pushed */\01253 51 41 37 28 19 5 8 26 \012CALL[ ]	/* CallFunction */";
};
width = 699;
}
);
leftMetricsKey = "=H";
note = R;
unicode = 0052;
},
{
glyphname = S;
lastChange = "2020-12-07 01:11:19 +0000";
layers = (
{
layerId = "D6A4831D-747C-4592-93C0-305F4CD57904";
paths = (
{
closed = 1;
nodes = (
"455 717 OFFCURVE",
"433 719 QCURVE SMOOTH",
"409 721 OFFCURVE",
"396 721 QCURVE SMOOTH",
"302 721 OFFCURVE",
"212 670 QCURVE SMOOTH",
"165 644 OFFCURVE",
"118 562 OFFCURVE",
"118 516 QCURVE SMOOTH",
"118 482 OFFCURVE",
"143 419 OFFCURVE",
"165 395 QCURVE SMOOTH",
"204 353 OFFCURVE",
"252 310 QCURVE SMOOTH",
"303 262 OFFCURVE",
"385 161 OFFCURVE",
"378 141 QCURVE",
"366 111 OFFCURVE",
"259 70 OFFCURVE",
"199 70 QCURVE SMOOTH",
"145 70 OFFCURVE",
"106 88 QCURVE",
"104 94 OFFCURVE",
"104 97 QCURVE SMOOTH",
"104 102 OFFCURVE",
"107 118 OFFCURVE",
"102 131 OFFCURVE",
"88 133 QCURVE",
"60 99 OFFCURVE",
"60 66 QCURVE SMOOTH",
"60 27 OFFCURVE",
"98 -5 QCURVE SMOOTH",
"118 -21 OFFCURVE",
"166 -38 OFFCURVE",
"188 -37 QCURVE",
"206 -39 OFFCURVE",
"215 -39 QCURVE SMOOTH",
"229 -39 OFFCURVE",
"251 -37 OFFCURVE",
"259 -36 QCURVE",
"322 -31 OFFCURVE",
"422 8 OFFCURVE",
"460 50 QCURVE SMOOTH",
"493 86 OFFCURVE",
"493 129 QCURVE SMOOTH",
"493 146 OFFCURVE",
"485 167 QCURVE SMOOTH",
"465 215 OFFCURVE",
"408 289 OFFCURVE",
"359 342 QCURVE SMOOTH",
"336 366 LINE",
"270 445 OFFCURVE",
"241 475 QCURVE",
"211 500 OFFCURVE",
"211 527 QCURVE SMOOTH",
"211 543 OFFCURVE",
"222 555 QCURVE",
"237 575 OFFCURVE",
"258 588 QCURVE SMOOTH",
"303 614 OFFCURVE",
"387 639 OFFCURVE",
"433 639 QCURVE SMOOTH",
"454 639 OFFCURVE",
"465 638 QCURVE",
"490 666 OFFCURVE",
"490 684 QCURVE SMOOTH",
"490 702 OFFCURVE",
"465 712 QCURVE"
);
}
);
userData = {
assembly = "PUSHB[ ]	/* 6 values pushed */\01239 1 3 0 1 76 \012MPPEM[ ]	/* MeasurePixelPerEm */\012PUSHB[ ]	/* 1 value pushed */\01221 \012LT[ ]	/* LessThan */\012IF[ ]	/* If */\012NPUSHB[ ]	/* 22 values pushed */\0120 0 0 4 97 0 4 4 36 77 0 3 3 1 97 2 1 1 1 31 1 78 \012ELSE[ ]	/* Else */\012MPPEM[ ]	/* MeasurePixelPerEm */\012PUSHB[ ]	/* 1 value pushed */\01224 \012LT[ ]	/* LessThan */\012IF[ ]	/* If */\012NPUSHB[ ]	/* 20 values pushed */\0120 4 0 0 3 4 0 105 0 3 3 1 97 2 1 1 1 31 1 78 \012ELSE[ ]	/* Else */\012NPUSHB[ ]	/* 25 values pushed */\0120 4 0 0 3 4 0 105 0 3 1 1 3 89 0 3 3 1 97 2 1 1 3 1 81 \012EIF[ ]	/* EndIf */\012EIF[ ]	/* EndIf */\012NPUSHB[ ]	/* 12 values pushed */\01264 62 48 46 33 32 31 29 36 5 8 23 \012CALL[ ]	/* CallFunction */";
};
width = 543;
}
);
note = S;
unicode = 0053;
},
{
glyphname = T;
lastChange = "2020-12-07 03:55:45 +0000";
layers = (
{
layerId = "D6A4831D-747C-4592-93C0-305F4CD57904";
paths = (
{
closed = 1;
nodes = (
"315 133 OFFCURVE",
"293 46 QCURVE",
"291 36 OFFCURVE",
"291 33 QCURVE SMOOTH",
"291 18 OFFCURVE",
"312 1 OFFCURVE",
"331 1 QCURVE",
"357 0 OFFCURVE",
"376 4 OFFCURVE",
"386 21 OFFCURVE",
"394 47 QCURVE SMOOTH",
"406 88 OFFCURVE",
"407 117 QCURVE",
"411 170 OFFCURVE",
"427 309 QCURVE SMOOTH",
"443 463 OFFCURVE",
"448 526 QCURVE SMOOTH",
"450 553 OFFCURVE",
"455 570 OFFCURVE",
"473 577 OFFCURVE",
"497 579 QCURVE SMOOTH",
"536 582 OFFCURVE",
"614 587 QCURVE",
"634 589 OFFCURVE",
"673 591 QCURVE",
"711 595 OFFCURVE",
"801 605 QCURVE SMOOTH",
"837 609 OFFCURVE",
"837 634 QCURVE SMOOTH",
"837 644 OFFCURVE",
"825 653 OFFCURVE",
"806 653 OFFCURVE",
"802 653 QCURVE",
"732 658 LINE SMOOTH",
"716 659 OFFCURVE",
"531 673 OFFCURVE",
"446 673 QCURVE SMOOTH",
"267 674 OFFCURVE",
"128 623 QCURVE SMOOTH",
"99 612 OFFCURVE",
"66 590 OFFCURVE",
"60 568 QCURVE",
"73 539 OFFCURVE",
"118 509 OFFCURVE",
"145 509 QCURVE SMOOTH",
"163 509 OFFCURVE",
"184 517 QCURVE SMOOTH",
"272 551 OFFCURVE",
"350 563 QCURVE",
"342 483 LINE SMOOTH",
"339 455 OFFCURVE",
"333 386 OFFCURVE",
"330 345 QCURVE SMOOTH"
);
}
);
userData = {
assembly = "MPPEM[ ]	/* MeasurePixelPerEm */\012PUSHB[ ]	/* 1 value pushed */\01246 \012LT[ ]	/* LessThan */\012IF[ ]	/* If */\012NPUSHB[ ]	/* 14 values pushed */\01235 10 3 3 0 4 52 48 39 3 6 0 2 76 \012ELSE[ ]	/* Else */\012NPUSHB[ ]	/* 14 values pushed */\01235 10 3 3 0 5 52 48 39 3 6 0 2 76 \012EIF[ ]	/* EndIf */\012MPPEM[ ]	/* MeasurePixelPerEm */\012PUSHB[ ]	/* 1 value pushed */\01221 \012LT[ ]	/* LessThan */\012IF[ ]	/* If */\012NPUSHB[ ]	/* 33 values pushed */\0125 1 4 2 0 2 4 0 128 0 0 6 2 0 6 126 0 1 1 30 77 3 1 2 2 32 77 0 6 6 31 6 78 \012ELSE[ ]	/* Else */\012MPPEM[ ]	/* MeasurePixelPerEm */\012PUSHB[ ]	/* 1 value pushed */\01239 \012LT[ ]	/* LessThan */\012IF[ ]	/* If */\012NPUSHB[ ]	/* 33 values pushed */\0120 1 2 1 133 5 1 4 2 0 2 4 0 128 0 0 6 2 0 6 126 3 1 2 2 32 77 0 6 6 31 6 78 \012ELSE[ ]	/* Else */\012MPPEM[ ]	/* MeasurePixelPerEm */\012PUSHB[ ]	/* 1 value pushed */\01244 \012LT[ ]	/* LessThan */\012IF[ ]	/* If */\012NPUSHB[ ]	/* 37 values pushed */\0120 1 2 1 133 5 1 4 3 0 3 4 0 128 0 0 6 3 0 6 126 0 2 2 32 77 0 3 3 32 77 0 6 6 31 6 78 \012ELSE[ ]	/* Else */\012MPPEM[ ]	/* MeasurePixelPerEm */\012PUSHB[ ]	/* 1 value pushed */\01246 \012LT[ ]	/* LessThan */\012IF[ ]	/* If */\012NPUSHB[ ]	/* 37 values pushed */\0120 1 2 1 133 0 2 3 2 133 5 1 4 3 0 3 4 0 128 0 0 6 3 0 6 126 0 3 3 32 77 0 6 6 31 6 78 \012ELSE[ ]	/* Else */\012NPUSHB[ ]	/* 43 values pushed */\0120 1 2 1 133 0 2 3 2 133 0 4 3 5 3 4 5 128 0 5 0 3 5 0 126 0 0 6 3 0 6 126 0 3 3 32 77 0 6 6 31 6 78 \012EIF[ ]	/* EndIf */\012EIF[ ]	/* EndIf */\012EIF[ ]	/* EndIf */\012EIF[ ]	/* EndIf */\012NPUSHB[ ]	/* 10 values pushed */\01246 17 22 33 17 38 38 7 8 29 \012CALL[ ]	/* CallFunction */";
};
width = 797;
}
);
leftKerningGroup = T;
note = T;
rightKerningGroup = T;
unicode = 0054;
},
{
glyphname = U;
lastChange = "2020-12-07 02:07:02 +0000";
layers = (
{
layerId = "D6A4831D-747C-4592-93C0-305F4CD57904";
paths = (
{
closed = 1;
nodes = (
"666 351 OFFCURVE",
"693 511 QCURVE",
"697 569 OFFCURVE",
"629 648 OFFCURVE",
"570 654 QCURVE",
"570 654 LINE",
"568 652 LINE",
"563 638 OFFCURVE",
"559 623 QCURVE SMOOTH",
"521 495 OFFCURVE",
"387 281 OFFCURVE",
"283 177 QCURVE SMOOTH",
"263 157 OFFCURVE",
"236 157 QCURVE SMOOTH",
"211 157 OFFCURVE",
"169 193 OFFCURVE",
"167 216 QCURVE",
"165 230 OFFCURVE",
"165 259 QCURVE SMOOTH",
"165 370 OFFCURVE",
"227 502 QCURVE SMOOTH",
"248 546 OFFCURVE",
"248 573 QCURVE SMOOTH",
"248 596 OFFCURVE",
"219 632 OFFCURVE",
"186 651 QCURVE SMOOTH",
"171 660 OFFCURVE",
"160 660 QCURVE SMOOTH",
"157 660 OFFCURVE",
"153 658 QCURVE",
"143 655 OFFCURVE",
"138 635 QCURVE SMOOTH",
"126 593 OFFCURVE",
"119 572 QCURVE",
"98 498 OFFCURVE",
"74 405 OFFCURVE",
"66 357 QCURVE SMOOTH",
"60 320 OFFCURVE",
"60 285 QCURVE SMOOTH",
"60 163 OFFCURVE",
"139 77 QCURVE SMOOTH",
"155 59 OFFCURVE",
"201 41 OFFCURVE",
"226 41 QCURVE SMOOTH",
"255 41 OFFCURVE",
"275 51 QCURVE SMOOTH",
"325 76 OFFCURVE",
"398 137 OFFCURVE",
"442 183 QCURVE SMOOTH",
"460 202 OFFCURVE",
"499 256 QCURVE",
"511 269 OFFCURVE",
"542 302 OFFCURVE",
"551 310 QCURVE",
"562 318 LINE",
"544 102 LINE",
"632 88 LINE",
"633 90 OFFCURVE",
"640 150 QCURVE SMOOTH",
"652 255 OFFCURVE",
"656 280 QCURVE SMOOTH"
);
}
);
userData = {
assembly = "NPUSHB[ ]	/* 11 values pushed */\01258 5 2 2 3 4 1 0 2 2 76 \012MPPEM[ ]	/* MeasurePixelPerEm */\012PUSHB[ ]	/* 1 value pushed */\01221 \012LT[ ]	/* LessThan */\012IF[ ]	/* If */\012NPUSHB[ ]	/* 21 values pushed */\0120 1 1 30 77 0 3 3 32 77 0 2 2 0 97 0 0 0 34 0 78 \012ELSE[ ]	/* Else */\012MPPEM[ ]	/* MeasurePixelPerEm */\012PUSHB[ ]	/* 1 value pushed */\01234 \012LT[ ]	/* LessThan */\012IF[ ]	/* If */\012NPUSHB[ ]	/* 18 values pushed */\0120 1 3 1 133 0 2 0 0 2 0 101 0 3 3 32 3 78 \012ELSE[ ]	/* Else */\012NPUSHB[ ]	/* 26 values pushed */\0120 1 3 1 133 0 3 2 3 133 0 2 0 0 2 89 0 2 2 0 97 0 0 2 0 81 \012EIF[ ]	/* EndIf */\012EIF[ ]	/* EndIf */\012PUSHB[ ]	/* 7 values pushed */\01254 44 31 47 4 8 26 \012CALL[ ]	/* CallFunction */";
};
width = 743;
}
);
leftKerningGroup = U;
note = U;
rightKerningGroup = U;
unicode = 0055;
},
{
glyphname = V;
lastChange = "2020-12-07 02:16:18 +0000";
layers = (
{
layerId = "D6A4831D-747C-4592-93C0-305F4CD57904";
paths = (
{
closed = 1;
nodes = (
"92 390 OFFCURVE",
"94 375 OFFCURVE",
"95 371 QCURVE",
"99 358 OFFCURVE",
"111 316 QCURVE",
"114 307 OFFCURVE",
"140 214 OFFCURVE",
"157 175 QCURVE SMOOTH",
"207 60 OFFCURVE",
"338 8 QCURVE SMOOTH",
"353 2 OFFCURVE",
"364 3 QCURVE SMOOTH",
"389 5 OFFCURVE",
"409 29 QCURVE",
"431 60 OFFCURVE",
"465 128 OFFCURVE",
"483 174 QCURVE SMOOTH",
"501 220 LINE SMOOTH",
"537 312 OFFCURVE",
"590 431 OFFCURVE",
"629 486 QCURVE SMOOTH",
"634 493 OFFCURVE",
"662 535 OFFCURVE",
"699 576 OFFCURVE",
"726 589 QCURVE SMOOTH",
"736 594 OFFCURVE",
"752 610 QCURVE SMOOTH",
"766 624 OFFCURVE",
"766 641 QCURVE SMOOTH",
"766 654 OFFCURVE",
"751 675 OFFCURVE",
"738 681 QCURVE SMOOTH",
"717 691 OFFCURVE",
"695 690 QCURVE SMOOTH",
"675 689 OFFCURVE",
"654 681 QCURVE SMOOTH",
"589 656 OFFCURVE",
"547 581 QCURVE SMOOTH",
"492 496 OFFCURVE",
"433 370 QCURVE SMOOTH",
"375 245 LINE SMOOTH",
"350 185 OFFCURVE",
"335 156 QCURVE SMOOTH",
"332 150 OFFCURVE",
"318 131 QCURVE SMOOTH",
"305 114 LINE",
"280 131 OFFCURVE",
"252 178 OFFCURVE",
"243 209 QCURVE SMOOTH",
"207 338 OFFCURVE",
"181 460 QCURVE SMOOTH",
"170 512 OFFCURVE",
"117 554 OFFCURVE",
"60 552 QCURVE",
"61 539 OFFCURVE",
"60 518 OFFCURVE",
"60 511 QCURVE SMOOTH",
"60 491 LINE SMOOTH",
"60 461 OFFCURVE",
"72 414 OFFCURVE",
"89 393 QCURVE"
);
}
);
userData = {
assembly = "PUSHB[ ]	/* 6 values pushed */\01214 1 2 0 1 76 \012MPPEM[ ]	/* MeasurePixelPerEm */\012PUSHB[ ]	/* 1 value pushed */\01221 \012LT[ ]	/* LessThan */\012IF[ ]	/* If */\012NPUSHB[ ]	/* 19 values pushed */\0120 0 1 2 1 0 2 128 0 1 1 36 77 0 2 2 40 2 78 \012ELSE[ ]	/* Else */\012NPUSHB[ ]	/* 16 values pushed */\0120 1 0 1 133 0 0 2 0 133 0 2 2 40 2 78 \012EIF[ ]	/* EndIf */\012PUSHB[ ]	/* 8 values pushed */\01249 47 27 25 22 3 8 23 \012CALL[ ]	/* CallFunction */";
};
width = 786;
}
);
leftKerningGroup = V;
note = V;
rightKerningGroup = V;
unicode = 0056;
},
{
glyphname = W;
lastChange = "2020-12-07 01:11:19 +0000";
layers = (
{
layerId = "D6A4831D-747C-4592-93C0-305F4CD57904";
paths = (
{
closed = 1;
nodes = (
"202 459 LINE SMOOTH",
"188 523 OFFCURVE",
"180 555 QCURVE SMOOTH",
"163 629 OFFCURVE",
"93 649 QCURVE",
"75 636 OFFCURVE",
"60 618 OFFCURVE",
"60 607 QCURVE SMOOTH",
"60 595 OFFCURVE",
"69 569 QCURVE SMOOTH",
"79 540 LINE SMOOTH",
"81 534 OFFCURVE",
"97 488 OFFCURVE",
"100 468 QCURVE SMOOTH",
"111 399 OFFCURVE",
"156 223 OFFCURVE",
"179 148 QCURVE SMOOTH",
"191 108 OFFCURVE",
"227 72 OFFCURVE",
"257 72 QCURVE SMOOTH",
"271 72 OFFCURVE",
"287 75 QCURVE",
"297 93 OFFCURVE",
"324 163 QCURVE SMOOTH",
"352 238 OFFCURVE",
"369 267 QCURVE SMOOTH",
"374 276 OFFCURVE",
"392 314 QCURVE SMOOTH",
"414 358 OFFCURVE",
"447 418 OFFCURVE",
"468 442 QCURVE",
"472 402 OFFCURVE",
"476 348 QCURVE SMOOTH",
"477 326 LINE",
"483 258 OFFCURVE",
"543 133 OFFCURVE",
"594 105 QCURVE SMOOTH",
"625 88 OFFCURVE",
"638 88 QCURVE SMOOTH",
"650 88 OFFCURVE",
"667 109 OFFCURVE",
"678 136 QCURVE SMOOTH",
"696 180 OFFCURVE",
"723 278 QCURVE SMOOTH",
"743 346 OFFCURVE",
"752 373 QCURVE SMOOTH",
"774 437 OFFCURVE",
"809 513 OFFCURVE",
"842 545 QCURVE SMOOTH",
"864 567 OFFCURVE",
"864 588 QCURVE SMOOTH",
"864 603 OFFCURVE",
"853 622 QCURVE SMOOTH",
"848 631 OFFCURVE",
"842 646 OFFCURVE",
"836 652 OFFCURVE",
"828 652 QCURVE SMOOTH",
"818 652 OFFCURVE",
"810 650 QCURVE",
"768 642 OFFCURVE",
"719 586 OFFCURVE",
"703 540 QCURVE SMOOTH",
"673 450 LINE SMOOTH",
"656 396 OFFCURVE",
"642 359 QCURVE",
"635 337 OFFCURVE",
"611 300 OFFCURVE",
"590 282 QCURVE",
"585 340 LINE SMOOTH",
"578 403 OFFCURVE",
"577 443 QCURVE SMOOTH",
"576 470 OFFCURVE",
"566 505 OFFCURVE",
"554 532 QCURVE",
"547 546 OFFCURVE",
"544 554 QCURVE",
"534 578 OFFCURVE",
"495 604 OFFCURVE",
"473 604 QCURVE SMOOTH",
"457 604 OFFCURVE",
"426 589 OFFCURVE",
"414 575 QCURVE SMOOTH",
"374 528 OFFCURVE",
"326 454 OFFCURVE",
"302 402 QCURVE SMOOTH",
"247 292 LINE",
"234 330 LINE SMOOTH",
"223 363 OFFCURVE",
"223 363 QCURVE"
);
}
);
userData = {
assembly = "NPUSHB[ ]	/* 14 values pushed */\01283 1 0 1 57 55 54 20 2 5 2 0 2 76 \012MPPEM[ ]	/* MeasurePixelPerEm */\012PUSHB[ ]	/* 1 value pushed */\01221 \012LT[ ]	/* LessThan */\012IF[ ]	/* If */\012NPUSHB[ ]	/* 25 values pushed */\0120 0 1 2 1 0 2 128 0 2 3 1 2 3 126 0 3 3 132 0 1 1 30 1 78 \012ELSE[ ]	/* Else */\012MPPEM[ ]	/* MeasurePixelPerEm */\012PUSHB[ ]	/* 1 value pushed */\01231 \012LT[ ]	/* LessThan */\012IF[ ]	/* If */\012NPUSHB[ ]	/* 25 values pushed */\0120 0 1 2 1 0 2 128 0 2 3 1 2 3 126 0 3 3 132 0 1 1 32 1 78 \012ELSE[ ]	/* Else */\012NPUSHB[ ]	/* 19 values pushed */\0120 1 0 1 133 0 0 2 0 133 0 2 3 2 133 0 3 3 118 \012EIF[ ]	/* EndIf */\012EIF[ ]	/* EndIf */\012NPUSHB[ ]	/* 10 values pushed */\01269 67 50 48 31 30 40 4 8 23 \012CALL[ ]	/* CallFunction */";
};
width = 914;
}
);
leftKerningGroup = W;
note = W;
rightKerningGroup = W;
unicode = 0057;
},
{
glyphname = X;
lastChange = "2020-12-07 01:11:19 +0000";
layers = (
{
layerId = "D6A4831D-747C-4592-93C0-305F4CD57904";
paths = (
{
closed = 1;
nodes = (
"214 70 OFFCURVE",
"308 138 QCURVE SMOOTH",
"321 147 OFFCURVE",
"341 159 OFFCURVE",
"347 159 QCURVE SMOOTH",
"355 159 OFFCURVE",
"375 147 OFFCURVE",
"389 138 QCURVE",
"445 99 OFFCURVE",
"555 49 OFFCURVE",
"614 41 QCURVE SMOOTH",
"631 39 OFFCURVE",
"653 50 OFFCURVE",
"653 61 QCURVE SMOOTH",
"653 66 OFFCURVE",
"650 72 QCURVE",
"645 84 OFFCURVE",
"629 94 QCURVE",
"506 165 LINE SMOOTH",
"494 172 OFFCURVE",
"448 201 QCURVE SMOOTH",
"419 219 LINE",
"423 226 OFFCURVE",
"427 236 OFFCURVE",
"429 239 QCURVE",
"662 495 LINE SMOOTH",
"673 507 OFFCURVE",
"685 538 OFFCURVE",
"685 553 QCURVE SMOOTH",
"685 582 OFFCURVE",
"666 600 QCURVE SMOOTH",
"642 622 OFFCURVE",
"603 644 OFFCURVE",
"578 641 QCURVE",
"538 573 OFFCURVE",
"439 454 OFFCURVE",
"356 364 QCURVE SMOOTH",
"325 331 LINE",
"312 355 LINE SMOOTH",
"301 374 OFFCURVE",
"297 383 QCURVE",
"292 399 OFFCURVE",
"284 433 QCURVE SMOOTH",
"276 463 LINE SMOOTH",
"264 506 OFFCURVE",
"202 563 OFFCURVE",
"164 566 QCURVE",
"153 522 OFFCURVE",
"153 496 QCURVE SMOOTH",
"153 459 OFFCURVE",
"169 424 QCURVE SMOOTH",
"221 314 OFFCURVE",
"251 253 QCURVE",
"60 88 LINE",
"78 35 LINE",
"82 35 OFFCURVE",
"98 35 OFFCURVE",
"104 37 QCURVE SMOOTH"
);
}
);
userData = {
assembly = "NPUSHB[ ]	/* 20 values pushed */\01235 19 10 4 4 0 74 3 1 0 73 0 0 0 118 53 51 1 8 22 \012CALL[ ]	/* CallFunction */";
};
width = 735;
}
);
leftKerningGroup = X;
note = X;
rightKerningGroup = X;
unicode = 0058;
},
{
glyphname = Y;
lastChange = "2020-12-07 02:16:31 +0000";
layers = (
{
layerId = "D6A4831D-747C-4592-93C0-305F4CD57904";
paths = (
{
closed = 1;
nodes = (
"149 304 OFFCURVE",
"330 228 QCURVE",
"316 185 OFFCURVE",
"311 172 QCURVE SMOOTH",
"245 10 OFFCURVE",
"213 -71 QCURVE",
"212 -75 OFFCURVE",
"221 -94 OFFCURVE",
"223 -101 QCURVE",
"275 -54 OFFCURVE",
"350 51 OFFCURVE",
"400 133 QCURVE SMOOTH",
"414 155 LINE SMOOTH",
"440 198 OFFCURVE",
"471 272 QCURVE SMOOTH",
"498 332 LINE",
"502 340 OFFCURVE",
"524 382 QCURVE SMOOTH",
"529 392 OFFCURVE",
"542 416 OFFCURVE",
"549 431 QCURVE SMOOTH",
"588 512 OFFCURVE",
"605 561 QCURVE SMOOTH",
"612 581 OFFCURVE",
"612 603 QCURVE SMOOTH",
"612 636 OFFCURVE",
"577 687 OFFCURVE",
"544 700 QCURVE",
"536 688 OFFCURVE",
"531 682 QCURVE",
"510 653 OFFCURVE",
"502 634 QCURVE SMOOTH",
"483 591 OFFCURVE",
"409 411 QCURVE SMOOTH",
"382 345 LINE SMOOTH",
"375 329 OFFCURVE",
"360 299 QCURVE",
"329 298 OFFCURVE",
"292 325 OFFCURVE",
"268 353 QCURVE SMOOTH",
"235 391 OFFCURVE",
"200 485 OFFCURVE",
"187 546 QCURVE SMOOTH",
"181 576 OFFCURVE",
"151 610 OFFCURVE",
"121 635 QCURVE",
"104 648 LINE",
"99 651 OFFCURVE",
"92 651 QCURVE",
"73 650 LINE",
"67 624 OFFCURVE",
"60 582 OFFCURVE",
"60 569 QCURVE SMOOTH",
"60 551 OFFCURVE",
"71 515 OFFCURVE",
"87 473 QCURVE SMOOTH"
);
}
);
userData = {
assembly = "PUSHB[ ]	/* 8 values pushed */\01227 1 0 74 53 1 1 73 \012MPPEM[ ]	/* MeasurePixelPerEm */\012PUSHB[ ]	/* 1 value pushed */\01236 \012LT[ ]	/* LessThan */\012IF[ ]	/* If */\012NPUSHB[ ]	/* 11 values pushed */\0120 1 0 1 134 0 0 0 32 0 78 \012ELSE[ ]	/* Else */\012NPUSHB[ ]	/* 9 values pushed */\0120 0 1 0 133 0 1 1 118 \012EIF[ ]	/* EndIf */\012PUSHB[ ]	/* 5 values pushed */\01227 21 2 8 24 \012CALL[ ]	/* CallFunction */";
};
width = 632;
}
);
leftKerningGroup = V;
note = Y;
rightKerningGroup = V;
rightMetricsKey = "=V";
unicode = 0059;
},
{
glyphname = Z;
lastChange = "2020-12-07 01:11:19 +0000";
layers = (
{
layerId = "D6A4831D-747C-4592-93C0-305F4CD57904";
paths = (
{
closed = 1;
nodes = (
"282 300 OFFCURVE",
"124 78 QCURVE SMOOTH",
"107 53 OFFCURVE",
"107 33 QCURVE SMOOTH",
"107 0 OFFCURVE",
"150 -19 QCURVE SMOOTH",
"171 -29 OFFCURVE",
"197 -29 QCURVE SMOOTH",
"212 -29 OFFCURVE",
"244 -23 QCURVE SMOOTH",
"277 -16 LINE SMOOTH",
"379 6 OFFCURVE",
"427 13 QCURVE SMOOTH",
"462 18 OFFCURVE",
"525 24 QCURVE SMOOTH",
"591 30 OFFCURVE",
"623 34 QCURVE SMOOTH",
"673 41 OFFCURVE",
"771 63 QCURVE",
"805 72 OFFCURVE",
"805 104 QCURVE SMOOTH",
"805 112 OFFCURVE",
"804 116 QCURVE",
"260 83 LINE",
"270 103 LINE SMOOTH",
"283 130 OFFCURVE",
"288 138 QCURVE",
"322 187 LINE SMOOTH",
"345 222 OFFCURVE",
"396 295 OFFCURVE",
"419 323 QCURVE SMOOTH",
"542 478 OFFCURVE",
"651 587 QCURVE SMOOTH",
"674 610 OFFCURVE",
"674 626 QCURVE SMOOTH",
"674 636 OFFCURVE",
"659 655 OFFCURVE",
"643 667 QCURVE SMOOTH",
"613 691 OFFCURVE",
"542 714 OFFCURVE",
"498 718 QCURVE SMOOTH",
"458 721 OFFCURVE",
"418 721 QCURVE SMOOTH",
"353 721 OFFCURVE",
"230 708 OFFCURVE",
"123 694 QCURVE SMOOTH",
"60 685 LINE",
"60 681 OFFCURVE",
"61 664 OFFCURVE",
"64 662 QCURVE",
"92 637 OFFCURVE",
"144 610 OFFCURVE",
"174 610 QCURVE",
"186 611 LINE SMOOTH",
"246 617 OFFCURVE",
"307 626 QCURVE SMOOTH",
"314 627 OFFCURVE",
"392 639 OFFCURVE",
"428 639 QCURVE SMOOTH",
"470 639 OFFCURVE",
"502 630 QCURVE",
"468 577 LINE SMOOTH",
"406 481 OFFCURVE",
"359 412 QCURVE SMOOTH"
);
}
);
userData = {
assembly = "MPPEM[ ]	/* MeasurePixelPerEm */\012PUSHB[ ]	/* 1 value pushed */\01231 \012LT[ ]	/* LessThan */\012IF[ ]	/* If */\012NPUSHB[ ]	/* 10 values pushed */\0122 1 1 0 42 1 3 1 2 76 \012ELSE[ ]	/* Else */\012NPUSHB[ ]	/* 12 values pushed */\0122 1 1 0 42 40 39 3 4 1 2 76 \012EIF[ ]	/* EndIf */\012MPPEM[ ]	/* MeasurePixelPerEm */\012PUSHB[ ]	/* 1 value pushed */\01221 \012LT[ ]	/* LessThan */\012IF[ ]	/* If */\012NPUSHB[ ]	/* 31 values pushed */\0120 1 0 3 0 1 3 128 0 3 4 0 3 4 126 0 0 0 2 97 0 2 2 36 77 0 4 4 31 4 78 \012ELSE[ ]	/* Else */\012MPPEM[ ]	/* MeasurePixelPerEm */\012PUSHB[ ]	/* 1 value pushed */\01231 \012LT[ ]	/* LessThan */\012IF[ ]	/* If */\012NPUSHB[ ]	/* 29 values pushed */\0120 1 0 3 0 1 3 128 0 3 4 0 3 4 126 0 2 0 0 1 2 0 105 0 4 4 31 4 78 \012ELSE[ ]	/* Else */\012MPPEM[ ]	/* MeasurePixelPerEm */\012PUSHB[ ]	/* 1 value pushed */\01244 \012LT[ ]	/* LessThan */\012IF[ ]	/* If */\012NPUSHB[ ]	/* 22 values pushed */\0120 1 0 4 0 1 4 128 0 2 0 0 1 2 0 105 0 4 4 31 4 78 \012ELSE[ ]	/* Else */\012NPUSHB[ ]	/* 28 values pushed */\0120 1 0 4 0 1 4 128 0 4 4 132 0 2 0 0 2 89 0 2 2 0 97 0 0 2 0 81 \012EIF[ ]	/* EndIf */\012EIF[ ]	/* EndIf */\012EIF[ ]	/* EndIf */\012NPUSHB[ ]	/* 10 values pushed */\01256 54 40 39 40 21 35 5 8 25 \012CALL[ ]	/* CallFunction */";
};
width = 855;
}
);
leftKerningGroup = Z;
note = Z;
rightKerningGroup = Z;
unicode = 005A;
},
{
glyphname = bracketleft;
lastChange = "2020-12-07 01:11:22 +0000";
layers = (
{
layerId = "D6A4831D-747C-4592-93C0-305F4CD57904";
paths = (
{
closed = 1;
nodes = (
"212 -71 OFFCURVE",
"319 -55 QCURVE SMOOTH",
"339 -52 OFFCURVE",
"351 -44 QCURVE SMOOTH",
"357 -40 OFFCURVE",
"368 -26 OFFCURVE",
"367 -21 QCURVE",
"366 -14 OFFCURVE",
"353 0 OFFCURVE",
"346 3 QCURVE SMOOTH",
"329 9 LINE",
"295 22 OFFCURVE",
"276 22 QCURVE SMOOTH",
"256 21 OFFCURVE",
"236 9 QCURVE SMOOTH",
"231 6 OFFCURVE",
"213 3 OFFCURVE",
"209 2 QCURVE",
"204 1 OFFCURVE",
"196 1 QCURVE SMOOTH",
"166 1 OFFCURVE",
"166 32 QCURVE SMOOTH",
"166 38 OFFCURVE",
"166 41 QCURVE",
"174 123 OFFCURVE",
"176 166 QCURVE SMOOTH",
"186 377 OFFCURVE",
"190 482 QCURVE SMOOTH",
"191 511 OFFCURVE",
"191 526 QCURVE SMOOTH",
"191 544 OFFCURVE",
"188 559 QCURVE SMOOTH",
"186 571 OFFCURVE",
"186 579 QCURVE SMOOTH",
"186 619 OFFCURVE",
"231 634 QCURVE",
"252 639 OFFCURVE",
"294 649 QCURVE",
"303 651 OFFCURVE",
"343 660 OFFCURVE",
"358 665 QCURVE",
"368 667 OFFCURVE",
"387 691 OFFCURVE",
"393 696 QCURVE",
"379 704 LINE",
"359 720 OFFCURVE",
"348 719 QCURVE SMOOTH",
"282 713 OFFCURVE",
"200 688 OFFCURVE",
"160 675 QCURVE SMOOTH",
"90 652 OFFCURVE",
"90 577 QCURVE SMOOTH",
"90 563 OFFCURVE",
"93 546 QCURVE",
"93 542 OFFCURVE",
"93 534 QCURVE SMOOTH",
"93 522 LINE",
"82 333 OFFCURVE",
"66 86 QCURVE SMOOTH",
"64 56 OFFCURVE",
"60 1 QCURVE",
"60 -44 OFFCURVE",
"87 -80 OFFCURVE",
"125 -80 QCURVE SMOOTH",
"141 -79 OFFCURVE",
"161 -77 QCURVE SMOOTH"
);
}
);
userData = {
assembly = "NPUSHB[ ]	/* 34 values pushed */\01258 1 0 1 1 76 43 21 6 3 2 74 0 2 1 2 133 0 1 0 1 133 0 0 0 118 53 51 46 44 32 3 8 23 \012CALL[ ]	/* CallFunction */";
};
width = 443;
}
);
note = bracketleft;
unicode = 005B;
},
{
glyphname = backslash;
lastChange = "2020-12-07 01:11:19 +0000";
layers = (
{
layerId = "D6A4831D-747C-4592-93C0-305F4CD57904";
paths = (
{
closed = 1;
nodes = (
"336 -34 OFFCURVE",
"340 -34 QCURVE SMOOTH",
"355 -34 OFFCURVE",
"369 17 OFFCURVE",
"369 51 QCURVE SMOOTH",
"369 87 OFFCURVE",
"364 102 QCURVE",
"350 138 OFFCURVE",
"273 344 OFFCURVE",
"253 403 QCURVE SMOOTH",
"240 439 OFFCURVE",
"225 493 QCURVE SMOOTH",
"211 538 LINE SMOOTH",
"184 623 OFFCURVE",
"162 690 QCURVE SMOOTH",
"149 726 OFFCURVE",
"118 722 QCURVE SMOOTH",
"97 720 OFFCURVE",
"60 672 OFFCURVE",
"60 650 QCURVE SMOOTH",
"60 644 OFFCURVE",
"61 641 QCURVE",
"125 353 LINE SMOOTH",
"130 331 OFFCURVE",
"209 148 OFFCURVE",
"299 -15 OFFCURVE",
"328 -30 QCURVE SMOOTH"
);
}
);
userData = {
assembly = "PUSHB[ ]	/* 4 values pushed */\0126 1 0 74 \012MPPEM[ ]	/* MeasurePixelPerEm */\012PUSHB[ ]	/* 1 value pushed */\01231 \012LT[ ]	/* LessThan */\012IF[ ]	/* If */\012PUSHB[ ]	/* 6 values pushed */\0120 0 0 31 0 78 \012ELSE[ ]	/* Else */\012PUSHB[ ]	/* 4 values pushed */\0120 0 0 118 \012EIF[ ]	/* EndIf */\012PUSHB[ ]	/* 5 values pushed */\01224 23 1 8 22 \012CALL[ ]	/* CallFunction */";
};
width = 419;
}
);
note = backslash;
unicode = 005C;
},
{
glyphname = bracketright;
lastChange = "2020-12-07 01:11:22 +0000";
layers = (
{
layerId = "D6A4831D-747C-4592-93C0-305F4CD57904";
paths = (
{
closed = 1;
nodes = (
"282 703 OFFCURVE",
"235 703 QCURVE SMOOTH",
"201 703 OFFCURVE",
"143 683 OFFCURVE",
"123 664 QCURVE",
"117 658 OFFCURVE",
"108 640 OFFCURVE",
"110 632 QCURVE",
"112 626 OFFCURVE",
"130 614 OFFCURVE",
"138 613 QCURVE",
"155 610 OFFCURVE",
"169 610 QCURVE SMOOTH",
"187 610 OFFCURVE",
"200 613 QCURVE",
"209 616 OFFCURVE",
"221 616 QCURVE SMOOTH",
"240 616 OFFCURVE",
"259 595 OFFCURVE",
"257 576 QCURVE SMOOTH",
"250 510 LINE SMOOTH",
"239 405 OFFCURVE",
"236 355 QCURVE SMOOTH",
"228 233 OFFCURVE",
"228 50 QCURVE SMOOTH",
"228 31 OFFCURVE",
"197 3 OFFCURVE",
"176 -2 QCURVE",
"171 -4 OFFCURVE",
"128 -12 QCURVE",
"109 -15 OFFCURVE",
"88 -19 QCURVE SMOOTH",
"82 -20 OFFCURVE",
"65 -33 OFFCURVE",
"60 -35 QCURVE",
"63 -40 OFFCURVE",
"72 -57 OFFCURVE",
"78 -61 QCURVE",
"83 -63 OFFCURVE",
"104 -72 OFFCURVE",
"125 -80 OFFCURVE",
"136 -79 QCURVE SMOOTH",
"194 -74 OFFCURVE",
"264 -52 QCURVE SMOOTH",
"296 -42 OFFCURVE",
"321 -26 OFFCURVE",
"328 4 OFFCURVE",
"329 40 QCURVE SMOOTH",
"335 274 OFFCURVE",
"344 485 QCURVE SMOOTH",
"349 532 OFFCURVE",
"360 611 QCURVE SMOOTH",
"367 661 LINE",
"347 671 LINE SMOOTH",
"326 681 OFFCURVE",
"322 683 QCURVE"
);
}
);
userData = {
assembly = "PUSHB[ ]	/* 6 values pushed */\0122 1 0 2 1 76 \012MPPEM[ ]	/* MeasurePixelPerEm */\012PUSHB[ ]	/* 1 value pushed */\01229 \012LT[ ]	/* LessThan */\012IF[ ]	/* If */\012NPUSHB[ ]	/* 17 values pushed */\0120 2 0 0 2 89 0 2 2 0 97 1 1 0 2 0 81 \012ELSE[ ]	/* Else */\012NPUSHB[ ]	/* 21 values pushed */\0120 1 0 1 134 0 2 0 0 2 89 0 2 2 0 97 0 0 2 0 81 \012EIF[ ]	/* EndIf */\012NPUSHB[ ]	/* 9 values pushed */\01254 52 43 41 39 37 3 8 22 \012CALL[ ]	/* CallFunction */";
};
width = 417;
}
);
note = bracketright;
unicode = 005D;
},
{
glyphname = underscore;
lastChange = "2020-12-07 01:11:22 +0000";
layers = (
{
layerId = "D6A4831D-747C-4592-93C0-305F4CD57904";
paths = (
{
closed = 1;
nodes = (
"600 -89 OFFCURVE",
"608 -73 QCURVE",
"610 -70 OFFCURVE",
"610 -64 QCURVE SMOOTH",
"610 -53 OFFCURVE",
"594 -29 OFFCURVE",
"584 -25 QCURVE SMOOTH",
"556 -13 OFFCURVE",
"529 -12 QCURVE",
"490 -12 LINE",
"411 -12 LINE SMOOTH",
"379 -12 OFFCURVE",
"362 -11 QCURVE SMOOTH",
"322 -9 OFFCURVE",
"263 -3 OFFCURVE",
"244 -2 QCURVE",
"182 4 OFFCURVE",
"155 6 QCURVE",
"148 7 OFFCURVE",
"127 9 OFFCURVE",
"114 9 QCURVE",
"94 8 OFFCURVE",
"66 -11 OFFCURVE",
"62 -25 QCURVE SMOOTH",
"60 -33 OFFCURVE",
"60 -38 QCURVE SMOOTH",
"60 -52 OFFCURVE",
"78 -78 OFFCURVE",
"94 -86 QCURVE",
"122 -103 OFFCURVE",
"159 -103 QCURVE SMOOTH",
"222 -102 LINE SMOOTH",
"273 -102 OFFCURVE",
"299 -103 QCURVE SMOOTH",
"540 -109 LINE",
"546 -108 OFFCURVE",
"567 -107 OFFCURVE",
"573 -103 QCURVE"
);
}
);
userData = {
assembly = "PUSHB[ ]	/* 2 values pushed */\0126 100 \012WCVTP[ ]	/* WriteCVTInPixels */\012MPPEM[ ]	/* MeasurePixelPerEm */\012PUSHB[ ]	/* 1 value pushed */\01229 \012LT[ ]	/* LessThan */\012IF[ ]	/* If */\012PUSHB[ ]	/* 7 values pushed */\01233 11 2 0 2 1 76 \012ELSE[ ]	/* Else */\012PUSHB[ ]	/* 7 values pushed */\01233 11 2 0 3 1 76 \012EIF[ ]	/* EndIf */\012MPPEM[ ]	/* MeasurePixelPerEm */\012PUSHB[ ]	/* 1 value pushed */\01229 \012LT[ ]	/* LessThan */\012IF[ ]	/* If */\012NPUSHB[ ]	/* 24 values pushed */\0120 1 2 2 1 112 3 1 2 0 0 2 89 3 1 2 2 0 96 0 0 2 0 80 \012ELSE[ ]	/* Else */\012NPUSHB[ ]	/* 28 values pushed */\0120 1 2 3 1 112 0 2 3 3 2 112 0 3 0 0 3 87 0 3 3 0 96 0 0 3 0 80 \012EIF[ ]	/* EndIf */\012PUSHB[ ]	/* 7 values pushed */\01297 20 40 112 4 8 26 \012CALL[ ]	/* CallFunction */\012PUSHB[ ]	/* 2 values pushed */\0126 0 \012WCVTP[ ]	/* WriteCVTInPixels */";
};
width = 660;
}
);
note = underscore;
unicode = 005F;
},
{
glyphname = grave;
lastChange = "2020-12-07 01:11:22 +0000";
layers = (
{
layerId = "D6A4831D-747C-4592-93C0-305F4CD57904";
paths = (
{
closed = 1;
nodes = (
"246 671 OFFCURVE",
"126 776 QCURVE",
"116 786 OFFCURVE",
"80 799 OFFCURVE",
"74 795 QCURVE",
"58 783 OFFCURVE",
"63 791 OFFCURVE",
"61 775 QCURVE",
"60 758 OFFCURVE",
"75 717 OFFCURVE",
"88 701 QCURVE SMOOTH",
"120 662 OFFCURVE",
"213 560 QCURVE SMOOTH",
"246 524 LINE SMOOTH",
"268 501 OFFCURVE",
"296 501 QCURVE",
"317 502 OFFCURVE",
"335 513 QCURVE SMOOTH",
"343 518 OFFCURVE",
"328 499 OFFCURVE",
"335 510 QCURVE",
"347 531 LINE",
"336 559 LINE",
"330 577 OFFCURVE",
"321 596 OFFCURVE",
"314 603 QCURVE SMOOTH"
);
}
);
userData = {
assembly = "PUSHB[ ]	/* 2 values pushed */\0126 100 \012WCVTP[ ]	/* WriteCVTInPixels */\012NPUSHB[ ]	/* 13 values pushed */\01217 3 2 0 74 0 0 0 118 40 1 8 23 \012CALL[ ]	/* CallFunction */\012PUSHB[ ]	/* 2 values pushed */\0126 0 \012WCVTP[ ]	/* WriteCVTInPixels */";
};
width = 397;
}
);
note = grave;
unicode = 0060;
},
{
glyphname = a;
lastChange = "2020-12-07 04:03:03 +0000";
layers = (
{
layerId = "D6A4831D-747C-4592-93C0-305F4CD57904";
paths = (
{
closed = 1;
nodes = (
"378 48 OFFCURVE",
"387 37 QCURVE",
"396 27 OFFCURVE",
"411 16 OFFCURVE",
"420 16 QCURVE SMOOTH",
"427 16 OFFCURVE",
"435 21 QCURVE",
"444 26 OFFCURVE",
"444 58 QCURVE SMOOTH",
"444 174 OFFCURVE",
"436 249 QCURVE SMOOTH",
"429 316 OFFCURVE",
"406 354 QCURVE SMOOTH",
"383 392 OFFCURVE",
"284 443 OFFCURVE",
"226 443 QCURVE SMOOTH",
"180 442 OFFCURVE",
"137 426 QCURVE SMOOTH",
"116 418 OFFCURVE",
"116 388 QCURVE SMOOTH",
"116 371 OFFCURVE",
"120 369 QCURVE",
"135 358 OFFCURVE",
"169 358 QCURVE SMOOTH",
"180 358 OFFCURVE",
"208 360 QCURVE SMOOTH",
"236 362 OFFCURVE",
"250 362 QCURVE SMOOTH",
"288 362 OFFCURVE",
"313 339 OFFCURVE",
"313 325 QCURVE SMOOTH",
"313 318 OFFCURVE",
"268 310 OFFCURVE",
"256 310 QCURVE",
"201 305 OFFCURVE",
"138 267 OFFCURVE",
"100 221 QCURVE SMOOTH",
"61 173 OFFCURVE",
"60 125 QCURVE SMOOTH",
"59 93 OFFCURVE",
"79 65 QCURVE SMOOTH",
"98 39 OFFCURVE",
"189 2 OFFCURVE",
"231 2 QCURVE SMOOTH",
"240 2 OFFCURVE",
"254 4 QCURVE",
"286 10 OFFCURVE",
"298 17 QCURVE SMOOTH",
"311 25 OFFCURVE",
"323 37 QCURVE",
"331 46 OFFCURVE",
"344 55 OFFCURVE",
"353 55 QCURVE SMOOTH",
"362 55 OFFCURVE",
"371 51 QCURVE SMOOTH"
);
},
{
closed = 1;
nodes = (
"208 61 OFFCURVE",
"200 61 QCURVE SMOOTH",
"190 61 OFFCURVE",
"183 66 QCURVE SMOOTH",
"170 75 OFFCURVE",
"168 102 QCURVE",
"168 122 OFFCURVE",
"189 169 OFFCURVE",
"208 192 QCURVE SMOOTH",
"227 214 OFFCURVE",
"271 240 OFFCURVE",
"290 241 QCURVE",
"299 242 OFFCURVE",
"321 228 OFFCURVE",
"326 220 QCURVE",
"331 210 OFFCURVE",
"336 184 OFFCURVE",
"337 181 QCURVE",
"338 172 OFFCURVE",
"335 143 OFFCURVE",
"333 140 QCURVE SMOOTH",
"331 137 OFFCURVE",
"315 115 OFFCURVE",
"305 108 QCURVE SMOOTH",
"260 77 OFFCURVE",
"213 63 QCURVE"
);
}
);
userData = {
assembly = "NPUSHB[ ]	/* 10 values pushed */\01234 1 3 5 74 1 8 7 2 76 \012MPPEM[ ]	/* MeasurePixelPerEm */\012PUSHB[ ]	/* 1 value pushed */\01211 \012LT[ ]	/* LessThan */\012IF[ ]	/* If */\012NPUSHB[ ]	/* 47 values pushed */\0120 2 3 7 3 2 7 128 0 7 8 3 7 112 0 0 8 6 8 0 6 128 0 5 4 1 3 2 5 3 105 0 6 6 34 77 0 8 8 1 97 0 1 1 40 1 78 \012ELSE[ ]	/* Else */\012NPUSHB[ ]	/* 48 values pushed */\0120 2 3 7 3 2 7 128 0 7 8 3 7 8 126 0 0 8 6 8 0 6 128 0 5 4 1 3 2 5 3 105 0 6 6 34 77 0 8 8 1 97 0 1 1 40 1 78 \012EIF[ ]	/* EndIf */\012NPUSHB[ ]	/* 14 values pushed */\01278 77 69 68 41 38 34 36 25 39 32 9 8 29 \012CALL[ ]	/* CallFunction */";
};
width = 494;
}
);
leftKerningGroup = a;
note = a;
rightKerningGroup = a;
rightMetricsKey = "=n";
unicode = 0061;
},
{
glyphname = b;
lastChange = "2020-12-07 01:44:31 +0000";
layers = (
{
layerId = "D6A4831D-747C-4592-93C0-305F4CD57904";
paths = (
{
closed = 1;
nodes = (
"172 462 LINE SMOOTH",
"181 550 OFFCURVE",
"181 609 QCURVE SMOOTH",
"181 622 OFFCURVE",
"159 648 OFFCURVE",
"129 664 OFFCURVE",
"117 661 QCURVE SMOOTH",
"89 655 OFFCURVE",
"60 636 OFFCURVE",
"60 611 QCURVE SMOOTH",
"60 310 OFFCURVE",
"61 159 QCURVE SMOOTH",
"61 129 OFFCURVE",
"111 80 OFFCURVE",
"141 80 QCURVE SMOOTH",
"178 79 OFFCURVE",
"182 115 QCURVE SMOOTH",
"194 208 OFFCURVE",
"260 280 QCURVE",
"269 291 OFFCURVE",
"299 310 OFFCURVE",
"305 307 QCURVE",
"326 295 OFFCURVE",
"342 258 QCURVE SMOOTH",
"345 251 OFFCURVE",
"345 241 QCURVE SMOOTH",
"345 231 OFFCURVE",
"343 217 OFFCURVE",
"342 213 QCURVE",
"338 184 OFFCURVE",
"280 106 OFFCURVE",
"203 47 OFFCURVE",
"172 44 QCURVE SMOOTH",
"163 43 OFFCURVE",
"140 32 OFFCURVE",
"133 29 QCURVE",
"136 17 OFFCURVE",
"136 7 QCURVE",
"180 -1 OFFCURVE",
"199 -1 QCURVE SMOOTH",
"211 -1 OFFCURVE",
"217 0 QCURVE SMOOTH",
"337 18 OFFCURVE",
"403 107 QCURVE SMOOTH",
"449 168 OFFCURVE",
"449 223 QCURVE SMOOTH",
"449 293 OFFCURVE",
"378 345 QCURVE SMOOTH",
"331 380 OFFCURVE",
"289 380 QCURVE SMOOTH",
"249 380 OFFCURVE",
"205 349 QCURVE",
"196 342 OFFCURVE",
"187 332 QCURVE SMOOTH",
"171 314 OFFCURVE",
"159 309 QCURVE",
"160 332 OFFCURVE",
"164 370 QCURVE",
"169 403 OFFCURVE",
"169 422 QCURVE"
);
}
);
userData = {
assembly = "NPUSHB[ ]	/* 14 values pushed */\0123 1 2 0 21 1 1 2 2 76 59 1 0 74 \012MPPEM[ ]	/* MeasurePixelPerEm */\012PUSHB[ ]	/* 1 value pushed */\01224 \012LT[ ]	/* LessThan */\012IF[ ]	/* If */\012NPUSHB[ ]	/* 19 values pushed */\0120 2 0 1 0 2 1 128 0 0 0 33 77 0 1 1 40 1 78 \012ELSE[ ]	/* Else */\012MPPEM[ ]	/* MeasurePixelPerEm */\012PUSHB[ ]	/* 1 value pushed */\01241 \012LT[ ]	/* LessThan */\012IF[ ]	/* If */\012NPUSHB[ ]	/* 16 values pushed */\0120 0 2 0 133 0 2 1 2 133 0 1 1 40 1 78 \012ELSE[ ]	/* Else */\012NPUSHB[ ]	/* 14 values pushed */\0120 0 2 0 133 0 2 1 2 133 0 1 1 118 \012EIF[ ]	/* EndIf */\012EIF[ ]	/* EndIf */\012PUSHB[ ]	/* 7 values pushed */\01245 43 55 40 3 8 24 \012CALL[ ]	/* CallFunction */";
};
width = 499;
}
);
leftKerningGroup = b;
leftMetricsKey = "=n";
note = b;
rightKerningGroup = b;
rightMetricsKey = "=o";
unicode = 0062;
},
{
glyphname = c;
lastChange = "2020-12-07 02:27:23 +0000";
layers = (
{
layerId = "D6A4831D-747C-4592-93C0-305F4CD57904";
paths = (
{
closed = 1;
nodes = (
"321 27 OFFCURVE",
"398 56 OFFCURVE",
"438 102 QCURVE SMOOTH",
"445 109 OFFCURVE",
"445 131 QCURVE SMOOTH",
"445 136 OFFCURVE",
"444 153 OFFCURVE",
"436 161 OFFCURVE",
"403 158 OFFCURVE",
"393 153 QCURVE SMOOTH",
"374 141 LINE SMOOTH",
"341 120 OFFCURVE",
"291 97 OFFCURVE",
"263 97 QCURVE SMOOTH",
"218 97 OFFCURVE",
"179 135 OFFCURVE",
"179 181 QCURVE SMOOTH",
"179 251 OFFCURVE",
"261 332 OFFCURVE",
"329 324 QCURVE SMOOTH",
"339 323 OFFCURVE",
"363 342 OFFCURVE",
"363 350 QCURVE SMOOTH",
"363 356 OFFCURVE",
"355 375 OFFCURVE",
"351 378 QCURVE SMOOTH",
"329 395 OFFCURVE",
"271 415 OFFCURVE",
"241 415 QCURVE SMOOTH",
"183 415 OFFCURVE",
"148 381 QCURVE SMOOTH",
"141 374 OFFCURVE",
"126 356 QCURVE SMOOTH",
"107 333 LINE SMOOTH",
"89 313 OFFCURVE",
"60 251 OFFCURVE",
"60 217 QCURVE SMOOTH",
"61 178 OFFCURVE",
"74 150 QCURVE",
"114 20 OFFCURVE",
"248 21 QCURVE"
);
}
);
userData = {
assembly = "PUSHB[ ]	/* 6 values pushed */\01239 1 3 2 1 76 \012MPPEM[ ]	/* MeasurePixelPerEm */\012PUSHB[ ]	/* 1 value pushed */\01226 \012LT[ ]	/* LessThan */\012IF[ ]	/* If */\012NPUSHB[ ]	/* 17 values pushed */\0120 2 2 33 77 0 3 3 0 98 1 1 0 0 34 0 78 \012ELSE[ ]	/* Else */\012MPPEM[ ]	/* MeasurePixelPerEm */\012PUSHB[ ]	/* 1 value pushed */\01244 \012LT[ ]	/* LessThan */\012IF[ ]	/* If */\012NPUSHB[ ]	/* 17 values pushed */\0120 2 3 2 133 0 3 3 0 98 1 1 0 0 34 0 78 \012ELSE[ ]	/* Else */\012NPUSHB[ ]	/* 22 values pushed */\0120 2 3 2 133 0 3 0 0 3 89 0 3 3 0 98 1 1 0 3 0 82 \012EIF[ ]	/* EndIf */\012EIF[ ]	/* EndIf */\012PUSHB[ ]	/* 7 values pushed */\01245 42 34 17 4 8 26 \012CALL[ ]	/* CallFunction */";
};
width = 495;
}
);
leftKerningGroup = o;
leftMetricsKey = "=o";
note = c;
rightKerningGroup = o;
unicode = 0063;
},
{
glyphname = d;
lastChange = "2020-12-07 02:26:01 +0000";
layers = (
{
layerId = "D6A4831D-747C-4592-93C0-305F4CD57904";
paths = (
{
closed = 1;
nodes = (
"431 178 OFFCURVE",
"415 314 QCURVE SMOOTH",
"397 466 LINE SMOOTH",
"384 565 OFFCURVE",
"369 627 QCURVE SMOOTH",
"365 644 OFFCURVE",
"319 671 OFFCURVE",
"298 671 QCURVE SMOOTH",
"290 671 OFFCURVE",
"284 668 QCURVE SMOOTH",
"269 661 OFFCURVE",
"257 640 OFFCURVE",
"257 626 QCURVE SMOOTH",
"257 619 OFFCURVE",
"261 597 OFFCURVE",
"262 592 QCURVE SMOOTH",
"273 538 OFFCURVE",
"287 423 QCURVE SMOOTH",
"288 415 LINE",
"288 393 OFFCURVE",
"265 393 QCURVE SMOOTH",
"259 393 OFFCURVE",
"256 394 QCURVE",
"249 395 OFFCURVE",
"236 395 QCURVE SMOOTH",
"196 395 OFFCURVE",
"130 356 OFFCURVE",
"106 323 QCURVE SMOOTH",
"85 294 OFFCURVE",
"60 204 OFFCURVE",
"60 160 QCURVE SMOOTH",
"60 99 OFFCURVE",
"80 68 QCURVE SMOOTH",
"99 38 OFFCURVE",
"168 3 OFFCURVE",
"205 3 QCURVE SMOOTH",
"238 3 OFFCURVE",
"296 33 OFFCURVE",
"317 63 QCURVE SMOOTH",
"326 76 OFFCURVE",
"334 76 QCURVE SMOOTH",
"342 76 OFFCURVE",
"354 62 QCURVE",
"370 41 OFFCURVE",
"396 22 OFFCURVE",
"411 22 QCURVE SMOOTH",
"431 22 OFFCURVE",
"465 41 QCURVE",
"462 49 OFFCURVE",
"457 61 OFFCURVE",
"455 66 QCURVE",
"442 93 OFFCURVE",
"440 110 QCURVE SMOOTH"
);
},
{
closed = 1;
nodes = (
"182 260 OFFCURVE",
"208 300 OFFCURVE",
"231 327 QCURVE",
"236 334 OFFCURVE",
"274 347 OFFCURVE",
"282 345 QCURVE",
"287 344 OFFCURVE",
"296 321 OFFCURVE",
"295 312 QCURVE",
"293 249 OFFCURVE",
"278 167 OFFCURVE",
"255 134 QCURVE",
"244 115 LINE SMOOTH",
"231 93 OFFCURVE",
"212 70 OFFCURVE",
"196 61 QCURVE",
"156 88 OFFCURVE",
"156 145 QCURVE SMOOTH",
"155 186 OFFCURVE",
"173 235 QCURVE SMOOTH"
);
}
);
userData = {
assembly = "NPUSHB[ ]	/* 15 values pushed */\01233 1 3 5 63 1 1 3 56 4 2 0 1 3 76 \012MPPEM[ ]	/* MeasurePixelPerEm */\012PUSHB[ ]	/* 1 value pushed */\01221 \012LT[ ]	/* LessThan */\012IF[ ]	/* If */\012NPUSHB[ ]	/* 30 values pushed */\0120 1 3 0 3 1 0 128 0 5 5 30 77 4 1 3 3 33 77 0 0 0 34 77 0 2 2 40 2 78 \012ELSE[ ]	/* Else */\012MPPEM[ ]	/* MeasurePixelPerEm */\012PUSHB[ ]	/* 1 value pushed */\01244 \012LT[ ]	/* LessThan */\012IF[ ]	/* If */\012NPUSHB[ ]	/* 30 values pushed */\0120 5 3 5 133 0 1 3 0 3 1 0 128 4 1 3 3 33 77 0 0 0 34 77 0 2 2 40 2 78 \012ELSE[ ]	/* Else */\012NPUSHB[ ]	/* 32 values pushed */\0120 5 3 5 133 0 1 3 0 3 1 0 128 0 0 2 3 0 2 126 4 1 3 3 33 77 0 2 2 40 2 78 \012EIF[ ]	/* EndIf */\012EIF[ ]	/* EndIf */\012NPUSHB[ ]	/* 9 values pushed */\01243 34 41 35 35 37 6 8 28 \012CALL[ ]	/* CallFunction */";
};
width = 515;
}
);
leftKerningGroup = d;
leftMetricsKey = "=o";
note = d;
unicode = 0064;
},
{
glyphname = e;
lastChange = "2020-12-07 03:52:48 +0000";
layers = (
{
layerId = "D6A4831D-747C-4592-93C0-305F4CD57904";
paths = (
{
closed = 1;
nodes = (
"273 161 OFFCURVE",
"322 188 OFFCURVE",
"374 222 OFFCURVE",
"393 244 QCURVE SMOOTH",
"432 291 OFFCURVE",
"432 324 QCURVE SMOOTH",
"432 376 OFFCURVE",
"336 406 QCURVE SMOOTH",
"305 416 OFFCURVE",
"272 416 QCURVE SMOOTH",
"226 416 OFFCURVE",
"172 393 QCURVE SMOOTH",
"113 367 OFFCURVE",
"60 309 OFFCURVE",
"60 262 QCURVE SMOOTH",
"60 232 OFFCURVE",
"68 201 QCURVE SMOOTH",
"80 148 OFFCURVE",
"155 61 OFFCURVE",
"261 11 OFFCURVE",
"318 11 QCURVE SMOOTH",
"373 11 OFFCURVE",
"456 41 OFFCURVE",
"482 81 QCURVE",
"490 92 OFFCURVE",
"490 112 QCURVE SMOOTH",
"490 131 OFFCURVE",
"482 144 QCURVE",
"474 155 OFFCURVE",
"463 155 QCURVE SMOOTH",
"446 155 OFFCURVE",
"427 136 QCURVE SMOOTH",
"400 110 OFFCURVE",
"363 91 QCURVE",
"338 77 OFFCURVE",
"306 77 QCURVE SMOOTH",
"269 77 OFFCURVE",
"209 118 OFFCURVE",
"201 151 QCURVE",
"208 152 OFFCURVE",
"228 150 OFFCURVE",
"235 150 QCURVE SMOOTH",
"254 150 OFFCURVE",
"264 156 QCURVE SMOOTH"
);
},
{
closed = 1;
nodes = (
"307 337 OFFCURVE",
"307 327 QCURVE SMOOTH",
"307 311 OFFCURVE",
"301 305 QCURVE",
"265 273 OFFCURVE",
"194 220 QCURVE",
"192 218 OFFCURVE",
"173 230 OFFCURVE",
"172 234 QCURVE",
"171 242 LINE",
"171 267 OFFCURVE",
"208 321 OFFCURVE",
"264 356 OFFCURVE",
"291 354 QCURVE",
"292 353 OFFCURVE",
"305 346 OFFCURVE",
"306 341 QCURVE"
);
}
);
userData = {
assembly = "PUSHB[ ]	/* 6 values pushed */\01250 1 2 4 1 76 \012MPPEM[ ]	/* MeasurePixelPerEm */\012PUSHB[ ]	/* 1 value pushed */\01231 \012LT[ ]	/* LessThan */\012IF[ ]	/* If */\012NPUSHB[ ]	/* 29 values pushed */\0120 2 4 0 4 2 0 128 0 0 0 4 97 0 4 4 33 77 0 1 1 3 97 0 3 3 40 3 78 \012ELSE[ ]	/* Else */\012NPUSHB[ ]	/* 27 values pushed */\0120 2 4 0 4 2 0 128 0 4 0 0 1 4 0 105 0 1 1 3 97 0 3 3 40 3 78 \012EIF[ ]	/* EndIf */\012PUSHB[ ]	/* 8 values pushed */\01241 39 36 37 16 5 8 27 \012CALL[ ]	/* CallFunction */";
};
width = 540;
}
);
leftKerningGroup = e;
leftMetricsKey = "=o";
note = e;
rightKerningGroup = e;
unicode = 0065;
},
{
glyphname = f;
lastChange = "2020-12-07 03:53:49 +0000";
layers = (
{
layerId = "D6A4831D-747C-4592-93C0-305F4CD57904";
paths = (
{
closed = 1;
nodes = (
"243 339 OFFCURVE",
"246 363 QCURVE",
"248 387 OFFCURVE",
"248 400 QCURVE",
"250 422 OFFCURVE",
"262 452 OFFCURVE",
"296 445 QCURVE SMOOTH",
"348 450 OFFCURVE",
"338 507 QCURVE SMOOTH",
"336 527 OFFCURVE",
"282 562 OFFCURVE",
"261 564 QCURVE SMOOTH",
"252 565 OFFCURVE",
"236 565 QCURVE SMOOTH",
"199 565 OFFCURVE",
"157 538 OFFCURVE",
"153 509 QCURVE SMOOTH",
"148 475 OFFCURVE",
"144 387 OFFCURVE",
"143 345 QCURVE SMOOTH",
"141 281 LINE SMOOTH",
"140 249 OFFCURVE",
"115 219 OFFCURVE",
"79 214 QCURVE SMOOTH",
"73 213 OFFCURVE",
"60 200 OFFCURVE",
"60 195 QCURVE SMOOTH",
"60 189 OFFCURVE",
"70 176 OFFCURVE",
"76 171 QCURVE",
"83 165 OFFCURVE",
"101 165 QCURVE SMOOTH",
"156 165 OFFCURVE",
"158 107 QCURVE",
"190 -59 LINE",
"212 -151 OFFCURVE",
"221 -197 QCURVE SMOOTH",
"226 -221 OFFCURVE",
"248 -243 OFFCURVE",
"270 -243 QCURVE SMOOTH",
"296 -243 OFFCURVE",
"314 -224 OFFCURVE",
"314 -205 QCURVE SMOOTH",
"314 -179 OFFCURVE",
"304 -131 QCURVE SMOOTH",
"286 -43 LINE SMOOTH",
"281 -16 OFFCURVE",
"265 65 OFFCURVE",
"253 119 QCURVE",
"251 133 OFFCURVE",
"251 138 QCURVE SMOOTH",
"251 173 OFFCURVE",
"287 180 QCURVE SMOOTH",
"310 184 OFFCURVE",
"319 185 QCURVE",
"365 193 OFFCURVE",
"388 198 QCURVE",
"395 199 OFFCURVE",
"411 212 OFFCURVE",
"415 215 QCURVE",
"413 218 OFFCURVE",
"403 235 OFFCURVE",
"398 237 QCURVE",
"385 262 OFFCURVE",
"328 262 QCURVE SMOOTH",
"305 262 LINE",
"277 256 OFFCURVE",
"264 256 QCURVE SMOOTH",
"250 256 OFFCURVE",
"243 278 OFFCURVE",
"243 314 QCURVE SMOOTH"
);
}
);
userData = {
assembly = "NPUSHB[ ]	/* 41 values pushed */\01268 4 2 0 3 38 19 2 1 0 2 76 0 2 3 2 133 0 3 0 3 133 0 0 1 0 133 0 1 1 118 66 64 59 57 31 29 33 4 8 23 \012CALL[ ]	/* CallFunction */";
};
width = 445;
}
);
note = f;
rightKerningGroup = f;
unicode = 0066;
},
{
glyphname = g;
lastChange = "2020-12-07 01:11:22 +0000";
layers = (
{
layerId = "D6A4831D-747C-4592-93C0-305F4CD57904";
paths = (
{
closed = 1;
nodes = (
"401 258 OFFCURVE",
"412 262 OFFCURVE",
"432 267 OFFCURVE",
"441 272 QCURVE",
"454 283 OFFCURVE",
"466 301 OFFCURVE",
"473 314 QCURVE",
"487 336 OFFCURVE",
"490 340 QCURVE",
"493 345 OFFCURVE",
"493 354 QCURVE SMOOTH",
"493 359 OFFCURVE",
"491 367 QCURVE",
"484 387 OFFCURVE",
"454 408 OFFCURVE",
"435 408 QCURVE SMOOTH",
"409 408 OFFCURVE",
"386 389 QCURVE",
"370 374 OFFCURVE",
"339 360 OFFCURVE",
"320 360 QCURVE SMOOTH",
"306 360 OFFCURVE",
"291 364 QCURVE SMOOTH",
"270 370 LINE",
"267 371 OFFCURVE",
"231 381 OFFCURVE",
"214 381 QCURVE SMOOTH",
"191 381 OFFCURVE",
"170 370 QCURVE SMOOTH",
"81 324 OFFCURVE",
"63 214 QCURVE SMOOTH",
"60 196 OFFCURVE",
"60 176 QCURVE SMOOTH",
"60 104 OFFCURVE",
"114 72 QCURVE SMOOTH",
"129 63 OFFCURVE",
"170 35 OFFCURVE",
"168 29 QCURVE",
"156 -12 OFFCURVE",
"156 -22 QCURVE SMOOTH",
"156 -32 OFFCURVE",
"170 -46 OFFCURVE",
"188 -55 QCURVE SMOOTH",
"224 -73 OFFCURVE",
"275 -91 OFFCURVE",
"303 -96 QCURVE SMOOTH",
"329 -101 OFFCURVE",
"354 -125 OFFCURVE",
"354 -151 QCURVE SMOOTH",
"354 -169 OFFCURVE",
"337 -210 OFFCURVE",
"324 -226 QCURVE",
"286 -276 OFFCURVE",
"183 -283 QCURVE SMOOTH",
"155 -285 OFFCURVE",
"121 -249 OFFCURVE",
"107 -218 QCURVE",
"105 -211 OFFCURVE",
"100 -209 QCURVE",
"98 -208 OFFCURVE",
"87 -203 OFFCURVE",
"84 -203 QCURVE SMOOTH",
"81 -203 OFFCURVE",
"80 -204 QCURVE",
"76 -205 OFFCURVE",
"70 -216 OFFCURVE",
"69 -221 QCURVE",
"68 -243 OFFCURVE",
"93 -301 OFFCURVE",
"135 -348 OFFCURVE",
"156 -355 QCURVE SMOOTH",
"201 -370 OFFCURVE",
"244 -369 QCURVE SMOOTH",
"302 -368 OFFCURVE",
"404 -319 OFFCURVE",
"438 -269 QCURVE SMOOTH",
"470 -222 OFFCURVE",
"470 -174 QCURVE SMOOTH",
"470 -135 OFFCURVE",
"424 -70 OFFCURVE",
"379 -49 QCURVE SMOOTH",
"364 -42 OFFCURVE",
"332 -24 QCURVE SMOOTH",
"297 -5 LINE",
"343 39 OFFCURVE",
"384 106 OFFCURVE",
"398 180 OFFCURVE",
"401 252 QCURVE"
);
},
{
closed = 1;
nodes = (
"221 302 OFFCURVE",
"267 320 QCURVE",
"291 308 OFFCURVE",
"307 264 OFFCURVE",
"307 237 QCURVE SMOOTH",
"307 193 OFFCURVE",
"265 119 OFFCURVE",
"227 104 QCURVE",
"193 121 OFFCURVE",
"160 168 OFFCURVE",
"160 194 QCURVE SMOOTH",
"160 231 OFFCURVE",
"191 267 QCURVE SMOOTH"
);
}
);
userData = {
assembly = "NPUSHB[ ]	/* 11 values pushed */\01298 92 49 25 20 3 6 1 3 1 76 \012MPPEM[ ]	/* MeasurePixelPerEm */\012PUSHB[ ]	/* 1 value pushed */\01226 \012LT[ ]	/* LessThan */\012IF[ ]	/* If */\012NPUSHB[ ]	/* 26 values pushed */\0120 3 2 1 2 3 1 128 0 1 0 0 1 0 101 0 4 4 33 77 0 2 2 33 2 78 \012ELSE[ ]	/* Else */\012NPUSHB[ ]	/* 28 values pushed */\0120 2 4 3 4 2 3 128 0 3 1 4 3 1 126 0 1 0 0 1 0 101 0 4 4 33 4 78 \012EIF[ ]	/* EndIf */\012NPUSHB[ ]	/* 12 values pushed */\01272 70 67 65 61 59 34 32 45 5 8 23 \012CALL[ ]	/* CallFunction */";
};
width = 543;
}
);
note = g;
unicode = 0067;
},
{
glyphname = h;
lastChange = "2020-12-07 01:46:02 +0000";
layers = (
{
layerId = "D6A4831D-747C-4592-93C0-305F4CD57904";
paths = (
{
closed = 1;
nodes = (
"179 605 LINE SMOOTH",
"179 633 OFFCURVE",
"161 670 OFFCURVE",
"140 684 QCURVE SMOOTH",
"128 691 OFFCURVE",
"111 691 QCURVE SMOOTH",
"91 691 OFFCURVE",
"60 670 OFFCURVE",
"60 655 QCURVE SMOOTH",
"60 618 LINE",
"60 548 LINE SMOOTH",
"60 462 OFFCURVE",
"71 397 QCURVE SMOOTH",
"96 266 OFFCURVE",
"96 67 QCURVE SMOOTH",
"96 47 OFFCURVE",
"116 26 OFFCURVE",
"151 16 OFFCURVE",
"158 14 QCURVE",
"168 12 OFFCURVE",
"171 12 QCURVE SMOOTH",
"191 12 OFFCURVE",
"203 49 QCURVE SMOOTH",
"235 152 OFFCURVE",
"261 186 QCURVE",
"268 198 OFFCURVE",
"318 212 OFFCURVE",
"337 207 OFFCURVE",
"343 189 QCURVE",
"350 174 OFFCURVE",
"352 137 QCURVE SMOOTH",
"354 101 OFFCURVE",
"354 82 QCURVE",
"356 27 LINE SMOOTH",
"357 4 OFFCURVE",
"410 -44 OFFCURVE",
"434 -44 QCURVE SMOOTH",
"440 -44 OFFCURVE",
"444 -43 QCURVE",
"452 -41 OFFCURVE",
"469 -22 OFFCURVE",
"469 -14 QCURVE SMOOTH",
"470 68 LINE SMOOTH",
"471 136 OFFCURVE",
"457 176 QCURVE SMOOTH",
"438 229 OFFCURVE",
"350 312 OFFCURVE",
"289 291 QCURVE SMOOTH",
"243 275 OFFCURVE",
"207 249 QCURVE",
"189 323 OFFCURVE",
"180 481 OFFCURVE",
"179 583 QCURVE"
);
}
);
userData = {
assembly = "NPUSHB[ ]	/* 10 values pushed */\0122 1 2 0 10 1 1 3 2 76 \012MPPEM[ ]	/* MeasurePixelPerEm */\012PUSHB[ ]	/* 1 value pushed */\01249 \012LT[ ]	/* LessThan */\012IF[ ]	/* If */\012NPUSHB[ ]	/* 24 values pushed */\0120 1 3 1 134 0 0 0 2 3 0 2 105 0 4 4 32 77 0 3 3 31 3 78 \012ELSE[ ]	/* Else */\012NPUSHB[ ]	/* 26 values pushed */\0120 3 2 1 2 3 1 128 0 1 1 132 0 0 0 2 3 0 2 105 0 4 4 32 4 78 \012EIF[ ]	/* EndIf */\012PUSHB[ ]	/* 8 values pushed */\01246 22 25 26 35 5 8 27 \012CALL[ ]	/* CallFunction */";
};
width = 520;
}
);
leftKerningGroup = b;
leftMetricsKey = "=n";
note = h;
rightKerningGroup = b;
rightMetricsKey = "=n";
unicode = 0068;
},
{
glyphname = i;
lastChange = "2020-12-07 01:44:31 +0000";
layers = (
{
layerId = "D6A4831D-747C-4592-93C0-305F4CD57904";
paths = (
{
closed = 1;
nodes = (
"177 482 OFFCURVE",
"168 513 OFFCURVE",
"162 514 QCURVE",
"112 539 OFFCURVE",
"77 539 QCURVE SMOOTH",
"68 539 OFFCURVE",
"60 528 OFFCURVE",
"60 521 QCURVE SMOOTH",
"60 509 OFFCURVE",
"68 502 QCURVE",
"67 453 OFFCURVE",
"104 447 QCURVE SMOOTH",
"144 440 LINE",
"150 447 OFFCURVE",
"173 465 OFFCURVE",
"174 472 QCURVE"
);
},
{
closed = 1;
nodes = (
"78 261 LINE",
"104 49 LINE",
"108 27 OFFCURVE",
"143 -1 OFFCURVE",
"168 -1 QCURVE SMOOTH",
"197 -1 OFFCURVE",
"217 28 OFFCURVE",
"215 55 QCURVE SMOOTH",
"201 226 LINE",
"201 231 OFFCURVE",
"199 265 OFFCURVE",
"196 279 QCURVE SMOOTH",
"191 307 OFFCURVE",
"148 342 OFFCURVE",
"120 342 QCURVE SMOOTH",
"96 342 OFFCURVE",
"79 326 OFFCURVE",
"79 312 QCURVE SMOOTH",
"79 305 OFFCURVE",
"77 293 OFFCURVE",
"74 280 QCURVE"
);
}
);
userData = {
assembly = "NPUSHB[ ]	/* 11 values pushed */\0127 2 2 1 0 16 1 2 1 2 76 \012MPPEM[ ]	/* MeasurePixelPerEm */\012PUSHB[ ]	/* 1 value pushed */\01241 \012LT[ ]	/* LessThan */\012IF[ ]	/* If */\012NPUSHB[ ]	/* 16 values pushed */\0120 0 1 0 133 0 1 1 2 97 0 2 2 40 2 78 \012ELSE[ ]	/* Else */\012NPUSHB[ ]	/* 21 values pushed */\0120 0 1 0 133 0 1 2 2 1 89 0 1 1 2 97 0 2 1 2 81 \012EIF[ ]	/* EndIf */\012PUSHB[ ]	/* 6 values pushed */\01240 42 41 3 8 25 \012CALL[ ]	/* CallFunction */";
};
width = 265;
}
);
leftKerningGroup = i;
leftMetricsKey = "=n";
note = i;
rightKerningGroup = i;
unicode = 0069;
},
{
glyphname = j;
lastChange = "2020-12-07 03:49:39 +0000";
layers = (
{
layerId = "D6A4831D-747C-4592-93C0-305F4CD57904";
paths = (
{
closed = 1;
nodes = (
"249 537 OFFCURVE",
"241 558 OFFCURVE",
"235 563 QCURVE",
"205 585 OFFCURVE",
"185 585 QCURVE SMOOTH",
"179 585 OFFCURVE",
"165 577 OFFCURVE",
"149 563 OFFCURVE",
"143 559 QCURVE",
"148 554 OFFCURVE",
"163 533 OFFCURVE",
"170 528 QCURVE SMOOTH",
"178 522 OFFCURVE",
"208 512 OFFCURVE",
"216 509 QCURVE",
"221 512 OFFCURVE",
"243 524 OFFCURVE",
"246 531 QCURVE"
);
},
{
closed = 1;
nodes = (
"201 -311 OFFCURVE",
"181 -328 OFFCURVE",
"170 -328 QCURVE SMOOTH",
"151 -328 OFFCURVE",
"133 -303 QCURVE SMOOTH",
"116 -282 OFFCURVE",
"88 -226 QCURVE SMOOTH",
"79 -208 LINE",
"75 -201 OFFCURVE",
"66 -178 OFFCURVE",
"53 -162 OFFCURVE",
"41 -162 QCURVE SMOOTH",
"10 -162 OFFCURVE",
"10 -196 QCURVE SMOOTH",
"10 -203 OFFCURVE",
"12 -218 OFFCURVE",
"12 -225 QCURVE",
"18 -323 OFFCURVE",
"115 -373 QCURVE SMOOTH",
"163 -398 OFFCURVE",
"204 -398 QCURVE SMOOTH",
"242 -398 OFFCURVE",
"271 -377 QCURVE SMOOTH",
"324 -339 OFFCURVE",
"324 -271 QCURVE SMOOTH",
"324 -250 OFFCURVE",
"320 -233 QCURVE SMOOTH",
"315 -203 OFFCURVE",
"303 -143 QCURVE SMOOTH",
"301 -133 OFFCURVE",
"284 -40 OFFCURVE",
"272 0 QCURVE SMOOTH",
"251 70 OFFCURVE",
"238 213 OFFCURVE",
"234 315 QCURVE SMOOTH",
"232 366 LINE SMOOTH",
"231 388 OFFCURVE",
"203 416 OFFCURVE",
"178 417 QCURVE",
"152 419 OFFCURVE",
"123 405 OFFCURVE",
"123 380 QCURVE SMOOTH",
"123 357 OFFCURVE",
"122 346 QCURVE",
"121 311 LINE SMOOTH",
"120 291 OFFCURVE",
"124 271 QCURVE SMOOTH",
"147 166 OFFCURVE",
"187 -42 QCURVE SMOOTH",
"193 -73 LINE SMOOTH",
"214 -182 OFFCURVE",
"225 -223 QCURVE",
"221 -243 LINE SMOOTH",
"215 -275 OFFCURVE",
"207 -295 QCURVE SMOOTH"
);
}
);
userData = {
assembly = "NPUSHB[ ]	/* 63 values pushed */\0128 1 0 1 28 1 4 2 55 1 5 4 3 76 0 1 0 1 133 0 0 2 0 133 0 2 4 2 133 0 4 5 4 133 0 5 3 3 5 89 0 5 5 3 97 0 3 5 3 81 70 68 61 59 52 50 34 33 40 33 6 8 24 \012CALL[ ]	/* CallFunction */";
};
width = 334;
}
);
leftKerningGroup = j;
note = j;
rightKerningGroup = j;
unicode = 006A;
},
{
glyphname = k;
lastChange = "2020-12-07 02:22:43 +0000";
layers = (
{
layerId = "D6A4831D-747C-4592-93C0-305F4CD57904";
paths = (
{
closed = 1;
nodes = (
"183 509 OFFCURVE",
"187 544 QCURVE SMOOTH",
"197 646 LINE SMOOTH",
"199 676 OFFCURVE",
"165 704 OFFCURVE",
"128 704 QCURVE SMOOTH",
"74 704 OFFCURVE",
"73 651 QCURVE SMOOTH",
"63 325 LINE SMOOTH",
"60 205 OFFCURVE",
"60 84 QCURVE SMOOTH",
"60 42 OFFCURVE",
"71 -2 QCURVE SMOOTH",
"73 -9 OFFCURVE",
"92 -23 OFFCURVE",
"100 -24 QCURVE",
"124 -28 OFFCURVE",
"151 6 OFFCURVE",
"153 39 QCURVE SMOOTH",
"155 91 OFFCURVE",
"161 203 QCURVE",
"162 207 OFFCURVE",
"159 228 OFFCURVE",
"159 237 QCURVE SMOOTH",
"159 247 OFFCURVE",
"161 252 QCURVE",
"161 252 OFFCURVE",
"182 231 QCURVE SMOOTH",
"200 214 LINE SMOOTH",
"201 213 OFFCURVE",
"241 176 QCURVE SMOOTH",
"307 114 OFFCURVE",
"343 89 QCURVE SMOOTH",
"365 74 OFFCURVE",
"417 64 QCURVE",
"427 63 OFFCURVE",
"442 59 QCURVE",
"447 58 OFFCURVE",
"461 68 OFFCURVE",
"462 73 QCURVE",
"463 77 OFFCURVE",
"457 92 OFFCURVE",
"452 94 QCURVE",
"408 116 OFFCURVE",
"341 183 OFFCURVE",
"298 238 QCURVE SMOOTH",
"276 266 OFFCURVE",
"264 280 QCURVE SMOOTH",
"250 297 OFFCURVE",
"250 311 QCURVE SMOOTH",
"250 326 OFFCURVE",
"265 342 QCURVE",
"304 388 OFFCURVE",
"319 411 QCURVE",
"323 416 OFFCURVE",
"323 426 QCURVE SMOOTH",
"323 439 OFFCURVE",
"317 449 QCURVE SMOOTH",
"306 466 OFFCURVE",
"284 466 QCURVE SMOOTH",
"257 466 OFFCURVE",
"231 442 QCURVE",
"219 432 OFFCURVE",
"203 414 QCURVE",
"174 386 LINE",
"172 388 OFFCURVE",
"172 396 QCURVE SMOOTH",
"172 407 OFFCURVE",
"177 444 OFFCURVE",
"177 449 QCURVE"
);
}
);
userData = {
assembly = "NPUSHB[ ]	/* 12 values pushed */\01266 1 0 1 1 76 45 4 2 3 0 73 \012MPPEM[ ]	/* MeasurePixelPerEm */\012PUSHB[ ]	/* 1 value pushed */\01221 \012LT[ ]	/* LessThan */\012IF[ ]	/* If */\012NPUSHB[ ]	/* 11 values pushed */\0120 0 1 0 134 0 1 1 36 1 78 \012ELSE[ ]	/* Else */\012NPUSHB[ ]	/* 9 values pushed */\0120 1 0 1 133 0 0 0 118 \012EIF[ ]	/* EndIf */\012PUSHB[ ]	/* 6 values pushed */\01264 62 40 2 8 23 \012CALL[ ]	/* CallFunction */";
};
width = 482;
}
);
leftKerningGroup = k;
leftMetricsKey = "=n";
note = k;
rightKerningGroup = k;
unicode = 006B;
},
{
glyphname = l;
lastChange = "2020-12-07 01:44:31 +0000";
layers = (
{
layerId = "D6A4831D-747C-4592-93C0-305F4CD57904";
paths = (
{
closed = 1;
nodes = (
"165 50 LINE",
"164 53 OFFCURVE",
"160 77 OFFCURVE",
"161 87 QCURVE",
"164 172 OFFCURVE",
"172 342 QCURVE SMOOTH",
"178 462 LINE SMOOTH",
"183 568 OFFCURVE",
"186 621 QCURVE SMOOTH",
"188 656 OFFCURVE",
"143 699 OFFCURVE",
"110 699 QCURVE SMOOTH",
"60 699 OFFCURVE",
"60 662 QCURVE SMOOTH",
"60 655 OFFCURVE",
"61 650 QCURVE",
"68 621 OFFCURVE",
"68 586 QCURVE SMOOTH",
"69 410 LINE SMOOTH",
"71 292 OFFCURVE",
"71 58 QCURVE SMOOTH",
"71 29 OFFCURVE",
"97 -2 QCURVE SMOOTH",
"109 -16 OFFCURVE",
"140 -28 OFFCURVE",
"183 -28 OFFCURVE",
"192 -28 QCURVE",
"217 -30 OFFCURVE",
"254 -14 OFFCURVE",
"258 6 QCURVE SMOOTH",
"259 11 OFFCURVE",
"259 21 QCURVE SMOOTH",
"259 44 OFFCURVE",
"245 84 QCURVE",
"239 99 OFFCURVE",
"227 99 QCURVE SMOOTH",
"215 99 OFFCURVE",
"204 84 QCURVE",
"195 70 OFFCURVE",
"175 46 QCURVE"
);
}
);
userData = {
assembly = "NPUSHB[ ]	/* 11 values pushed */\01225 1 0 2 39 35 2 1 0 2 76 \012MPPEM[ ]	/* MeasurePixelPerEm */\012PUSHB[ ]	/* 1 value pushed */\01221 \012LT[ ]	/* LessThan */\012IF[ ]	/* If */\012NPUSHB[ ]	/* 19 values pushed */\0120 0 2 1 2 0 1 128 0 2 2 36 77 0 1 1 31 1 78 \012ELSE[ ]	/* Else */\012MPPEM[ ]	/* MeasurePixelPerEm */\012PUSHB[ ]	/* 1 value pushed */\01249 \012LT[ ]	/* LessThan */\012IF[ ]	/* If */\012NPUSHB[ ]	/* 16 values pushed */\0120 2 0 2 133 0 0 1 0 133 0 1 1 31 1 78 \012ELSE[ ]	/* Else */\012NPUSHB[ ]	/* 14 values pushed */\0120 2 0 2 133 0 0 1 0 133 0 1 1 118 \012EIF[ ]	/* EndIf */\012EIF[ ]	/* EndIf */\012PUSHB[ ]	/* 6 values pushed */\01244 40 34 3 8 25 \012CALL[ ]	/* CallFunction */";
};
width = 309;
}
);
leftKerningGroup = l;
leftMetricsKey = "=n";
note = l;
rightKerningGroup = l;
unicode = 006C;
},
{
glyphname = m;
lastChange = "2020-12-07 04:03:16 +0000";
layers = (
{
layerId = "D6A4831D-747C-4592-93C0-305F4CD57904";
paths = (
{
closed = 1;
nodes = (
"564 226 OFFCURVE",
"566 173 OFFCURVE",
"567 156 QCURVE SMOOTH",
"573 50 LINE",
"573 44 OFFCURVE",
"585 28 OFFCURVE",
"592 25 QCURVE",
"609 16 OFFCURVE",
"624 16 QCURVE SMOOTH",
"643 16 OFFCURVE",
"667 43 OFFCURVE",
"668 67 QCURVE SMOOTH",
"669 119 OFFCURVE",
"663 223 QCURVE SMOOTH",
"658 292 OFFCURVE",
"646 343 QCURVE SMOOTH",
"639 373 OFFCURVE",
"584 416 OFFCURVE",
"557 415 QCURVE SMOOTH",
"471 410 OFFCURVE",
"415 358 QCURVE",
"400 342 OFFCURVE",
"393 342 QCURVE SMOOTH",
"388 342 OFFCURVE",
"374 353 OFFCURVE",
"370 356 QCURVE SMOOTH",
"315 395 OFFCURVE",
"276 395 QCURVE SMOOTH",
"240 395 OFFCURVE",
"207 359 QCURVE SMOOTH",
"193 344 OFFCURVE",
"177 331 OFFCURVE",
"171 331 QCURVE SMOOTH",
"164 331 OFFCURVE",
"152 346 OFFCURVE",
"143 363 QCURVE",
"126 379 OFFCURVE",
"104 379 QCURVE SMOOTH",
"87 379 OFFCURVE",
"63 357 OFFCURVE",
"62 338 QCURVE SMOOTH",
"60 301 OFFCURVE",
"60 226 QCURVE SMOOTH",
"60 143 OFFCURVE",
"63 59 QCURVE",
"63 49 OFFCURVE",
"84 24 OFFCURVE",
"94 23 QCURVE",
"105 21 OFFCURVE",
"136 34 OFFCURVE",
"141 43 QCURVE",
"158 71 OFFCURVE",
"158 104 QCURVE",
"157 138 LINE",
"157 190 OFFCURVE",
"199 256 OFFCURVE",
"245 282 QCURVE",
"256 293 OFFCURVE",
"277 293 QCURVE SMOOTH",
"290 293 OFFCURVE",
"308 281 OFFCURVE",
"309 270 QCURVE SMOOTH",
"311 244 OFFCURVE",
"313 233 QCURVE",
"323 129 OFFCURVE",
"323 77 QCURVE SMOOTH",
"323 57 OFFCURVE",
"341 36 OFFCURVE",
"373 26 OFFCURVE",
"380 24 QCURVE",
"388 21 OFFCURVE",
"393 21 QCURVE SMOOTH",
"407 21 OFFCURVE",
"423 45 OFFCURVE",
"425 61 QCURVE SMOOTH",
"426 68 OFFCURVE",
"426 82 QCURVE",
"425 113 LINE SMOOTH",
"423 145 OFFCURVE",
"424 160 QCURVE",
"425 167 OFFCURVE",
"420 192 OFFCURVE",
"420 198 QCURVE SMOOTH",
"420 206 OFFCURVE",
"423 213 QCURVE",
"424 216 OFFCURVE",
"437 244 OFFCURVE",
"443 252 QCURVE SMOOTH",
"461 276 OFFCURVE",
"475 293 OFFCURVE",
"505 311 OFFCURVE",
"529 317 QCURVE",
"559 299 OFFCURVE",
"561 261 QCURVE SMOOTH"
);
}
);
userData = {
assembly = "NPUSHB[ ]	/* 11 values pushed */\0121 1 1 3 93 79 2 0 1 2 76 \012MPPEM[ ]	/* MeasurePixelPerEm */\012PUSHB[ ]	/* 1 value pushed */\01224 \012LT[ ]	/* LessThan */\012IF[ ]	/* If */\012NPUSHB[ ]	/* 40 values pushed */\0120 3 5 1 5 3 1 128 0 6 6 33 77 0 2 2 33 77 0 1 1 4 97 0 4 4 33 77 0 5 5 0 97 7 1 0 0 34 0 78 \012ELSE[ ]	/* Else */\012MPPEM[ ]	/* MeasurePixelPerEm */\012PUSHB[ ]	/* 1 value pushed */\01239 \012LT[ ]	/* LessThan */\012IF[ ]	/* If */\012NPUSHB[ ]	/* 43 values pushed */\0120 2 4 5 4 2 5 128 0 3 5 1 5 3 1 128 0 6 6 33 77 0 1 1 4 97 0 4 4 33 77 0 5 5 0 97 7 1 0 0 34 0 78 \012ELSE[ ]	/* Else */\012MPPEM[ ]	/* MeasurePixelPerEm */\012PUSHB[ ]	/* 1 value pushed */\01246 \012LT[ ]	/* LessThan */\012IF[ ]	/* If */\012NPUSHB[ ]	/* 43 values pushed */\0120 6 4 6 133 0 2 4 5 4 2 5 128 0 3 5 1 5 3 1 128 0 1 1 4 97 0 4 4 33 77 0 5 5 0 97 7 1 0 0 34 0 78 \012ELSE[ ]	/* Else */\012NPUSHB[ ]	/* 47 values pushed */\0120 6 4 6 133 0 2 4 5 4 2 5 128 0 3 5 1 5 3 1 128 0 1 1 4 97 0 4 4 33 77 0 5 5 0 97 0 0 0 34 77 0 7 7 34 7 78 \012EIF[ ]	/* EndIf */\012EIF[ ]	/* EndIf */\012EIF[ ]	/* EndIf */\012NPUSHB[ ]	/* 19 values pushed */\01285 83 75 73 71 69 66 64 61 59 56 54 35 33 21 20 8 8 22 \012CALL[ ]	/* CallFunction */";
};
width = 718;
}
);
leftKerningGroup = m;
leftMetricsKey = "=n";
note = m;
rightKerningGroup = m;
rightMetricsKey = "=n";
unicode = 006D;
},
{
glyphname = n;
lastChange = "2020-12-07 04:06:49 +0000";
layers = (
{
layerId = "D6A4831D-747C-4592-93C0-305F4CD57904";
paths = (
{
closed = 1;
nodes = (
"220 379 LINE",
"215 403 OFFCURVE",
"177 429 OFFCURVE",
"148 429 QCURVE SMOOTH",
"125 429 OFFCURVE",
"103 414 OFFCURVE",
"97 392 OFFCURVE",
"94 369 QCURVE SMOOTH",
"91 339 OFFCURVE",
"84 293 OFFCURVE",
"82 277 QCURVE",
"76 242 OFFCURVE",
"69 185 QCURVE SMOOTH",
"59 106 OFFCURVE",
"60 48 QCURVE SMOOTH",
"61 3 OFFCURVE",
"124 -5 QCURVE SMOOTH",
"140 -7 OFFCURVE",
"157 6 OFFCURVE",
"163 36 OFFCURVE",
"164 40 QCURVE",
"179 129 OFFCURVE",
"192 193 QCURVE",
"192 195 OFFCURVE",
"198 225 OFFCURVE",
"205 230 QCURVE SMOOTH",
"227 246 OFFCURVE",
"250 256 OFFCURVE",
"284 265 QCURVE",
"306 270 OFFCURVE",
"322 270 QCURVE SMOOTH",
"339 270 OFFCURVE",
"360 255 OFFCURVE",
"363 237 QCURVE SMOOTH",
"369 193 OFFCURVE",
"371 133 QCURVE SMOOTH",
"372 112 LINE",
"372 88 OFFCURVE",
"375 66 OFFCURVE",
"394 49 OFFCURVE",
"417 49 QCURVE SMOOTH",
"439 49 OFFCURVE",
"471 78 OFFCURVE",
"474 102 QCURVE SMOOTH",
"478 138 OFFCURVE",
"478 157 QCURVE SMOOTH",
"478 231 OFFCURVE",
"447 292 QCURVE SMOOTH",
"409 364 OFFCURVE",
"334 364 QCURVE SMOOTH",
"286 364 OFFCURVE",
"217 349 QCURVE",
"216 352 OFFCURVE",
"220 371 OFFCURVE",
"220 377 QCURVE SMOOTH"
);
}
);
userData = {
assembly = "NPUSHB[ ]	/* 34 values pushed */\0120 3 0 3 133 0 1 2 1 134 0 0 2 2 0 89 0 0 0 2 97 0 2 0 2 81 51 49 40 39 35 4 8 25 \012CALL[ ]	/* CallFunction */";
};
width = 528;
}
);
leftKerningGroup = n;
note = n;
rightKerningGroup = n;
unicode = 006E;
},
{
glyphname = o;
lastChange = "2020-12-07 04:01:15 +0000";
layers = (
{
layerId = "D6A4831D-747C-4592-93C0-305F4CD57904";
paths = (
{
closed = 1;
nodes = (
"362 71 OFFCURVE",
"402 133 QCURVE SMOOTH",
"436 187 OFFCURVE",
"436 234 QCURVE SMOOTH",
"436 282 OFFCURVE",
"403 315 QCURVE SMOOTH",
"340 377 OFFCURVE",
"248 377 QCURVE SMOOTH",
"219 377 OFFCURVE",
"189 371 QCURVE SMOOTH",
"142 361 OFFCURVE",
"86 330 OFFCURVE",
"76 291 QCURVE SMOOTH",
"72 274 OFFCURVE",
"66 236 QCURVE",
"61 211 LINE",
"56 155 OFFCURVE",
"106 67 OFFCURVE",
"191 20 OFFCURVE",
"237 20 QCURVE SMOOTH",
"279 20 OFFCURVE",
"311 40 QCURVE SMOOTH"
);
},
{
closed = 1;
nodes = (
"225 330 OFFCURVE",
"245 330 QCURVE SMOOTH",
"253 330 OFFCURVE",
"257 329 QCURVE",
"289 320 OFFCURVE",
"325 267 OFFCURVE",
"325 235 QCURVE SMOOTH",
"325 198 OFFCURVE",
"301 171 QCURVE",
"269 131 OFFCURVE",
"255 118 QCURVE SMOOTH",
"245 110 OFFCURVE",
"221 97 OFFCURVE",
"215 101 QCURVE SMOOTH",
"200 108 OFFCURVE",
"189 140 QCURVE",
"186 151 OFFCURVE",
"185 181 OFFCURVE",
"185 188 QCURVE",
"177 191 LINE",
"188 223 LINE SMOOTH",
"207 283 OFFCURVE",
"223 324 QCURVE"
);
}
);
userData = {
assembly = "PUSHB[ ]	/* 7 values pushed */\01225 24 2 0 2 1 76 \012MPPEM[ ]	/* MeasurePixelPerEm */\012PUSHB[ ]	/* 1 value pushed */\01249 \012LT[ ]	/* LessThan */\012IF[ ]	/* If */\012NPUSHB[ ]	/* 16 values pushed */\0120 0 2 0 134 0 2 2 1 97 0 1 1 33 2 78 \012ELSE[ ]	/* Else */\012NPUSHB[ ]	/* 21 values pushed */\0120 0 2 0 134 0 1 2 2 1 89 0 1 1 2 97 0 2 1 2 81 \012EIF[ ]	/* EndIf */\012PUSHB[ ]	/* 7 values pushed */\01243 42 42 32 3 8 24 \012CALL[ ]	/* CallFunction */";
};
width = 486;
}
);
leftKerningGroup = o;
note = o;
rightKerningGroup = o;
unicode = 006F;
},
{
glyphname = p;
lastChange = "2020-12-07 01:44:31 +0000";
layers = (
{
layerId = "D6A4831D-747C-4592-93C0-305F4CD57904";
paths = (
{
closed = 1;
nodes = (
"337 122 OFFCURVE",
"382 194 OFFCURVE",
"389 236 QCURVE SMOOTH",
"392 253 OFFCURVE",
"392 270 QCURVE SMOOTH",
"392 316 OFFCURVE",
"364 343 QCURVE SMOOTH",
"303 402 OFFCURVE",
"255 402 QCURVE SMOOTH",
"212 402 OFFCURVE",
"176 357 QCURVE SMOOTH",
"156 332 OFFCURVE",
"126 309 OFFCURVE",
"101 307 QCURVE",
"85 305 OFFCURVE",
"66 287 OFFCURVE",
"66 271 QCURVE SMOOTH",
"66 267 OFFCURVE",
"68 255 QCURVE",
"77 214 OFFCURVE",
"75 154 QCURVE SMOOTH",
"68 -64 LINE SMOOTH",
"62 -206 OFFCURVE",
"60 -281 QCURVE SMOOTH",
"59 -303 OFFCURVE",
"102 -343 OFFCURVE",
"125 -343 QCURVE SMOOTH",
"128 -343 OFFCURVE",
"136 -341 QCURVE SMOOTH",
"147 -338 OFFCURVE",
"169 -317 OFFCURVE",
"170 -308 QCURVE SMOOTH",
"171 -301 OFFCURVE",
"171 -286 QCURVE SMOOTH",
"171 -272 OFFCURVE",
"169 -242 QCURVE SMOOTH",
"167 -212 OFFCURVE",
"167 -198 QCURVE SMOOTH",
"167 -124 OFFCURVE",
"172 -24 QCURVE SMOOTH",
"175 67 LINE",
"207 48 OFFCURVE",
"236 48 QCURVE SMOOTH",
"271 48 OFFCURVE",
"301 80 QCURVE"
);
},
{
closed = 1;
nodes = (
"215 267 OFFCURVE",
"237 303 OFFCURVE",
"240 307 QCURVE",
"248 320 OFFCURVE",
"266 320 QCURVE SMOOTH",
"280 320 OFFCURVE",
"287 307 QCURVE",
"292 295 OFFCURVE",
"292 283 QCURVE SMOOTH",
"292 255 OFFCURVE",
"263 182 OFFCURVE",
"219 124 OFFCURVE",
"199 118 QCURVE",
"187 124 LINE",
"186 129 OFFCURVE",
"186 140 QCURVE SMOOTH",
"186 187 OFFCURVE",
"208 247 QCURVE SMOOTH"
);
}
);
userData = {
assembly = "NPUSHB[ ]	/* 40 values pushed */\01249 3 2 0 3 1 76 0 0 3 1 3 0 1 128 0 3 3 2 97 0 2 2 33 77 0 1 1 35 1 78 58 56 36 34 46 32 4 8 24 \012CALL[ ]	/* CallFunction */";
};
width = 442;
}
);
leftKerningGroup = p;
leftMetricsKey = "=n";
note = p;
rightKerningGroup = p;
rightMetricsKey = "=o";
unicode = 0070;
},
{
glyphname = q;
lastChange = "2020-12-07 03:51:01 +0000";
layers = (
{
layerId = "D6A4831D-747C-4592-93C0-305F4CD57904";
paths = (
{
closed = 1;
nodes = (
"366 -273 OFFCURVE",
"382 -252 OFFCURVE",
"384 -230 QCURVE SMOOTH",
"388 -176 LINE",
"393 -134 OFFCURVE",
"393 -101 QCURVE SMOOTH",
"393 -76 OFFCURVE",
"417 -55 OFFCURVE",
"442 -53 QCURVE SMOOTH",
"467 -51 OFFCURVE",
"527 -43 OFFCURVE",
"539 -42 QCURVE SMOOTH",
"565 -39 LINE",
"565 -8 OFFCURVE",
"552 17 OFFCURVE",
"534 17 QCURVE SMOOTH",
"526 17 OFFCURVE",
"512 14 QCURVE SMOOTH",
"480 8 OFFCURVE",
"430 8 QCURVE SMOOTH",
"413 8 OFFCURVE",
"402 27 OFFCURVE",
"403 46 QCURVE SMOOTH",
"411 178 OFFCURVE",
"411 242 QCURVE SMOOTH",
"411 270 OFFCURVE",
"395 302 OFFCURVE",
"370 302 QCURVE SMOOTH",
"341 302 OFFCURVE",
"338 254 OFFCURVE",
"325 228 QCURVE SMOOTH",
"312 203 OFFCURVE",
"279 146 OFFCURVE",
"229 124 OFFCURVE",
"166 143 QCURVE",
"149 172 OFFCURVE",
"149 188 QCURVE SMOOTH",
"149 208 OFFCURVE",
"211 264 OFFCURVE",
"247 294 OFFCURVE",
"262 302 QCURVE SMOOTH",
"308 327 OFFCURVE",
"339 327 QCURVE SMOOTH",
"368 327 OFFCURVE",
"391 311 QCURVE",
"419 295 OFFCURVE",
"443 295 QCURVE SMOOTH",
"451 295 OFFCURVE",
"468 302 OFFCURVE",
"474 307 QCURVE",
"478 311 OFFCURVE",
"478 322 QCURVE SMOOTH",
"478 333 OFFCURVE",
"475 334 QCURVE",
"440 362 OFFCURVE",
"408 383 OFFCURVE",
"391 388 QCURVE",
"359 399 OFFCURVE",
"319 399 QCURVE SMOOTH",
"287 399 OFFCURVE",
"254 393 QCURVE",
"135 341 OFFCURVE",
"71 268 OFFCURVE",
"62 228 QCURVE SMOOTH",
"60 218 OFFCURVE",
"60 211 QCURVE SMOOTH",
"60 174 OFFCURVE",
"107 96 OFFCURVE",
"138 87 QCURVE",
"189 70 OFFCURVE",
"230 70 QCURVE SMOOTH",
"272 70 OFFCURVE",
"300 89 QCURVE",
"305 92 OFFCURVE",
"309 49 QCURVE SMOOTH",
"311 18 OFFCURVE",
"288 -16 OFFCURVE",
"256 -23 QCURVE SMOOTH",
"149 -50 OFFCURVE",
"93 -111 QCURVE",
"109 -133 OFFCURVE",
"157 -159 OFFCURVE",
"180 -159 QCURVE SMOOTH",
"200 -159 OFFCURVE",
"224 -141 OFFCURVE",
"257 -123 OFFCURVE",
"280 -106 OFFCURVE",
"288 -106 QCURVE SMOOTH",
"305 -106 OFFCURVE",
"306 -143 QCURVE SMOOTH",
"307 -158 OFFCURVE",
"306 -180 OFFCURVE",
"306 -187 QCURVE SMOOTH",
"306 -203 OFFCURVE",
"308 -231 QCURVE SMOOTH",
"295 -274 OFFCURVE",
"344 -274 QCURVE"
);
}
);
userData = {
assembly = "NPUSHB[ ]	/* 110 values pushed */\01293 1 1 10 77 1 0 9 68 1 3 7 30 1 5 2 63 1 6 5 45 40 2 4 6 6 76 0 1 10 9 10 1 9 128 0 9 0 10 9 0 126 0 3 7 2 7 3 2 128 0 2 5 7 2 5 126 0 5 6 7 5 6 126 0 6 4 7 6 4 126 0 4 4 132 0 0 0 7 3 0 7 105 0 10 10 8 97 0 8 8 33 10 78 103 101 99 97 43 42 39 23 46 34 38 40 36 11 8 31 \012CALL[ ]	/* CallFunction */";
};
width = 585;
}
);
leftMetricsKey = "=o";
note = q;
rightKerningGroup = q;
unicode = 0071;
},
{
glyphname = r;
lastChange = "2020-12-07 04:06:08 +0000";
layers = (
{
layerId = "D6A4831D-747C-4592-93C0-305F4CD57904";
paths = (
{
closed = 1;
nodes = (
"181 422 OFFCURVE",
"146 450 OFFCURVE",
"121 450 QCURVE SMOOTH",
"87 450 OFFCURVE",
"61 427 OFFCURVE",
"61 398 QCURVE SMOOTH",
"61 186 OFFCURVE",
"60 80 QCURVE SMOOTH",
"60 51 OFFCURVE",
"104 3 OFFCURVE",
"132 3 QCURVE SMOOTH",
"157 3 OFFCURVE",
"185 22 OFFCURVE",
"188 50 QCURVE SMOOTH",
"200 155 OFFCURVE",
"278 254 QCURVE SMOOTH",
"311 296 OFFCURVE",
"402 348 OFFCURVE",
"462 368 QCURVE",
"467 370 OFFCURVE",
"479 385 OFFCURVE",
"479 392 OFFCURVE",
"462 403 OFFCURVE",
"455 403 QCURVE SMOOTH",
"384 404 OFFCURVE",
"266 386 OFFCURVE",
"219 341 QCURVE SMOOTH",
"214 336 OFFCURVE",
"196 305 OFFCURVE",
"176 256 OFFCURVE",
"171 252 QCURVE",
"183 370 LINE SMOOTH",
"185 391 OFFCURVE",
"182 401 QCURVE"
);
}
);
userData = {
assembly = "NPUSHB[ ]	/* 32 values pushed */\01235 2 2 1 0 1 76 0 0 2 1 2 0 1 128 0 2 2 1 97 0 1 1 34 1 78 38 45 25 3 8 25 \012CALL[ ]	/* CallFunction */";
};
width = 489;
}
);
leftKerningGroup = r;
note = r;
rightKerningGroup = r;
unicode = 0072;
},
{
glyphname = s;
lastChange = "2020-12-07 02:20:59 +0000";
layers = (
{
layerId = "D6A4831D-747C-4592-93C0-305F4CD57904";
paths = (
{
closed = 1;
nodes = (
"268 -22 OFFCURVE",
"309 78 QCURVE SMOOTH",
"321 107 OFFCURVE",
"321 133 QCURVE SMOOTH",
"321 181 OFFCURVE",
"285 226 QCURVE SMOOTH",
"237 284 OFFCURVE",
"210 329 QCURVE SMOOTH",
"198 350 OFFCURVE",
"198 370 QCURVE SMOOTH",
"198 396 OFFCURVE",
"235 433 OFFCURVE",
"267 436 QCURVE SMOOTH",
"281 437 OFFCURVE",
"308 437 QCURVE SMOOTH",
"336 437 OFFCURVE",
"350 439 QCURVE SMOOTH",
"359 440 OFFCURVE",
"384 453 OFFCURVE",
"391 456 QCURVE",
"387 463 OFFCURVE",
"372 488 OFFCURVE",
"365 493 QCURVE",
"332 513 OFFCURVE",
"289 513 QCURVE SMOOTH",
"263 513 OFFCURVE",
"211 503 QCURVE SMOOTH",
"179 497 LINE SMOOTH",
"139 490 OFFCURVE",
"98 435 OFFCURVE",
"98 399 QCURVE SMOOTH",
"98 360 OFFCURVE",
"118 328 QCURVE SMOOTH",
"135 300 OFFCURVE",
"156 269 QCURVE SMOOTH",
"188 222 OFFCURVE",
"210 183 QCURVE SMOOTH",
"220 164 OFFCURVE",
"220 144 QCURVE SMOOTH",
"220 114 OFFCURVE",
"199 85 QCURVE SMOOTH",
"169 45 OFFCURVE",
"124 45 QCURVE SMOOTH",
"118 45 OFFCURVE",
"104 47 QCURVE",
"95 49 OFFCURVE",
"68 50 OFFCURVE",
"60 50 QCURVE",
"83 -22 OFFCURVE",
"167 -22 QCURVE SMOOTH"
);
}
);
userData = {
assembly = "NPUSHB[ ]	/* 42 values pushed */\01229 1 3 2 1 76 0 2 0 3 0 2 3 105 1 1 0 0 4 97 5 1 4 4 31 4 78 0 0 0 49 0 48 35 33 25 23 34 33 6 8 24 \012CALL[ ]	/* CallFunction */";
};
width = 411;
}
);
leftKerningGroup = s;
note = s;
rightKerningGroup = s;
unicode = 0073;
},
{
glyphname = t;
lastChange = "2020-12-07 01:11:22 +0000";
layers = (
{
layerId = "D6A4831D-747C-4592-93C0-305F4CD57904";
paths = (
{
closed = 1;
nodes = (
"81 366 OFFCURVE",
"104 362 QCURVE",
"118 359 OFFCURVE",
"130 354 OFFCURVE",
"131 348 QCURVE",
"136 281 OFFCURVE",
"136 216 QCURVE SMOOTH",
"136 175 OFFCURVE",
"135 156 QCURVE SMOOTH",
"132 108 OFFCURVE",
"175 34 OFFCURVE",
"249 -7 OFFCURVE",
"291 -7 QCURVE SMOOTH",
"322 -6 OFFCURVE",
"352 5 QCURVE SMOOTH",
"368 11 OFFCURVE",
"387 27 OFFCURVE",
"387 40 QCURVE SMOOTH",
"387 47 OFFCURVE",
"384 54 QCURVE",
"376 75 OFFCURVE",
"357 75 QCURVE SMOOTH",
"345 75 OFFCURVE",
"329 68 QCURVE",
"299 57 OFFCURVE",
"283 57 QCURVE SMOOTH",
"263 57 OFFCURVE",
"243 86 OFFCURVE",
"240 119 QCURVE SMOOTH",
"236 158 OFFCURVE",
"237 197 QCURVE SMOOTH",
"238 248 OFFCURVE",
"240 297 QCURVE",
"241 307 OFFCURVE",
"263 331 OFFCURVE",
"274 334 QCURVE SMOOTH",
"295 340 OFFCURVE",
"339 348 QCURVE",
"376 353 OFFCURVE",
"403 361 QCURVE",
"407 362 OFFCURVE",
"412 380 OFFCURVE",
"412 391 QCURVE SMOOTH",
"412 403 OFFCURVE",
"407 422 OFFCURVE",
"403 424 QCURVE",
"399 427 OFFCURVE",
"387 427 QCURVE SMOOTH",
"376 427 OFFCURVE",
"371 426 QCURVE",
"347 423 OFFCURVE",
"301 413 QCURVE",
"274 412 OFFCURVE",
"254 418 OFFCURVE",
"254 427 QCURVE SMOOTH",
"254 431 OFFCURVE",
"258 448 OFFCURVE",
"259 454 QCURVE",
"277 610 LINE SMOOTH",
"280 632 OFFCURVE",
"279 639 QCURVE SMOOTH",
"274 673 OFFCURVE",
"246 707 OFFCURVE",
"205 716 QCURVE",
"198 718 OFFCURVE",
"186 718 QCURVE SMOOTH",
"169 718 OFFCURVE",
"150 698 OFFCURVE",
"149 677 QCURVE SMOOTH",
"147 638 OFFCURVE",
"144 579 OFFCURVE",
"143 559 QCURVE SMOOTH",
"140 499 LINE",
"140 490 OFFCURVE",
"140 458 OFFCURVE",
"130 434 OFFCURVE",
"110 434 QCURVE SMOOTH",
"105 434 OFFCURVE",
"93 436 QCURVE",
"69 436 OFFCURVE",
"60 415 QCURVE",
"62 399 OFFCURVE",
"67 381 OFFCURVE",
"74 373 QCURVE"
);
}
);
userData = {
assembly = "NPUSHB[ ]	/* 15 values pushed */\01224 14 2 0 2 2 1 3 4 50 1 6 3 3 76 \012MPPEM[ ]	/* MeasurePixelPerEm */\012PUSHB[ ]	/* 1 value pushed */\01221 \012LT[ ]	/* LessThan */\012IF[ ]	/* If */\012NPUSHB[ ]	/* 45 values pushed */\0121 1 0 2 4 2 0 4 128 0 4 3 2 4 3 126 0 6 3 5 3 6 5 128 0 2 2 36 77 0 3 3 33 77 0 5 5 7 98 0 7 7 31 7 78 \012ELSE[ ]	/* Else */\012MPPEM[ ]	/* MeasurePixelPerEm */\012PUSHB[ ]	/* 1 value pushed */\01239 \012LT[ ]	/* LessThan */\012IF[ ]	/* If */\012NPUSHB[ ]	/* 40 values pushed */\0120 2 0 2 133 1 1 0 4 0 133 0 4 3 4 133 0 6 3 5 3 6 5 128 0 3 3 33 77 0 5 5 7 98 0 7 7 31 7 78 \012ELSE[ ]	/* Else */\012MPPEM[ ]	/* MeasurePixelPerEm */\012PUSHB[ ]	/* 1 value pushed */\01241 \012LT[ ]	/* LessThan */\012IF[ ]	/* If */\012NPUSHB[ ]	/* 37 values pushed */\0120 2 0 2 133 1 1 0 4 0 133 0 4 3 4 133 0 3 6 3 133 0 6 5 6 133 0 5 5 7 98 0 7 7 31 7 78 \012ELSE[ ]	/* Else */\012NPUSHB[ ]	/* 42 values pushed */\0120 2 0 2 133 1 1 0 4 0 133 0 4 3 4 133 0 3 6 3 133 0 6 5 6 133 0 5 7 7 5 89 0 5 5 7 98 0 7 5 7 82 \012EIF[ ]	/* EndIf */\012EIF[ ]	/* EndIf */\012EIF[ ]	/* EndIf */\012NPUSHB[ ]	/* 14 values pushed */\01271 69 62 60 58 56 50 28 41 33 19 8 8 27 \012CALL[ ]	/* CallFunction */";
};
width = 462;
}
);
leftKerningGroup = t;
note = t;
rightKerningGroup = t;
unicode = 0074;
},
{
glyphname = u;
lastChange = "2020-12-07 01:11:22 +0000";
layers = (
{
layerId = "D6A4831D-747C-4592-93C0-305F4CD57904";
paths = (
{
closed = 1;
nodes = (
"135 423 OFFCURVE",
"125 423 QCURVE SMOOTH",
"105 423 OFFCURVE",
"90 412 QCURVE SMOOTH",
"73 401 OFFCURVE",
"71 386 QCURVE",
"60 325 OFFCURVE",
"60 285 QCURVE SMOOTH",
"60 206 OFFCURVE",
"94 146 QCURVE SMOOTH",
"115 107 OFFCURVE",
"187 62 OFFCURVE",
"227 62 QCURVE SMOOTH",
"259 62 OFFCURVE",
"282 76 QCURVE",
"296 82 OFFCURVE",
"308 92 QCURVE",
"324 102 LINE",
"327 105 LINE",
"329 99 LINE",
"337 80 LINE",
"346 53 OFFCURVE",
"353 37 QCURVE",
"356 32 OFFCURVE",
"369 19 OFFCURVE",
"371 19 QCURVE",
"378 20 OFFCURVE",
"396 31 OFFCURVE",
"398 34 QCURVE SMOOTH",
"418 87 OFFCURVE",
"419 122 QCURVE SMOOTH",
"421 166 OFFCURVE",
"424 256 QCURVE SMOOTH",
"425 285 OFFCURVE",
"425 300 QCURVE",
"426 347 LINE SMOOTH",
"426 363 OFFCURVE",
"418 377 OFFCURVE",
"397 383 OFFCURVE",
"370 385 QCURVE SMOOTH",
"353 385 OFFCURVE",
"335 383 OFFCURVE",
"331 379 QCURVE",
"324 371 OFFCURVE",
"321 340 QCURVE SMOOTH",
"317 293 OFFCURVE",
"281 205 OFFCURVE",
"244 161 QCURVE SMOOTH",
"228 143 OFFCURVE",
"218 143 QCURVE SMOOTH",
"210 143 OFFCURVE",
"199 156 OFFCURVE",
"193 171 QCURVE SMOOTH",
"176 214 OFFCURVE",
"177 265 QCURVE SMOOTH",
"178 310 OFFCURVE",
"189 355 QCURVE",
"192 368 OFFCURVE",
"192 376 QCURVE SMOOTH",
"192 393 OFFCURVE",
"171 413 OFFCURVE",
"146 420 QCURVE SMOOTH"
);
}
);
userData = {
assembly = "NPUSHB[ ]	/* 41 values pushed */\01216 1 0 1 43 1 2 0 2 76 35 1 2 73 0 3 1 3 133 0 0 0 2 0 2 101 0 1 1 33 1 78 60 58 49 47 40 42 4 8 24 \012CALL[ ]	/* CallFunction */";
};
width = 476;
}
);
leftKerningGroup = u;
note = u;
rightKerningGroup = u;
unicode = 0075;
},
{
glyphname = v;
lastChange = "2020-12-07 04:07:09 +0000";
layers = (
{
layerId = "D6A4831D-747C-4592-93C0-305F4CD57904";
paths = (
{
closed = 1;
nodes = (
"208 235 OFFCURVE",
"200 267 QCURVE SMOOTH",
"192 298 OFFCURVE",
"174 336 OFFCURVE",
"154 351 QCURVE",
"126 370 OFFCURVE",
"107 370 QCURVE SMOOTH",
"90 370 OFFCURVE",
"75 359 QCURVE SMOOTH",
"60 348 OFFCURVE",
"60 334 QCURVE SMOOTH",
"60 326 OFFCURVE",
"71 301 OFFCURVE",
"74 293 QCURVE",
"105 192 OFFCURVE",
"151 51 QCURVE SMOOTH",
"167 7 OFFCURVE",
"182 -11 QCURVE SMOOTH",
"207 -39 OFFCURVE",
"240 -39 QCURVE SMOOTH",
"262 -39 OFFCURVE",
"301 -12 OFFCURVE",
"310 13 QCURVE SMOOTH",
"353 124 LINE SMOOTH",
"412 276 OFFCURVE",
"427 315 QCURVE SMOOTH",
"435 337 OFFCURVE",
"435 359 QCURVE SMOOTH",
"435 368 OFFCURVE",
"434 372 QCURVE",
"432 384 OFFCURVE",
"419 400 OFFCURVE",
"409 400 QCURVE SMOOTH",
"398 400 OFFCURVE",
"390 392 QCURVE",
"350 358 OFFCURVE",
"321 314 QCURVE SMOOTH",
"305 290 OFFCURVE",
"276 230 QCURVE SMOOTH",
"258 193 OFFCURVE",
"237 155 QCURVE",
"235 159 OFFCURVE",
"224 193 QCURVE",
"219 211 OFFCURVE",
"215 219 QCURVE"
);
}
);
userData = {
assembly = "PUSHB[ ]	/* 6 values pushed */\01216 1 1 2 1 76 \012MPPEM[ ]	/* MeasurePixelPerEm */\012PUSHB[ ]	/* 1 value pushed */\01224 \012LT[ ]	/* LessThan */\012IF[ ]	/* If */\012NPUSHB[ ]	/* 19 values pushed */\0120 2 0 1 0 2 1 128 0 0 0 33 77 0 1 1 31 1 78 \012ELSE[ ]	/* Else */\012NPUSHB[ ]	/* 18 values pushed */\0120 2 0 1 0 2 1 128 0 1 1 132 0 0 0 33 0 78 \012EIF[ ]	/* EndIf */\012PUSHB[ ]	/* 6 values pushed */\01243 43 42 3 8 25 \012CALL[ ]	/* CallFunction */";
};
width = 485;
}
);
leftKerningGroup = v;
note = v;
rightKerningGroup = v;
unicode = 0076;
},
{
glyphname = w;
lastChange = "2020-12-07 04:08:02 +0000";
layers = (
{
layerId = "D6A4831D-747C-4592-93C0-305F4CD57904";
paths = (
{
closed = 1;
nodes = (
"253 -36 OFFCURVE",
"272 14 QCURVE",
"285 55 OFFCURVE",
"316 152 QCURVE",
"334 130 OFFCURVE",
"364 55 OFFCURVE",
"411 11 OFFCURVE",
"434 8 OFFCURVE",
"447 8 QCURVE SMOOTH",
"453 8 OFFCURVE",
"489 45 OFFCURVE",
"536 105 OFFCURVE",
"589 185 OFFCURVE",
"621 285 OFFCURVE",
"626 318 OFFCURVE",
"626 327 QCURVE SMOOTH",
"626 346 OFFCURVE",
"606 379 OFFCURVE",
"578 364 OFFCURVE",
"570 353 QCURVE SMOOTH",
"539 313 OFFCURVE",
"513 260 OFFCURVE",
"499 225 QCURVE SMOOTH",
"476 170 OFFCURVE",
"446 116 OFFCURVE",
"446 116 QCURVE SMOOTH",
"433 116 OFFCURVE",
"418 157 OFFCURVE",
"382 244 OFFCURVE",
"337 292 QCURVE",
"321 292 OFFCURVE",
"291 275 OFFCURVE",
"280 259 QCURVE SMOOTH",
"266 238 OFFCURVE",
"228 159 QCURVE SMOOTH",
"224 152 OFFCURVE",
"209 99 OFFCURVE",
"207 96 QCURVE",
"193 98 OFFCURVE",
"149 207 OFFCURVE",
"149 227 QCURVE SMOOTH",
"148 254 OFFCURVE",
"142 283 OFFCURVE",
"120 301 QCURVE SMOOTH",
"110 309 OFFCURVE",
"98 309 QCURVE SMOOTH",
"86 309 OFFCURVE",
"82 301 QCURVE",
"60 288 OFFCURVE",
"60 266 QCURVE SMOOTH",
"60 263 OFFCURVE",
"62 254 QCURVE SMOOTH",
"77 186 OFFCURVE",
"95 125 QCURVE SMOOTH",
"108 81 OFFCURVE",
"150 -8 OFFCURVE",
"186 -26 QCURVE SMOOTH",
"208 -37 OFFCURVE",
"218 -36 QCURVE SMOOTH"
);
}
);
userData = {
assembly = "NPUSHB[ ]	/* 41 values pushed */\0121 1 3 2 1 76 0 1 2 1 133 0 2 3 2 133 0 3 3 4 97 0 4 4 34 77 0 0 0 31 0 78 73 71 40 47 43 36 5 8 26 \012CALL[ ]	/* CallFunction */";
};
width = 676;
}
);
leftKerningGroup = w;
note = w;
rightKerningGroup = w;
unicode = 0077;
},
{
glyphname = x;
lastChange = "2020-12-07 04:07:41 +0000";
layers = (
{
layerId = "D6A4831D-747C-4592-93C0-305F4CD57904";
paths = (
{
closed = 1;
nodes = (
"294 71 LINE",
"296 69 OFFCURVE",
"317 40 OFFCURVE",
"330 31 QCURVE",
"340 25 OFFCURVE",
"368 21 OFFCURVE",
"371 21 QCURVE SMOOTH",
"380 21 OFFCURVE",
"394 19 QCURVE",
"394 27 OFFCURVE",
"396 41 OFFCURVE",
"396 49 QCURVE SMOOTH",
"396 60 OFFCURVE",
"393 67 QCURVE",
"383 93 OFFCURVE",
"356 136 QCURVE",
"332 168 LINE",
"317 186 OFFCURVE",
"317 193 QCURVE SMOOTH",
"317 199 OFFCURVE",
"335 216 OFFCURVE",
"350 228 QCURVE SMOOTH",
"355 232 OFFCURVE",
"364 240 OFFCURVE",
"368 243 QCURVE",
"406 274 OFFCURVE",
"431 303 QCURVE",
"434 307 OFFCURVE",
"439 321 OFFCURVE",
"439 327 QCURVE SMOOTH",
"439 331 OFFCURVE",
"437 335 QCURVE",
"422 352 OFFCURVE",
"394 370 OFFCURVE",
"378 370 QCURVE SMOOTH",
"364 370 OFFCURVE",
"349 362 QCURVE SMOOTH",
"334 354 OFFCURVE",
"304 335 OFFCURVE",
"293 324 QCURVE SMOOTH",
"279 309 OFFCURVE",
"260 291 OFFCURVE",
"256 291 QCURVE SMOOTH",
"253 291 OFFCURVE",
"247 299 OFFCURVE",
"239 320 OFFCURVE",
"236 328 QCURVE SMOOTH",
"229 347 OFFCURVE",
"188 372 OFFCURVE",
"160 383 QCURVE",
"148 387 OFFCURVE",
"119 374 QCURVE SMOOTH",
"105 368 OFFCURVE",
"98 366 QCURVE",
"100 360 OFFCURVE",
"108 332 OFFCURVE",
"114 323 QCURVE",
"136 293 LINE",
"156 269 OFFCURVE",
"161 260 QCURVE SMOOTH",
"168 248 OFFCURVE",
"183 231 OFFCURVE",
"183 229 QCURVE SMOOTH",
"183 226 OFFCURVE",
"166 209 OFFCURVE",
"158 201 QCURVE SMOOTH",
"115 155 OFFCURVE",
"69 93 QCURVE SMOOTH",
"60 80 OFFCURVE",
"60 63 QCURVE SMOOTH",
"60 58 OFFCURVE",
"62 52 QCURVE",
"71 30 OFFCURVE",
"109 7 OFFCURVE",
"132 7 QCURVE SMOOTH",
"150 7 OFFCURVE",
"183 22 OFFCURVE",
"194 37 QCURVE SMOOTH",
"227 83 LINE",
"251 116 LINE",
"257 111 OFFCURVE",
"273 98 OFFCURVE",
"277 93 QCURVE SMOOTH"
);
}
);
userData = {
assembly = "NPUSHB[ ]	/* 33 values pushed */\01270 52 12 2 4 2 1 1 76 0 1 1 2 97 0 2 2 34 77 0 0 0 40 0 78 75 74 48 46 38 3 8 23 \012CALL[ ]	/* CallFunction */";
};
width = 489;
}
);
leftKerningGroup = x;
note = x;
rightKerningGroup = x;
unicode = 0078;
},
{
glyphname = y;
lastChange = "2020-12-07 03:57:52 +0000";
layers = (
{
layerId = "D6A4831D-747C-4592-93C0-305F4CD57904";
paths = (
{
closed = 1;
nodes = (
"74 -292 LINE",
"80 -296 OFFCURVE",
"104 -309 OFFCURVE",
"113 -313 QCURVE",
"156 -330 OFFCURVE",
"199 -330 QCURVE SMOOTH",
"253 -330 OFFCURVE",
"333 -273 OFFCURVE",
"348 -215 QCURVE SMOOTH",
"360 -169 OFFCURVE",
"371 -78 OFFCURVE",
"377 4 QCURVE SMOOTH",
"380 44 LINE SMOOTH",
"385 105 OFFCURVE",
"389 229 QCURVE SMOOTH",
"392 322 LINE SMOOTH",
"394 376 OFFCURVE",
"342 386 QCURVE",
"338 387 OFFCURVE",
"329 387 QCURVE SMOOTH",
"296 387 OFFCURVE",
"279 349 QCURVE SMOOTH",
"265 318 OFFCURVE",
"239 285 QCURVE",
"231 274 OFFCURVE",
"220 274 QCURVE SMOOTH",
"206 274 OFFCURVE",
"201 295 QCURVE SMOOTH",
"189 348 OFFCURVE",
"184 393 QCURVE SMOOTH",
"181 422 OFFCURVE",
"137 461 OFFCURVE",
"109 461 QCURVE SMOOTH",
"88 461 OFFCURVE",
"72 450 QCURVE",
"68 447 OFFCURVE",
"60 432 OFFCURVE",
"60 426 QCURVE SMOOTH",
"60 424 LINE",
"65 402 OFFCURVE",
"77 358 QCURVE SMOOTH",
"83 335 OFFCURVE",
"88 318 QCURVE",
"103 263 OFFCURVE",
"182 191 OFFCURVE",
"236 185 QCURVE SMOOTH",
"261 182 OFFCURVE",
"280 157 OFFCURVE",
"279 134 QCURVE SMOOTH",
"275 70 LINE SMOOTH",
"266 -72 OFFCURVE",
"257 -143 QCURVE SMOOTH",
"248 -214 OFFCURVE",
"181 -270 OFFCURVE",
"109 -272 QCURVE",
"101 -273 OFFCURVE",
"79 -280 OFFCURVE",
"72 -282 QCURVE"
);
}
);
userData = {
assembly = "NPUSHB[ ]	/* 14 values pushed */\01218 1 3 1 8 1 0 2 57 1 4 0 3 76 \012MPPEM[ ]	/* MeasurePixelPerEm */\012PUSHB[ ]	/* 1 value pushed */\01239 \012LT[ ]	/* LessThan */\012IF[ ]	/* If */\012NPUSHB[ ]	/* 29 values pushed */\0120 1 3 1 133 0 2 3 0 3 2 0 128 0 3 3 33 77 0 0 0 4 97 0 4 4 35 4 78 \012ELSE[ ]	/* Else */\012NPUSHB[ ]	/* 31 values pushed */\0120 1 3 1 133 0 3 2 3 133 0 2 0 2 133 0 0 4 4 0 89 0 0 0 4 97 0 4 0 4 81 \012EIF[ ]	/* EndIf */\012NPUSHB[ ]	/* 12 values pushed */\01252 50 38 36 32 30 25 23 18 5 8 23 \012CALL[ ]	/* CallFunction */";
};
width = 442;
}
);
note = y;
unicode = 0079;
},
{
glyphname = z;
lastChange = "2020-12-07 01:11:22 +0000";
layers = (
{
layerId = "D6A4831D-747C-4592-93C0-305F4CD57904";
paths = (
{
closed = 1;
nodes = (
"191 112 OFFCURVE",
"213 124 OFFCURVE",
"220 130 QCURVE SMOOTH",
"312 212 OFFCURVE",
"354 254 QCURVE",
"364 265 OFFCURVE",
"380 302 OFFCURVE",
"376 306 QCURVE",
"362 322 LINE",
"349 340 OFFCURVE",
"324 360 OFFCURVE",
"304 361 QCURVE SMOOTH",
"229 367 OFFCURVE",
"148 389 QCURVE SMOOTH",
"136 392 OFFCURVE",
"125 392 QCURVE SMOOTH",
"109 392 OFFCURVE",
"85 380 OFFCURVE",
"71 367 QCURVE",
"88 339 OFFCURVE",
"138 318 OFFCURVE",
"176 312 QCURVE SMOOTH",
"202 307 LINE",
"210 305 OFFCURVE",
"231 297 OFFCURVE",
"236 295 QCURVE",
"233 289 OFFCURVE",
"224 269 OFFCURVE",
"219 264 QCURVE SMOOTH",
"206 251 OFFCURVE",
"133 186 QCURVE SMOOTH",
"90 147 LINE SMOOTH",
"60 119 OFFCURVE",
"60 98 QCURVE SMOOTH",
"60 82 OFFCURVE",
"80 60 QCURVE SMOOTH",
"109 29 OFFCURVE",
"136 24 QCURVE SMOOTH",
"173 18 OFFCURVE",
"210 18 QCURVE SMOOTH",
"340 18 OFFCURVE",
"452 90 QCURVE",
"456 93 OFFCURVE",
"463 110 OFFCURVE",
"463 117 QCURVE SMOOTH",
"463 121 OFFCURVE",
"462 122 QCURVE",
"455 131 OFFCURVE",
"433 146 OFFCURVE",
"425 145 QCURVE",
"407 141 OFFCURVE",
"360 126 QCURVE",
"330 115 OFFCURVE",
"307 109 QCURVE SMOOTH",
"283 102 OFFCURVE",
"238 102 QCURVE SMOOTH",
"218 102 OFFCURVE",
"186 106 OFFCURVE",
"185 109 QCURVE"
);
}
);
userData = {
assembly = "NPUSHB[ ]	/* 45 values pushed */\01239 1 3 2 58 50 32 3 0 3 2 76 0 3 2 0 2 3 0 128 0 2 2 33 77 0 0 0 1 98 0 1 1 34 1 78 47 46 43 41 46 33 4 8 24 \012CALL[ ]	/* CallFunction */";
};
width = 513;
}
);
leftKerningGroup = z;
note = z;
rightKerningGroup = z;
unicode = 007A;
},
{
glyphname = braceleft;
lastChange = "2020-12-07 01:11:19 +0000";
layers = (
{
layerId = "D6A4831D-747C-4592-93C0-305F4CD57904";
paths = (
{
closed = 1;
nodes = (
"125 7 LINE",
"123 -9 OFFCURVE",
"123 -16 QCURVE SMOOTH",
"123 -67 OFFCURVE",
"173 -128 QCURVE SMOOTH",
"180 -136 OFFCURVE",
"207 -149 OFFCURVE",
"245 -161 OFFCURVE",
"252 -163 QCURVE",
"258 -164 OFFCURVE",
"281 -151 OFFCURVE",
"286 -145 QCURVE",
"289 -140 OFFCURVE",
"274 -120 OFFCURVE",
"272 -117 QCURVE",
"269 -113 OFFCURVE",
"248 -95 OFFCURVE",
"246 -89 QCURVE",
"227 -40 OFFCURVE",
"227 5 QCURVE SMOOTH",
"227 29 OFFCURVE",
"234 62 QCURVE",
"250 121 OFFCURVE",
"250 173 QCURVE SMOOTH",
"250 249 OFFCURVE",
"210 312 QCURVE SMOOTH",
"207 317 OFFCURVE",
"207 324 QCURVE SMOOTH",
"207 337 OFFCURVE",
"214 346 QCURVE",
"246 382 OFFCURVE",
"246 439 QCURVE SMOOTH",
"246 459 OFFCURVE",
"242 499 QCURVE SMOOTH",
"238 543 OFFCURVE",
"224 608 QCURVE SMOOTH",
"219 631 OFFCURVE",
"211 679 QCURVE SMOOTH",
"209 693 OFFCURVE",
"209 699 QCURVE SMOOTH",
"209 739 OFFCURVE",
"263 791 OFFCURVE",
"313 801 QCURVE SMOOTH",
"324 803 OFFCURVE",
"337 815 OFFCURVE",
"337 823 QCURVE SMOOTH",
"337 832 OFFCURVE",
"327 841 QCURVE",
"298 865 OFFCURVE",
"266 865 QCURVE SMOOTH",
"260 865 OFFCURVE",
"246 863 QCURVE",
"109 838 OFFCURVE",
"109 714 QCURVE SMOOTH",
"109 674 OFFCURVE",
"124 608 QCURVE",
"134 552 OFFCURVE",
"137 529 QCURVE SMOOTH",
"140 507 OFFCURVE",
"140 484 QCURVE SMOOTH",
"140 443 OFFCURVE",
"111 377 OFFCURVE",
"74 350 QCURVE",
"60 339 OFFCURVE",
"60 330 QCURVE SMOOTH",
"60 319 OFFCURVE",
"76 309 QCURVE",
"83 305 OFFCURVE",
"115 289 OFFCURVE",
"119 281 QCURVE SMOOTH",
"146 222 OFFCURVE",
"146 181 QCURVE SMOOTH",
"146 162 OFFCURVE",
"142 147 QCURVE",
"132 101 OFFCURVE",
"114 7 QCURVE"
);
}
);
userData = {
assembly = "NPUSHB[ ]	/* 12 values pushed */\01247 35 29 3 1 0 1 76 72 1 1 73 \012MPPEM[ ]	/* MeasurePixelPerEm */\012PUSHB[ ]	/* 1 value pushed */\01244 \012LT[ ]	/* LessThan */\012IF[ ]	/* If */\012NPUSHB[ ]	/* 11 values pushed */\0120 0 1 0 133 0 1 1 34 1 78 \012ELSE[ ]	/* Else */\012NPUSHB[ ]	/* 9 values pushed */\0120 0 1 0 133 0 1 1 118 \012EIF[ ]	/* EndIf */\012PUSHB[ ]	/* 7 values pushed */\01275 74 26 24 2 8 22 \012CALL[ ]	/* CallFunction */";
};
width = 387;
}
);
note = braceleft;
unicode = 007B;
},
